Cambay Devanagari-Bold.ufo
<glyph name="ampersand" format="1">
  <advance width="600"/>
  <unicode hex="0026"/>
  <outline>
    <contour>
      <point x="263" y="337" type="curve"/>
      <point x="275" y="327" type="line"/>
      <point x="565" y="0" type="line"/>
      <point x="453" y="0" type="line"/>
      <point x="202" y="281" type="line" smooth="yes"/>
      <point x="199" y="285"/>
      <point x="188" y="291"/>
      <point x="185" y="294" type="curve" smooth="yes"/>
      <point x="141" y="345"/>
      <point x="113" y="399"/>
      <point x="113" y="448" type="curve" smooth="yes"/>
      <point x="113" y="533"/>
      <point x="178" y="568"/>
      <point x="251" y="568" type="curve" smooth="yes"/>
      <point x="325" y="568"/>
      <point x="382" y="532"/>
      <point x="382" y="450" type="curve" smooth="yes"/>
      <point x="382" y="391"/>
      <point x="353" y="350"/>
      <point x="269" y="279" type="curve"/>
      <point x="268" y="278"/>
      <point x="264" y="281"/>
      <point x="263" y="280" type="curve" smooth="yes"/>
      <point x="262" y="279"/>
      <point x="260" y="273"/>
      <point x="259" y="272" type="curve"/>
      <point x="212" y="232"/>
      <point x="138" y="185"/>
      <point x="138" y="125" type="curve" smooth="yes"/>
      <point x="138" y="87"/>
      <point x="167" y="66"/>
      <point x="208" y="66" type="curve" smooth="yes"/>
      <point x="272" y="66"/>
      <point x="300" y="99"/>
      <point x="356" y="154" type="curve"/>
      <point x="374" y="174" type="line"/>
      <point x="480" y="288" type="line"/>
      <point x="544" y="228" type="line"/>
      <point x="435" y="107" type="line"/>
      <point x="409" y="81" type="line"/>
      <point x="342" y="18"/>
      <point x="295" y="-18"/>
      <point x="207" y="-18" type="curve" smooth="yes"/>
      <point x="127" y="-18"/>
      <point x="50" y="31"/>
      <point x="50" y="120" type="curve" smooth="yes"/>
      <point x="50" y="212"/>
      <point x="116" y="261"/>
      <point x="206" y="338" type="curve"/>
      <point x="208" y="339"/>
      <point x="212" y="342"/>
      <point x="213" y="341" type="curve" smooth="yes"/>
      <point x="214" y="340"/>
      <point x="215" y="343"/>
      <point x="216" y="344" type="curve"/>
      <point x="241" y="361"/>
      <point x="295" y="400"/>
      <point x="295" y="446" type="curve" smooth="yes"/>
      <point x="295" y="468"/>
      <point x="281" y="485"/>
      <point x="251" y="485" type="curve" smooth="yes"/>
      <point x="221" y="485"/>
      <point x="201" y="469"/>
      <point x="201" y="445" type="curve" smooth="yes"/>
      <point x="201" y="410"/>
      <point x="220" y="385"/>
    </contour>
  </outline>
</glyph>
<glyph name="parenleft" format="1">
  <advance width="267"/>
  <unicode hex="0028"/>
  <outline>
    <contour>
      <point x="140" y="279"/>
      <point x="149" y="337"/>
      <point x="166" y="398" type="curve" smooth="yes"/>
      <point x="184" y="459"/>
      <point x="204" y="513"/>
      <point x="237" y="570" type="curve"/>
      <point x="176" y="603" type="line"/>
      <point x="114" y="503"/>
      <point x="53" y="370"/>
      <point x="53" y="224" type="curve" smooth="yes"/>
      <point x="53" y="78"/>
      <point x="115" y="-54"/>
      <point x="177" y="-154" type="curve"/>
      <point x="237" y="-122" type="line"/>
      <point x="204" y="-65"/>
      <point x="184" y="-11"/>
      <point x="166" y="50" type="curve" smooth="yes"/>
      <point x="149" y="111"/>
      <point x="140" y="169"/>
      <point x="140" y="222" type="curve" smooth="yes"/>
    </contour>
  </outline>
</glyph>
<glyph name="asterisk" format="1">
  <advance width="472"/>
  <unicode hex="002A"/>
  <outline>
    <contour>
      <point x="267" y="434" type="line"/>
      <point x="359" y="513" type="line"/>
      <point x="410" y="425" type="line"/>
      <point x="296" y="380" type="line"/>
      <point x="412" y="338" type="line"/>
      <point x="361" y="252" type="line"/>
      <point x="268" y="331" type="line"/>
      <point x="284" y="209" type="line"/>
      <point x="185" y="209" type="line"/>
      <point x="205" y="331" type="line"/>
      <point x="111" y="253" type="line"/>
      <point x="62" y="339" type="line"/>
      <point x="177" y="383" type="line"/>
      <point x="60" y="425" type="line"/>
      <point x="109" y="513" type="line"/>
      <point x="205" y="434" type="line"/>
      <point x="185" y="557" type="line"/>
      <point x="284" y="557" type="line"/>
    </contour>
  </outline>
</glyph>
<glyph name="plus" format="1">
  <advance width="464"/>
  <unicode hex="002B"/>
  <outline>
    <contour>
      <point x="414" y="269" type="line"/>
      <point x="414" y="185" type="line"/>
      <point x="273" y="185" type="line"/>
      <point x="273" y="41" type="line"/>
      <point x="191" y="41" type="line"/>
      <point x="191" y="185" type="line"/>
      <point x="50" y="185" type="line"/>
      <point x="50" y="269" type="line"/>
      <point x="191" y="269" type="line"/>
      <point x="191" y="412" type="line"/>
      <point x="273" y="412" type="line"/>
      <point x="273" y="269" type="line"/>
    </contour>
  </outline>
</glyph>
<glyph name="comma" format="1">
  <advance width="213"/>
  <unicode hex="002C"/>
  <outline>
    <contour>
      <point x="100" y="-75"/>
      <point x="147" y="-27"/>
      <point x="147" y="30" type="curve"/>
      <point x="147" y="77"/>
      <point x="124" y="103"/>
      <point x="90" y="103" type="curve" smooth="yes"/>
      <point x="59" y="103"/>
      <point x="33" y="80"/>
      <point x="33" y="46" type="curve" smooth="yes"/>
      <point x="33" y="20"/>
      <point x="51" y="-2"/>
      <point x="74" y="-9" type="curve"/>
      <point x="29" y="-93" type="line"/>
      <point x="61" y="-114" type="line"/>
    </contour>
  </outline>
</glyph>
<glyph name="hyphen" format="1">
  <advance width="326"/>
  <unicode hex="002D"/>
  <outline>
    <contour>
      <point x="30" y="180" type="line"/>
      <point x="276" y="180" type="line"/>
      <point x="276" y="247" type="line"/>
      <point x="30" y="247" type="line"/>
    </contour>
  </outline>
</glyph>
<glyph name="slash" format="1">
  <advance width="323"/>
  <unicode hex="002F"/>
  <outline>
    <contour>
      <point x="293" y="570" type="line"/>
      <point x="87" y="-55" type="line"/>
      <point x="5" y="-55" type="line"/>
      <point x="211" y="570" type="line"/>
    </contour>
  </outline>
</glyph>
<glyph name="zero" format="1">
  <advance width="422"/>
  <unicode hex="0030"/>
  <outline>
    <contour>
      <point x="135" y="68"/>
      <point x="110" y="143"/>
      <point x="110" y="231" type="curve" smooth="yes"/>
      <point x="110" y="319"/>
      <point x="134" y="391"/>
      <point x="211" y="391" type="curve" smooth="yes"/>
      <point x="287" y="391"/>
      <point x="312" y="319"/>
      <point x="312" y="231" type="curve" smooth="yes"/>
      <point x="312" y="143"/>
      <point x="287" y="68"/>
      <point x="211" y="68" type="curve" smooth="yes"/>
    </contour>
    <contour>
      <point x="77" y="469"/>
      <point x="20" y="359"/>
      <point x="20" y="231" type="curve" smooth="yes"/>
      <point x="20" y="103"/>
      <point x="77" y="-8"/>
      <point x="212" y="-8" type="curve" smooth="yes"/>
      <point x="345" y="-8"/>
      <point x="402" y="103"/>
      <point x="402" y="231" type="curve" smooth="yes"/>
      <point x="402" y="361"/>
      <point x="347" y="469"/>
      <point x="212" y="469" type="curve"/>
    </contour>
  </outline>
</glyph>
<glyph name="four" format="1">
  <advance width="401"/>
  <unicode hex="0034"/>
  <outline>
    <contour>
      <point x="218" y="466" type="line"/>
      <point x="15" y="159" type="line"/>
      <point x="15" y="101" type="line"/>
      <point x="231" y="101" type="line"/>
      <point x="231" y="-1" type="line"/>
      <point x="317" y="-1" type="line"/>
      <point x="317" y="101" type="line"/>
      <point x="391" y="101" type="line"/>
      <point x="391" y="175" type="line"/>
      <point x="317" y="175" type="line"/>
      <point x="317" y="466" type="line"/>
    </contour>
    <contour>
      <point x="121" y="175" type="line"/>
      <point x="231" y="348" type="line"/>
      <point x="231" y="175" type="line"/>
    </contour>
  </outline>
</glyph>
<glyph name="seven" format="1">
  <advance width="341"/>
  <unicode hex="0037"/>
  <outline>
    <contour>
      <point x="20" y="466" type="line"/>
      <point x="20" y="391" type="line"/>
      <point x="228" y="391" type="line"/>
      <point x="71" y="0" type="line"/>
      <point x="156" y="0" type="line"/>
      <point x="321" y="407" type="line"/>
      <point x="321" y="466" type="line"/>
    </contour>
  </outline>
</glyph>
<glyph name="less" format="1">
  <advance width="428"/>
  <unicode hex="003C"/>
  <outline>
    <contour>
      <point x="380" y="439" type="line"/>
      <point x="380" y="355" type="line"/>
      <point x="132" y="240" type="line"/>
      <point x="380" y="126" type="line"/>
      <point x="380" y="42" type="line"/>
      <point x="40" y="208" type="line"/>
      <point x="40" y="272" type="line"/>
    </contour>
  </outline>
</glyph>
<glyph name="equal" format="1">
  <advance width="534"/>
  <unicode hex="003D"/>
  <outline>
    <contour>
      <point x="464" y="342" type="line"/>
      <point x="464" y="265" type="line"/>
      <point x="70" y="265" type="line"/>
      <point x="70" y="342" type="line"/>
    </contour>
    <contour>
      <point x="464" y="184" type="line"/>
      <point x="464" y="107" type="line"/>
      <point x="70" y="107" type="line"/>
      <point x="70" y="184" type="line"/>
    </contour>
  </outline>
</glyph>
<glyph name="at" format="1">
  <advance width="786"/>
  <unicode hex="0040"/>
  <outline>
    <contour>
      <point x="555" y="132" type="line" smooth="yes"/>
      <point x="555" y="84"/>
      <point x="568" y="60"/>
      <point x="597" y="60" type="curve" smooth="yes"/>
      <point x="635" y="60"/>
      <point x="662" y="116"/>
      <point x="662" y="200" type="curve" smooth="yes"/>
      <point x="662" y="375"/>
      <point x="570" y="463"/>
      <point x="408" y="463" type="curve" smooth="yes"/>
      <point x="250" y="463"/>
      <point x="129" y="345"/>
      <point x="129" y="192" type="curve" smooth="yes"/>
      <point x="129" y="17"/>
      <point x="241" y="-82"/>
      <point x="387" y="-82" type="curve" smooth="yes"/>
      <point x="427" y="-82"/>
      <point x="468" y="-77"/>
      <point x="511" y="-62" type="curve"/>
      <point x="511" y="-140" type="line"/>
      <point x="460" y="-156"/>
      <point x="412" y="-161"/>
      <point x="367" y="-161" type="curve" smooth="yes"/>
      <point x="199" y="-161"/>
      <point x="40" y="-38"/>
      <point x="40" y="188" type="curve" smooth="yes"/>
      <point x="40" y="406"/>
      <point x="216" y="543"/>
      <point x="404" y="543" type="curve" smooth="yes"/>
      <point x="636" y="543"/>
      <point x="746" y="414"/>
      <point x="746" y="201" type="curve" smooth="yes"/>
      <point x="746" y="97"/>
      <point x="694" y="-10"/>
      <point x="587" y="-10" type="curve" smooth="yes"/>
      <point x="544" y="-10"/>
      <point x="513" y="8"/>
      <point x="496" y="43" type="curve"/>
      <point x="465" y="8"/>
      <point x="428" y="-10"/>
      <point x="381" y="-10" type="curve" smooth="yes"/>
      <point x="292" y="-10"/>
      <point x="205" y="58"/>
      <point x="205" y="178" type="curve" smooth="yes"/>
      <point x="205" y="307"/>
      <point x="286" y="381"/>
      <point x="401" y="381" type="curve" smooth="yes"/>
      <point x="432" y="381"/>
      <point x="464" y="374"/>
      <point x="497" y="361" type="curve"/>
      <point x="503" y="377" type="line"/>
      <point x="555" y="377" type="line"/>
    </contour>
    <contour>
      <point x="295" y="112"/>
      <point x="328" y="66"/>
      <point x="387" y="66" type="curve" smooth="yes"/>
      <point x="423" y="66"/>
      <point x="451" y="79"/>
      <point x="473" y="107" type="curve"/>
      <point x="473" y="297" type="line"/>
      <point x="449" y="308"/>
      <point x="426" y="312"/>
      <point x="399" y="312" type="curve" smooth="yes"/>
      <point x="332" y="312"/>
      <point x="295" y="264"/>
      <point x="295" y="185" type="curve" smooth="yes"/>
    </contour>
  </outline>
</glyph>
<glyph name="A" format="1">
  <advance width="535"/>
  <unicode hex="0041"/>
  <outline>
    <contour>
      <point x="522" y="0" type="line"/>
      <point x="423" y="0" type="line"/>
      <point x="367" y="145" type="line"/>
      <point x="164" y="145" type="line"/>
      <point x="109" y="0" type="line"/>
      <point x="13" y="0" type="line"/>
      <point x="220" y="550" type="line"/>
      <point x="315" y="550" type="line"/>
    </contour>
    <contour>
      <point x="195" y="233" type="line"/>
      <point x="335" y="233" type="line"/>
      <point x="265" y="439" type="line"/>
    </contour>
    <contour>
      <point x="268" y="560" type="move" name="top.cap"/>
    </contour>
  </outline>
</glyph>
<glyph name="F" format="1">
  <advance width="450"/>
  <unicode hex="0046"/>
  <outline>
    <contour>
      <point x="388" y="299" type="line"/>
      <point x="388" y="209" type="line"/>
      <point x="161" y="209" type="line"/>
      <point x="161" y="0" type="line"/>
      <point x="63" y="0" type="line"/>
      <point x="63" y="550" type="line"/>
      <point x="419" y="550" type="line"/>
      <point x="419" y="462" type="line"/>
      <point x="161" y="462" type="line"/>
      <point x="161" y="299" type="line"/>
    </contour>
  </outline>
</glyph>
<glyph name="G" format="1">
  <advance width="578"/>
  <unicode hex="0047"/>
  <outline>
    <contour>
      <point x="512" y="39"/>
      <point x="455" y="-6"/>
      <point x="328" y="-9" type="curve" smooth="yes"/>
      <point x="130" y="-9"/>
      <point x="40" y="141"/>
      <point x="40" y="275" type="curve" smooth="yes"/>
      <point x="40" y="419"/>
      <point x="142" y="555"/>
      <point x="328" y="555" type="curve" smooth="yes"/>
      <point x="403" y="555"/>
      <point x="464" y="533"/>
      <point x="511" y="506" type="curve" smooth="yes"/>
      <point x="525" y="498" type="line"/>
      <point x="484" y="423" type="line"/>
      <point x="470" y="429" type="line"/>
      <point x="438" y="446"/>
      <point x="386" y="465"/>
      <point x="331" y="465" type="curve" smooth="yes"/>
      <point x="232" y="465"/>
      <point x="139" y="396"/>
      <point x="139" y="279" type="curve" smooth="yes"/>
      <point x="139" y="166"/>
      <point x="225" y="82"/>
      <point x="344" y="82" type="curve" smooth="yes"/>
      <point x="389" y="82"/>
      <point x="413" y="90"/>
      <point x="437" y="103" type="curve"/>
      <point x="437" y="220" type="line"/>
      <point x="293" y="220" type="line"/>
      <point x="293" y="307" type="line"/>
      <point x="533" y="307" type="line"/>
      <point x="533" y="57" type="line"/>
    </contour>
    <contour>
      <point x="328" y="560" type="move" name="top.cap"/>
    </contour>
    <contour>
      <point x="328" y="-10" type="move" name="bottom"/>
    </contour>
  </outline>
</glyph>
<glyph name="H" format="1">
  <advance width="587"/>
  <unicode hex="0048"/>
  <outline>
    <contour>
      <point x="524" y="0" type="line"/>
      <point x="427" y="0" type="line"/>
      <point x="427" y="230" type="line"/>
      <point x="161" y="230" type="line"/>
      <point x="161" y="0" type="line"/>
      <point x="63" y="0" type="line"/>
      <point x="63" y="550" type="line"/>
      <point x="161" y="550" type="line"/>
      <point x="161" y="319" type="line"/>
      <point x="427" y="319" type="line"/>
      <point x="427" y="550" type="line"/>
      <point x="524" y="550" type="line"/>
    </contour>
  </outline>
</glyph>
<glyph name="L" format="1">
  <advance width="443"/>
  <unicode hex="004C"/>
  <outline>
    <contour>
      <point x="161" y="89" type="line"/>
      <point x="423" y="89" type="line"/>
      <point x="423" y="0" type="line"/>
      <point x="63" y="0" type="line"/>
      <point x="63" y="550" type="line"/>
      <point x="161" y="550" type="line"/>
    </contour>
    <contour>
      <point x="217" y="560" type="move" name="top.cap"/>
    </contour>
    <contour>
      <point x="246" y="-10" type="move" name="bottom"/>
    </contour>
  </outline>
</glyph>
<glyph name="M" format="1">
  <advance width="682"/>
  <unicode hex="004D"/>
  <outline>
    <contour>
      <point x="343" y="249" type="line"/>
      <point x="495" y="550" type="line"/>
      <point x="619" y="550" type="line"/>
      <point x="619" y="0" type="line"/>
      <point x="522" y="0" type="line"/>
      <point x="522" y="415" type="line"/>
      <point x="383" y="141" type="line"/>
      <point x="299" y="141" type="line"/>
      <point x="161" y="415" type="line"/>
      <point x="161" y="0" type="line"/>
      <point x="63" y="0" type="line"/>
      <point x="63" y="550" type="line"/>
      <point x="194" y="550" type="line"/>
    </contour>
  </outline>
</glyph>
<glyph name="N" format="1">
  <advance width="608"/>
  <unicode hex="004E"/>
  <outline>
    <contour>
      <point x="446" y="142" type="line"/>
      <point x="446" y="550" type="line"/>
      <point x="545" y="550" type="line"/>
      <point x="545" y="0" type="line"/>
      <point x="426" y="0" type="line"/>
      <point x="161" y="409" type="line"/>
      <point x="161" y="0" type="line"/>
      <point x="63" y="0" type="line"/>
      <point x="63" y="550" type="line"/>
      <point x="180" y="550" type="line"/>
    </contour>
    <contour>
      <point x="318" y="560" type="move" name="top.cap"/>
    </contour>
    <contour>
      <point x="295" y="0" type="move" name="bottom"/>
    </contour>
  </outline>
</glyph>
<glyph name="O" format="1">
  <advance width="623"/>
  <unicode hex="004F"/>
  <outline>
    <contour>
      <point x="463" y="557"/>
      <point x="583" y="450"/>
      <point x="583" y="280" type="curve" smooth="yes"/>
      <point x="583" y="112"/>
      <point x="466" y="-7"/>
      <point x="309" y="-7" type="curve" smooth="yes"/>
      <point x="173" y="-7"/>
      <point x="40" y="88"/>
      <point x="40" y="275" type="curve" smooth="yes"/>
      <point x="40" y="445"/>
      <point x="159" y="557"/>
      <point x="312" y="557" type="curve" smooth="yes"/>
    </contour>
    <contour>
      <point x="225" y="466"/>
      <point x="140" y="413"/>
      <point x="140" y="281" type="curve" smooth="yes"/>
      <point x="140" y="159"/>
      <point x="217" y="85"/>
      <point x="315" y="85" type="curve" smooth="yes"/>
      <point x="396" y="85"/>
      <point x="483" y="139"/>
      <point x="483" y="275" type="curve" smooth="yes"/>
      <point x="483" y="413"/>
      <point x="388" y="466"/>
      <point x="308" y="466" type="curve" smooth="yes"/>
    </contour>
    <contour>
      <point x="312" y="560" type="move" name="top.cap"/>
    </contour>
  </outline>
</glyph>
<glyph name="S" format="1">
  <advance width="499"/>
  <unicode hex="0053"/>
  <outline>
    <contour>
      <point x="203" y="463"/>
      <point x="162" y="437"/>
      <point x="162" y="396" type="curve" smooth="yes"/>
      <point x="162" y="302"/>
      <point x="459" y="342"/>
      <point x="459" y="153" type="curve" smooth="yes"/>
      <point x="459" y="76"/>
      <point x="400" y="-9"/>
      <point x="230" y="-9" type="curve" smooth="yes"/>
      <point x="161" y="-9"/>
      <point x="109" y="9"/>
      <point x="53" y="30" type="curve"/>
      <point x="40" y="36" type="line"/>
      <point x="73" y="125" type="line"/>
      <point x="88" y="119" type="line" smooth="yes"/>
      <point x="160" y="92"/>
      <point x="209" y="85"/>
      <point x="238" y="85" type="curve" smooth="yes"/>
      <point x="310" y="85"/>
      <point x="358" y="112"/>
      <point x="358" y="153" type="curve"/>
      <point x="362" y="256"/>
      <point x="62" y="208"/>
      <point x="62" y="400" type="curve" smooth="yes"/>
      <point x="62" y="490"/>
      <point x="141" y="555"/>
      <point x="268" y="555" type="curve" smooth="yes"/>
      <point x="351" y="555"/>
      <point x="412" y="532"/>
      <point x="430" y="526" type="curve" smooth="yes"/>
      <point x="441" y="522" type="line"/>
      <point x="409" y="433" type="line"/>
      <point x="365" y="450"/>
      <point x="322" y="463"/>
      <point x="271" y="463" type="curve" smooth="yes"/>
    </contour>
    <contour>
      <point x="268" y="560" type="move" name="top.cap"/>
    </contour>
    <contour>
      <point x="230" y="-10" type="move" name="bottom"/>
    </contour>
  </outline>
</glyph>
<glyph name="T" format="1">
  <advance width="476"/>
  <unicode hex="0054"/>
  <outline>
    <contour>
      <point x="467" y="462" type="line"/>
      <point x="287" y="462" type="line"/>
      <point x="287" y="0" type="line"/>
      <point x="189" y="0" type="line"/>
      <point x="189" y="462" type="line"/>
      <point x="9" y="462" type="line"/>
      <point x="9" y="550" type="line"/>
      <point x="467" y="550" type="line"/>
    </contour>
    <contour>
      <point x="239" y="550" type="move" name="top.cap"/>
    </contour>
    <contour>
      <point x="239" y="-10" type="move" name="bottom"/>
    </contour>
  </outline>
</glyph>
<glyph name="U" format="1">
  <advance width="562"/>
  <unicode hex="0055"/>
  <outline>
    <contour>
      <point x="65" y="-9"/>
      <point x="56" y="132"/>
      <point x="56" y="199" type="curve" smooth="yes"/>
      <point x="56" y="550" type="line"/>
      <point x="153" y="550" type="line"/>
      <point x="153" y="204" type="line" smooth="yes"/>
      <point x="153" y="187"/>
      <point x="155" y="171"/>
      <point x="158" y="157" type="curve" smooth="yes"/>
      <point x="170" y="109"/>
      <point x="215" y="82"/>
      <point x="280" y="82" type="curve" smooth="yes"/>
      <point x="349" y="82"/>
      <point x="392" y="109"/>
      <point x="405" y="157" type="curve"/>
      <point x="407" y="171"/>
      <point x="408" y="187"/>
      <point x="408" y="204" type="curve" smooth="yes"/>
      <point x="408" y="550" type="line"/>
      <point x="506" y="550" type="line"/>
      <point x="506" y="199" type="line" smooth="yes"/>
      <point x="506" y="132"/>
      <point x="498" y="-9"/>
      <point x="280" y="-9" type="curve" smooth="yes"/>
    </contour>
    <contour>
      <point x="280" y="560" type="move" name="top.cap"/>
    </contour>
  </outline>
</glyph>
<glyph name="Y" format="1">
  <advance width="509"/>
  <unicode hex="0059"/>
  <outline>
    <contour>
      <point x="255" y="337" type="line"/>
      <point x="395" y="550" type="line"/>
      <point x="505" y="550" type="line"/>
      <point x="299" y="249" type="line"/>
      <point x="299" y="0" type="line"/>
      <point x="201" y="0" type="line"/>
      <point x="201" y="249" type="line"/>
      <point x="7" y="550" type="line"/>
      <point x="116" y="550" type="line"/>
    </contour>
    <contour>
      <point x="255" y="560" type="move" name="top.cap"/>
    </contour>
  </outline>
</glyph>
<glyph name="bracketleft" format="1">
  <advance width="294"/>
  <unicode hex="005B"/>
  <outline>
    <contour>
      <point x="241" y="-79" type="line"/>
      <point x="134" y="-79" type="line"/>
      <point x="134" y="536" type="line"/>
      <point x="241" y="536" type="line"/>
      <point x="241" y="611" type="line"/>
      <point x="53" y="611" type="line"/>
      <point x="53" y="-154" type="line"/>
      <point x="241" y="-154" type="line"/>
    </contour>
  </outline>
</glyph>
<glyph name="d" format="1">
  <advance width="457"/>
  <unicode hex="0064"/>
  <outline>
    <contour>
      <point x="404" y="0" type="line"/>
      <point x="335" y="0" type="line"/>
      <point x="328" y="21" type="line"/>
      <point x="301" y="5"/>
      <point x="266" y="-9"/>
      <point x="225" y="-9" type="curve" smooth="yes"/>
      <point x="103" y="-9"/>
      <point x="29" y="69"/>
      <point x="29" y="191" type="curve" smooth="yes"/>
      <point x="29" y="340"/>
      <point x="140" y="390"/>
      <point x="217" y="390" type="curve" smooth="yes"/>
      <point x="250" y="390"/>
      <point x="281" y="386"/>
      <point x="308" y="374" type="curve"/>
      <point x="308" y="550" type="line"/>
      <point x="404" y="550" type="line"/>
    </contour>
    <contour>
      <point x="177" y="315"/>
      <point x="128" y="285"/>
      <point x="128" y="186" type="curve" smooth="yes"/>
      <point x="128" y="96"/>
      <point x="178" y="66"/>
      <point x="242" y="66" type="curve" smooth="yes"/>
      <point x="269" y="66"/>
      <point x="291" y="74"/>
      <point x="308" y="85" type="curve"/>
      <point x="308" y="302" type="line"/>
      <point x="283" y="313"/>
      <point x="262" y="315"/>
      <point x="239" y="315" type="curve" smooth="yes"/>
    </contour>
  </outline>
</glyph>
<glyph name="f" format="1">
  <advance width="316"/>
  <unicode hex="0066"/>
  <outline>
    <contour>
      <point x="80" y="456"/>
      <point x="96" y="554"/>
      <point x="237" y="554" type="curve" smooth="yes"/>
      <point x="257" y="554"/>
      <point x="290" y="552"/>
      <point x="335" y="539" type="curve"/>
      <point x="349" y="534" type="line"/>
      <point x="334" y="465" type="line"/>
      <point x="318" y="470" type="line"/>
      <point x="307" y="473"/>
      <point x="282" y="478"/>
      <point x="259" y="478" type="curve" smooth="yes"/>
      <point x="207" y="478"/>
      <point x="175" y="456"/>
      <point x="175" y="417" type="curve" smooth="yes"/>
      <point x="175" y="384" type="line"/>
      <point x="318" y="384" type="line"/>
      <point x="318" y="309" type="line"/>
      <point x="175" y="309" type="line"/>
      <point x="175" y="0" type="line"/>
      <point x="80" y="0" type="line"/>
      <point x="80" y="309" type="line"/>
      <point x="16" y="309" type="line"/>
      <point x="16" y="384" type="line"/>
      <point x="80" y="384" type="line"/>
      <point x="80" y="414" type="line" smooth="yes"/>
    </contour>
  </outline>
</glyph>
<glyph name="g" format="1">
  <advance width="455"/>
  <unicode hex="0067"/>
  <outline>
    <contour>
      <point x="282" y="-1"/>
      <point x="260" y="-9"/>
      <point x="225" y="-9" type="curve" smooth="yes"/>
      <point x="103" y="-9"/>
      <point x="29" y="69"/>
      <point x="29" y="191" type="curve" smooth="yes"/>
      <point x="29" y="346"/>
      <point x="140" y="390"/>
      <point x="212" y="390" type="curve" smooth="yes"/>
      <point x="260" y="390"/>
      <point x="301" y="374"/>
      <point x="328" y="359" type="curve"/>
      <point x="337" y="384" type="line"/>
      <point x="404" y="384" type="line"/>
      <point x="404" y="-9" type="line" smooth="yes"/>
      <point x="404" y="-98"/>
      <point x="361" y="-209"/>
      <point x="196" y="-209" type="curve" smooth="yes"/>
      <point x="160" y="-209"/>
      <point x="112" y="-203"/>
      <point x="63" y="-184" type="curve" smooth="yes"/>
      <point x="48" y="-178" type="line"/>
      <point x="74" y="-108" type="line"/>
      <point x="90" y="-113" type="line"/>
      <point x="115" y="-122"/>
      <point x="150" y="-133"/>
      <point x="186" y="-133" type="curve" smooth="yes"/>
      <point x="292" y="-133"/>
      <point x="309" y="-77"/>
      <point x="309" y="9" type="curve" smooth="yes"/>
      <point x="309" y="11" type="line"/>
    </contour>
    <contour>
      <point x="177" y="314"/>
      <point x="128" y="284"/>
      <point x="128" y="186" type="curve" smooth="yes"/>
      <point x="128" y="96"/>
      <point x="178" y="66"/>
      <point x="242" y="66" type="curve" smooth="yes"/>
      <point x="269" y="66"/>
      <point x="291" y="74"/>
      <point x="308" y="85" type="curve"/>
      <point x="308" y="300" type="line"/>
      <point x="283" y="311"/>
      <point x="262" y="314"/>
      <point x="239" y="314" type="curve" smooth="yes"/>
    </contour>
    <contour>
      <point x="217" y="384" type="move" name="top"/>
    </contour>
  </outline>
</glyph>
<glyph name="k" format="1">
  <advance width="435"/>
  <unicode hex="006B"/>
  <outline>
    <contour>
      <point x="53" y="0" type="line"/>
      <point x="53" y="550" type="line"/>
      <point x="149" y="550" type="line"/>
      <point x="149" y="0" type="line"/>
    </contour>
    <contour>
      <point x="272" y="211" type="line"/>
      <point x="427" y="0" type="line"/>
      <point x="311" y="0" type="line"/>
      <point x="159" y="211" type="line"/>
      <point x="304" y="389" type="line"/>
      <point x="420" y="389" type="line"/>
    </contour>
    <contour>
      <point x="227" y="0" type="move" name="bottom"/>
    </contour>
  </outline>
</glyph>
<glyph name="m" format="1">
  <advance width="668"/>
  <unicode hex="006D"/>
  <outline>
    <contour>
      <point x="149" y="364"/>
      <point x="199" y="389"/>
      <point x="252" y="389" type="curve" smooth="yes"/>
      <point x="300" y="389"/>
      <point x="330" y="374"/>
      <point x="351" y="350" type="curve"/>
      <point x="373" y="361"/>
      <point x="434" y="389"/>
      <point x="491" y="389" type="curve" smooth="yes"/>
      <point x="616" y="389"/>
      <point x="622" y="284"/>
      <point x="622" y="218" type="curve" smooth="yes"/>
      <point x="622" y="0" type="line"/>
      <point x="527" y="0" type="line"/>
      <point x="527" y="230" type="line" smooth="yes"/>
      <point x="527" y="259"/>
      <point x="519" y="308"/>
      <point x="466" y="308" type="curve" smooth="yes"/>
      <point x="441" y="308"/>
      <point x="417" y="301"/>
      <point x="377" y="284" type="curve"/>
      <point x="382" y="260"/>
      <point x="384" y="234"/>
      <point x="384" y="214" type="curve" smooth="yes"/>
      <point x="384" y="0" type="line"/>
      <point x="288" y="0" type="line"/>
      <point x="288" y="230" type="line" smooth="yes"/>
      <point x="288" y="259"/>
      <point x="279" y="308"/>
      <point x="226" y="308" type="curve" smooth="yes"/>
      <point x="207" y="308"/>
      <point x="186" y="303"/>
      <point x="142" y="287" type="curve"/>
      <point x="142" y="0" type="line"/>
      <point x="47" y="0" type="line"/>
      <point x="47" y="384" type="line"/>
      <point x="115" y="384" type="line"/>
      <point x="127" y="356" type="line"/>
    </contour>
  </outline>
</glyph>
<glyph name="p" format="1">
  <advance width="456"/>
  <unicode hex="0070"/>
  <outline>
    <contour>
      <point x="156" y="374"/>
      <point x="196" y="390"/>
      <point x="243" y="390" type="curve" smooth="yes"/>
      <point x="316" y="390"/>
      <point x="426" y="346"/>
      <point x="426" y="191" type="curve" smooth="yes"/>
      <point x="426" y="69"/>
      <point x="355" y="-9"/>
      <point x="230" y="-9" type="curve" smooth="yes"/>
      <point x="197" y="-9"/>
      <point x="174" y="-1"/>
      <point x="147" y="11" type="curve"/>
      <point x="147" y="-206" type="line"/>
      <point x="51" y="-206" type="line"/>
      <point x="51" y="384" type="line"/>
      <point x="118" y="384" type="line"/>
      <point x="129" y="359" type="line"/>
    </contour>
    <contour>
      <point x="194" y="314"/>
      <point x="173" y="311"/>
      <point x="148" y="300" type="curve"/>
      <point x="148" y="85" type="line"/>
      <point x="165" y="74"/>
      <point x="185" y="66"/>
      <point x="214" y="66" type="curve" smooth="yes"/>
      <point x="276" y="66"/>
      <point x="328" y="96"/>
      <point x="328" y="186" type="curve" smooth="yes"/>
      <point x="328" y="284"/>
      <point x="279" y="314"/>
      <point x="217" y="314" type="curve" smooth="yes"/>
    </contour>
  </outline>
</glyph>
<glyph name="q" format="1">
  <advance width="457"/>
  <unicode hex="0071"/>
  <outline>
    <contour>
      <point x="406" y="384" type="line"/>
      <point x="406" y="-206" type="line"/>
      <point x="310" y="-206" type="line"/>
      <point x="310" y="11" type="line"/>
      <point x="283" y="-1"/>
      <point x="261" y="-9"/>
      <point x="226" y="-9" type="curve" smooth="yes"/>
      <point x="104" y="-9"/>
      <point x="30" y="69"/>
      <point x="30" y="191" type="curve" smooth="yes"/>
      <point x="30" y="346"/>
      <point x="141" y="390"/>
      <point x="213" y="390" type="curve" smooth="yes"/>
      <point x="261" y="390"/>
      <point x="302" y="374"/>
      <point x="329" y="359" type="curve"/>
      <point x="338" y="384" type="line"/>
    </contour>
    <contour>
      <point x="178" y="314"/>
      <point x="129" y="284"/>
      <point x="129" y="186" type="curve" smooth="yes"/>
      <point x="129" y="96"/>
      <point x="179" y="66"/>
      <point x="243" y="66" type="curve" smooth="yes"/>
      <point x="270" y="66"/>
      <point x="292" y="74"/>
      <point x="309" y="85" type="curve"/>
      <point x="309" y="300" type="line"/>
      <point x="284" y="311"/>
      <point x="263" y="314"/>
      <point x="240" y="314" type="curve" smooth="yes"/>
    </contour>
  </outline>
</glyph>
<glyph name="t" format="1">
  <advance width="332"/>
  <unicode hex="0074"/>
  <outline>
    <contour>
      <point x="292" y="5"/>
      <point x="248" y="-9"/>
      <point x="211" y="-9" type="curve" smooth="yes"/>
      <point x="89" y="-9"/>
      <point x="73" y="55"/>
      <point x="73" y="123" type="curve" smooth="yes"/>
      <point x="73" y="309" type="line"/>
      <point x="9" y="309" type="line"/>
      <point x="9" y="384" type="line"/>
      <point x="73" y="384" type="line"/>
      <point x="73" y="494" type="line"/>
      <point x="169" y="494" type="line"/>
      <point x="169" y="384" type="line"/>
      <point x="302" y="384" type="line"/>
      <point x="302" y="309" type="line"/>
      <point x="169" y="309" type="line"/>
      <point x="169" y="125" type="line" smooth="yes"/>
      <point x="169" y="98"/>
      <point x="181" y="69"/>
      <point x="232" y="69" type="curve" smooth="yes"/>
      <point x="260" y="69"/>
      <point x="291" y="77"/>
      <point x="306" y="81" type="curve"/>
      <point x="319" y="13" type="line"/>
    </contour>
    <contour>
      <point x="196" y="1" type="move" name="bottom"/>
    </contour>
  </outline>
</glyph>
<glyph name="v" format="1">
  <advance width="415"/>
  <unicode hex="0076"/>
  <outline>
    <contour>
      <point x="159" y="0" type="line"/>
      <point x="11" y="384" type="line"/>
      <point x="118" y="384" type="line"/>
      <point x="209" y="101" type="line"/>
      <point x="299" y="384" type="line"/>
      <point x="399" y="384" type="line"/>
      <point x="256" y="0" type="line"/>
    </contour>
  </outline>
</glyph>
<glyph name="x" format="1">
  <advance width="413"/>
  <unicode hex="0078"/>
  <outline>
    <contour>
      <point x="206" y="251" type="line"/>
      <point x="286" y="384" type="line"/>
      <point x="398" y="384" type="line"/>
      <point x="264" y="189" type="line"/>
      <point x="401" y="0" type="line"/>
      <point x="284" y="0" type="line"/>
      <point x="206" y="123" type="line"/>
      <point x="127" y="0" type="line"/>
      <point x="18" y="0" type="line"/>
      <point x="143" y="189" type="line"/>
      <point x="11" y="384" type="line"/>
      <point x="121" y="384" type="line"/>
    </contour>
  </outline>
</glyph>
<glyph name="z" format="1">
  <advance width="372"/>
  <unicode hex="007A"/>
  <outline>
    <contour>
      <point x="338" y="333" type="line"/>
      <point x="158" y="81" type="line"/>
      <point x="345" y="81" type="line"/>
      <point x="345" y="0" type="line"/>
      <point x="31" y="0" type="line"/>
      <point x="31" y="49" type="line"/>
      <point x="210" y="300" type="line"/>
      <point x="31" y="300" type="line"/>
      <point x="31" y="384" type="line"/>
      <point x="338" y="384" type="line"/>
    </contour>
    <contour>
      <point x="185" y="384" type="move" name="top"/>
    </contour>
  </outline>
</glyph>
<glyph name="exclamdown" format="1">
  <advance width="208"/>
  <unicode hex="00A1"/>
  <outline>
    <contour>
      <point x="125" y="-67" type="line"/>
      <point x="116" y="336" type="line"/>
      <point x="41" y="336" type="line"/>
      <point x="33" y="-67" type="line"/>
    </contour>
    <contour>
      <point x="51" y="483"/>
      <point x="30" y="462"/>
      <point x="30" y="434" type="curve" smooth="yes"/>
      <point x="30" y="406"/>
      <point x="51" y="385"/>
      <point x="79" y="385" type="curve" smooth="yes"/>
      <point x="107" y="385"/>
      <point x="128" y="406"/>
      <point x="128" y="434" type="curve" smooth="yes"/>
      <point x="128" y="462"/>
      <point x="107" y="483"/>
      <point x="79" y="483" type="curve" smooth="yes"/>
    </contour>
  </outline>
</glyph>
<glyph name="currency" format="1">
  <advance width="600"/>
  <unicode hex="00A4"/>
  <outline>
    <contour>
      <point x="439" y="349" type="line"/>
      <point x="369" y="284" type="line"/>
      <point x="378" y="263"/>
      <point x="385" y="241"/>
      <point x="385" y="218" type="curve" smooth="yes"/>
      <point x="385" y="196"/>
      <point x="378" y="169"/>
      <point x="369" y="150" type="curve"/>
      <point x="439" y="87" type="line"/>
      <point x="368" y="15" type="line"/>
      <point x="303" y="86" type="line"/>
      <point x="282" y="75"/>
      <point x="260" y="69"/>
      <point x="236" y="69" type="curve" smooth="yes"/>
      <point x="213" y="69"/>
      <point x="191" y="72"/>
      <point x="168" y="85" type="curve"/>
      <point x="105" y="15" type="line"/>
      <point x="33" y="86" type="line"/>
      <point x="104" y="150" type="line"/>
      <point x="93" y="171"/>
      <point x="87" y="198"/>
      <point x="87" y="218" type="curve" smooth="yes"/>
      <point x="87" y="239"/>
      <point x="93" y="264"/>
      <point x="104" y="285" type="curve"/>
      <point x="33" y="349" type="line"/>
      <point x="104" y="420" type="line"/>
      <point x="169" y="351" type="line"/>
      <point x="190" y="359"/>
      <point x="213" y="366"/>
      <point x="236" y="366" type="curve" smooth="yes"/>
      <point x="260" y="366"/>
      <point x="283" y="359"/>
      <point x="304" y="350" type="curve"/>
      <point x="368" y="420" type="line"/>
    </contour>
    <contour>
      <point x="201" y="281"/>
      <point x="174" y="254"/>
      <point x="174" y="218" type="curve" smooth="yes"/>
      <point x="174" y="182"/>
      <point x="201" y="155"/>
      <point x="236" y="155" type="curve" smooth="yes"/>
      <point x="269" y="155"/>
      <point x="298" y="182"/>
      <point x="298" y="218" type="curve" smooth="yes"/>
      <point x="298" y="254"/>
      <point x="269" y="281"/>
      <point x="236" y="281" type="curve" smooth="yes"/>
    </contour>
  </outline>
</glyph>
<glyph name="yen" format="1">
  <advance width="469"/>
  <unicode hex="00A5"/>
  <outline>
    <contour>
      <point x="234" y="297" type="line"/>
      <point x="332" y="466" type="line"/>
      <point x="429" y="466" type="line"/>
      <point x="291" y="253" type="line"/>
      <point x="390" y="253" type="line"/>
      <point x="390" y="183" type="line"/>
      <point x="272" y="183" type="line"/>
      <point x="272" y="142" type="line"/>
      <point x="390" y="142" type="line"/>
      <point x="390" y="72" type="line"/>
      <point x="272" y="72" type="line"/>
      <point x="272" y="0" type="line"/>
      <point x="190" y="0" type="line"/>
      <point x="190" y="72" type="line"/>
      <point x="79" y="72" type="line"/>
      <point x="79" y="142" type="line"/>
      <point x="190" y="142" type="line"/>
      <point x="190" y="183" type="line"/>
      <point x="79" y="183" type="line"/>
      <point x="79" y="253" type="line"/>
      <point x="174" y="253" type="line"/>
      <point x="40" y="466" type="line"/>
      <point x="139" y="466" type="line"/>
    </contour>
  </outline>
</glyph>
<glyph name="dieresis" format="1">
  <advance width="264"/>
  <unicode hex="00A8"/>
  <outline>
    <contour>
      <point x="81" y="445"/>
      <point x="103" y="467"/>
      <point x="103" y="495" type="curve" smooth="yes"/>
      <point x="103" y="522"/>
      <point x="81" y="544"/>
      <point x="54" y="544" type="curve" smooth="yes"/>
      <point x="26" y="544"/>
      <point x="4" y="522"/>
      <point x="4" y="495" type="curve" smooth="yes"/>
      <point x="4" y="467"/>
      <point x="26" y="445"/>
      <point x="54" y="445" type="curve" smooth="yes"/>
    </contour>
    <contour>
      <point x="238" y="445"/>
      <point x="260" y="467"/>
      <point x="260" y="495" type="curve" smooth="yes"/>
      <point x="260" y="522"/>
      <point x="238" y="544"/>
      <point x="211" y="544" type="curve" smooth="yes"/>
      <point x="183" y="544"/>
      <point x="161" y="522"/>
      <point x="161" y="495" type="curve" smooth="yes"/>
      <point x="161" y="467"/>
      <point x="183" y="445"/>
      <point x="211" y="445" type="curve" smooth="yes"/>
    </contour>
    <contour>
      <point x="134" y="384" type="move" name="_top"/>
    </contour>
  </outline>
</glyph>
<glyph name="degree" format="1">
  <advance width="262"/>
  <unicode hex="00B0"/>
  <outline>
    <contour>
      <point x="78" y="419"/>
      <point x="100" y="443"/>
      <point x="131" y="443" type="curve" smooth="yes"/>
      <point x="162" y="443"/>
      <point x="186" y="419"/>
      <point x="186" y="387" type="curve" smooth="yes"/>
      <point x="186" y="356"/>
      <point x="162" y="334"/>
      <point x="131" y="334" type="curve" smooth="yes"/>
      <point x="100" y="334"/>
      <point x="78" y="356"/>
      <point x="78" y="387" type="curve" smooth="yes"/>
    </contour>
    <contour>
      <point x="198" y="268"/>
      <point x="252" y="313"/>
      <point x="252" y="387" type="curve" smooth="yes"/>
      <point x="252" y="461"/>
      <point x="198" y="508"/>
      <point x="131" y="508" type="curve" smooth="yes"/>
      <point x="64" y="508"/>
      <point x="10" y="461"/>
      <point x="10" y="387" type="curve" smooth="yes"/>
      <point x="10" y="313"/>
      <point x="64" y="268"/>
      <point x="131" y="268" type="curve" smooth="yes"/>
    </contour>
  </outline>
</glyph>
<glyph name="paragraph" format="1">
  <advance width="519"/>
  <unicode hex="00B6"/>
  <outline>
    <contour>
      <point x="456" y="586" type="line"/>
      <point x="456" y="0" type="line"/>
      <point x="362" y="0" type="line"/>
      <point x="362" y="508" type="line"/>
      <point x="299" y="508" type="line"/>
      <point x="299" y="0" type="line"/>
      <point x="204" y="0" type="line"/>
      <point x="203" y="246" type="line"/>
      <point x="97" y="249"/>
      <point x="24" y="311"/>
      <point x="24" y="411" type="curve" smooth="yes"/>
      <point x="24" y="544"/>
      <point x="115" y="586"/>
      <point x="231" y="586" type="curve" smooth="yes"/>
    </contour>
  </outline>
</glyph>
<glyph name="cedilla" format="1">
  <advance width="215"/>
  <unicode hex="00B8"/>
  <outline>
    <contour>
      <point x="132" y="-141"/>
      <point x="137" y="-134"/>
      <point x="137" y="-129" type="curve" smooth="yes"/>
      <point x="137" y="-121"/>
      <point x="135" y="-113"/>
      <point x="99" y="-102" type="curve" smooth="yes"/>
      <point x="44" y="-86" type="line"/>
      <point x="76" y="26" type="line"/>
      <point x="149" y="26" type="line"/>
      <point x="133" y="-42" type="line"/>
      <point x="170" y="-52"/>
      <point x="210" y="-76"/>
      <point x="210" y="-124" type="curve" smooth="yes"/>
      <point x="210" y="-167"/>
      <point x="180" y="-208"/>
      <point x="114" y="-208" type="curve" smooth="yes"/>
      <point x="83" y="-208"/>
      <point x="53" y="-203"/>
      <point x="20" y="-191" type="curve"/>
      <point x="5" y="-187" type="line"/>
      <point x="24" y="-121" type="line"/>
      <point x="78" y="-136" type="line"/>
      <point x="98" y="-140"/>
      <point x="106" y="-141"/>
      <point x="115" y="-141" type="curve" smooth="yes"/>
    </contour>
    <contour>
      <point x="108" y="-0" type="move" name="bottom"/>
    </contour>
  </outline>
</glyph>
<glyph name="onesuperior" format="1">
  <advance width="193"/>
  <unicode hex="00B9"/>
  <outline>
    <contour>
      <point x="168" y="275" type="line"/>
      <point x="96" y="275" type="line"/>
      <point x="96" y="513" type="line"/>
      <point x="40" y="497" type="line"/>
      <point x="15" y="553" type="line"/>
      <point x="116" y="586" type="line"/>
      <point x="168" y="586" type="line"/>
    </contour>
  </outline>
</glyph>
<glyph name="ordmasculine" format="1">
  <advance width="297"/>
  <unicode hex="00BA"/>
  <outline>
    <contour>
      <point x="115" y="509"/>
      <point x="89" y="479"/>
      <point x="89" y="427" type="curve" smooth="yes"/>
      <point x="89" y="378"/>
      <point x="115" y="349"/>
      <point x="148" y="349" type="curve" smooth="yes"/>
      <point x="183" y="349"/>
      <point x="207" y="378"/>
      <point x="207" y="427" type="curve" smooth="yes"/>
      <point x="207" y="479"/>
      <point x="183" y="509"/>
      <point x="148" y="509" type="curve" smooth="yes"/>
    </contour>
    <contour>
      <point x="74" y="302"/>
      <point x="30" y="354"/>
      <point x="30" y="427" type="curve" smooth="yes"/>
      <point x="30" y="503"/>
      <point x="74" y="555"/>
      <point x="149" y="555" type="curve" smooth="yes"/>
      <point x="224" y="555"/>
      <point x="267" y="503"/>
      <point x="267" y="427" type="curve" smooth="yes"/>
      <point x="267" y="354"/>
      <point x="221" y="302"/>
      <point x="148" y="302" type="curve" smooth="yes"/>
    </contour>
  </outline>
</glyph>
<glyph name="onehalf" format="1">
  <advance width="671"/>
  <unicode hex="00BD"/>
  <outline>
    <contour>
      <point x="526" y="550" type="line"/>
      <point x="179" y="0" type="line"/>
      <point x="92" y="0" type="line"/>
      <point x="442" y="550" type="line"/>
    </contour>
    <contour>
      <point x="178" y="239" type="line"/>
      <point x="106" y="239" type="line"/>
      <point x="106" y="477" type="line"/>
      <point x="50" y="461" type="line"/>
      <point x="25" y="517" type="line"/>
      <point x="126" y="550" type="line"/>
      <point x="178" y="550" type="line"/>
    </contour>
    <contour>
      <point x="436" y="299"/>
      <point x="473" y="316"/>
      <point x="518" y="316" type="curve" smooth="yes"/>
      <point x="578" y="316"/>
      <point x="624" y="276"/>
      <point x="624" y="214" type="curve" smooth="yes"/>
      <point x="624" y="167"/>
      <point x="594" y="124"/>
      <point x="532" y="61" type="curve"/>
      <point x="631" y="61" type="line"/>
      <point x="631" y="-1" type="line"/>
      <point x="420" y="-1" type="line"/>
      <point x="420" y="40" type="line"/>
      <point x="439" y="58"/>
      <point x="454" y="71"/>
      <point x="478" y="96" type="curve"/>
      <point x="524" y="139"/>
      <point x="554" y="176"/>
      <point x="554" y="203" type="curve" smooth="yes"/>
      <point x="554" y="234"/>
      <point x="540" y="248"/>
      <point x="507" y="248" type="curve" smooth="yes"/>
      <point x="478" y="248"/>
      <point x="454" y="235"/>
      <point x="437" y="226" type="curve"/>
      <point x="415" y="287" type="line"/>
    </contour>
  </outline>
</glyph>
<glyph name="Eth" format="1">
  <advance width="625"/>
  <unicode hex="00D0"/>
  <outline>
    <contour>
      <point x="106" y="325" type="line"/>
      <point x="106" y="550" type="line"/>
      <point x="292" y="550" type="line" smooth="yes"/>
      <point x="526" y="550"/>
      <point x="586" y="407"/>
      <point x="586" y="292" type="curve" smooth="yes"/>
      <point x="586" y="174"/>
      <point x="538" y="54"/>
      <point x="387" y="11" type="curve"/>
      <point x="339" y="0"/>
      <point x="291" y="0"/>
      <point x="244" y="0" type="curve" smooth="yes"/>
      <point x="106" y="0" type="line"/>
      <point x="106" y="236" type="line"/>
      <point x="9" y="236" type="line"/>
      <point x="9" y="325" type="line"/>
    </contour>
    <contour>
      <point x="205" y="325" type="line"/>
      <point x="325" y="325" type="line"/>
      <point x="325" y="236" type="line"/>
      <point x="205" y="236" type="line"/>
      <point x="205" y="89" type="line"/>
      <point x="268" y="89" type="line" smooth="yes"/>
      <point x="327" y="89"/>
      <point x="416" y="92"/>
      <point x="462" y="176" type="curve" smooth="yes"/>
      <point x="471" y="193"/>
      <point x="486" y="227"/>
      <point x="486" y="279" type="curve" smooth="yes"/>
      <point x="486" y="400"/>
      <point x="419" y="462"/>
      <point x="294" y="462" type="curve" smooth="yes"/>
      <point x="205" y="462" type="line"/>
    </contour>
  </outline>
</glyph>
<glyph name="multiply" format="1">
  <advance width="446"/>
  <unicode hex="00D7"/>
  <outline>
    <contour>
      <point x="376" y="121" type="line"/>
      <point x="319" y="64" type="line"/>
      <point x="71" y="313" type="line"/>
      <point x="127" y="370" type="line"/>
    </contour>
    <contour>
      <point x="375" y="313" type="line"/>
      <point x="127" y="64" type="line"/>
      <point x="70" y="121" type="line"/>
      <point x="319" y="370" type="line"/>
    </contour>
  </outline>
</glyph>
<glyph name="Thorn" format="1">
  <advance width="526"/>
  <unicode hex="00DE"/>
  <outline>
    <contour>
      <point x="291" y="449"/>
      <point x="339" y="445"/>
      <point x="368" y="437" type="curve" smooth="yes"/>
      <point x="469" y="411"/>
      <point x="495" y="339"/>
      <point x="495" y="286" type="curve" smooth="yes"/>
      <point x="495" y="222"/>
      <point x="468" y="146"/>
      <point x="368" y="117" type="curve"/>
      <point x="340" y="110"/>
      <point x="292" y="105"/>
      <point x="217" y="105" type="curve" smooth="yes"/>
      <point x="161" y="105" type="line"/>
      <point x="161" y="0" type="line"/>
      <point x="63" y="0" type="line"/>
      <point x="63" y="550" type="line"/>
      <point x="161" y="550" type="line"/>
      <point x="161" y="449" type="line"/>
      <point x="216" y="449" type="line" smooth="yes"/>
    </contour>
    <contour>
      <point x="230" y="194" type="line"/>
      <point x="242" y="194" type="line" smooth="yes"/>
      <point x="318" y="194"/>
      <point x="394" y="192"/>
      <point x="394" y="276" type="curve" smooth="yes"/>
      <point x="394" y="362"/>
      <point x="318" y="360"/>
      <point x="241" y="360" type="curve" smooth="yes"/>
      <point x="229" y="360" type="line"/>
      <point x="161" y="360" type="line"/>
      <point x="161" y="194" type="line"/>
    </contour>
  </outline>
</glyph>
<glyph name="ae" format="1">
  <advance width="628"/>
  <unicode hex="00E6"/>
  <outline>
    <contour>
      <point x="548" y="390"/>
      <point x="599" y="311"/>
      <point x="599" y="190" type="curve" smooth="yes"/>
      <point x="599" y="153" type="line"/>
      <point x="348" y="153" type="line"/>
      <point x="353" y="84"/>
      <point x="391" y="66"/>
      <point x="460" y="66" type="curve" smooth="yes"/>
      <point x="505" y="66"/>
      <point x="537" y="71"/>
      <point x="565" y="78" type="curve"/>
      <point x="582" y="13" type="line"/>
      <point x="546" y="0"/>
      <point x="506" y="-10"/>
      <point x="455" y="-10" type="curve" smooth="yes"/>
      <point x="390" y="-10"/>
      <point x="343" y="8"/>
      <point x="314" y="39" type="curve"/>
      <point x="250" y="-1"/>
      <point x="201" y="-9"/>
      <point x="165" y="-9" type="curve" smooth="yes"/>
      <point x="80" y="-9"/>
      <point x="29" y="40"/>
      <point x="29" y="105" type="curve" smooth="yes"/>
      <point x="29" y="181"/>
      <point x="88" y="223"/>
      <point x="189" y="228" type="curve" smooth="yes"/>
      <point x="264" y="232" type="line"/>
      <point x="264" y="297"/>
      <point x="246" y="318"/>
      <point x="175" y="318" type="curve" smooth="yes"/>
      <point x="138" y="318"/>
      <point x="106" y="309"/>
      <point x="77" y="298" type="curve"/>
      <point x="62" y="364" type="line"/>
      <point x="89" y="373"/>
      <point x="140" y="390"/>
      <point x="190" y="390" type="curve" smooth="yes"/>
      <point x="263" y="390"/>
      <point x="294" y="372"/>
      <point x="321" y="347" type="curve"/>
      <point x="352" y="372"/>
      <point x="390" y="390"/>
      <point x="430" y="390" type="curve" smooth="yes"/>
    </contour>
    <contour>
      <point x="150" y="159"/>
      <point x="125" y="143"/>
      <point x="125" y="112" type="curve" smooth="yes"/>
      <point x="125" y="81"/>
      <point x="149" y="63"/>
      <point x="189" y="63" type="curve" smooth="yes"/>
      <point x="226" y="63"/>
      <point x="248" y="70"/>
      <point x="269" y="85" type="curve"/>
      <point x="269" y="167" type="line"/>
      <point x="200" y="162" type="line" smooth="yes"/>
    </contour>
    <contour>
      <point x="394" y="315"/>
      <point x="353" y="284"/>
      <point x="350" y="220" type="curve"/>
      <point x="506" y="220" type="line"/>
      <point x="506" y="284"/>
      <point x="477" y="315"/>
      <point x="432" y="315" type="curve" smooth="yes"/>
    </contour>
  </outline>
</glyph>
<glyph name="ccedilla" format="1">
  <advance width="396"/>
  <unicode hex="00E7"/>
  <outline>
    <contour>
      <point x="128" y="118"/>
      <point x="171" y="66"/>
      <point x="244" y="66" type="curve" smooth="yes"/>
      <point x="285" y="66"/>
      <point x="316" y="78"/>
      <point x="348" y="89" type="curve"/>
      <point x="375" y="27" type="line"/>
      <point x="343" y="8"/>
      <point x="308" y="-6"/>
      <point x="251" y="-10" type="curve"/>
      <point x="243" y="-42" type="line"/>
      <point x="282" y="-53"/>
      <point x="320" y="-76"/>
      <point x="320" y="-124" type="curve" smooth="yes"/>
      <point x="320" y="-167"/>
      <point x="292" y="-208"/>
      <point x="225" y="-208" type="curve" smooth="yes"/>
      <point x="193" y="-208"/>
      <point x="166" y="-203"/>
      <point x="131" y="-191" type="curve"/>
      <point x="117" y="-187" type="line"/>
      <point x="135" y="-121" type="line"/>
      <point x="189" y="-136" type="line"/>
      <point x="206" y="-137"/>
      <point x="217" y="-141"/>
      <point x="225" y="-141" type="curve" smooth="yes"/>
      <point x="244" y="-141"/>
      <point x="248" y="-134"/>
      <point x="248" y="-129" type="curve" smooth="yes"/>
      <point x="248" y="-121"/>
      <point x="246" y="-113"/>
      <point x="211" y="-102" type="curve" smooth="yes"/>
      <point x="156" y="-86" type="line"/>
      <point x="178" y="-6" type="line"/>
      <point x="85" y="14"/>
      <point x="29" y="87"/>
      <point x="29" y="190" type="curve" smooth="yes"/>
      <point x="29" y="314"/>
      <point x="107" y="390"/>
      <point x="228" y="390" type="curve" smooth="yes"/>
      <point x="302" y="390"/>
      <point x="337" y="371"/>
      <point x="375" y="355" type="curve"/>
      <point x="348" y="292" type="line"/>
      <point x="316" y="303"/>
      <point x="285" y="315"/>
      <point x="244" y="315" type="curve" smooth="yes"/>
      <point x="165" y="315"/>
      <point x="128" y="263"/>
      <point x="128" y="190" type="curve" smooth="yes"/>
    </contour>
  </outline>
</glyph>
<glyph name="oslash" format="1">
  <advance width="455"/>
  <unicode hex="00F8"/>
  <outline>
    <contour>
      <point x="436" y="347" type="line"/>
      <point x="75" y="-21" type="line"/>
      <point x="22" y="29" type="line"/>
      <point x="383" y="401" type="line"/>
    </contour>
    <component base="o"/>
  </outline>
</glyph>
<glyph name="dcaron" format="1">
  <advance width="540"/>
  <unicode hex="010F"/>
  <outline>
    <contour>
      <point x="523" y="420" type="line"/>
      <point x="452" y="420" type="line"/>
      <point x="478" y="596" type="line"/>
      <point x="570" y="596" type="line"/>
    </contour>
    <component base="d"/>
  </outline>
</glyph>
<glyph name="dcroat" format="1">
  <advance width="477"/>
  <unicode hex="0111"/>
  <outline>
    <contour>
      <point x="404" y="498" type="line"/>
      <point x="477" y="498" type="line"/>
      <point x="477" y="425" type="line"/>
      <point x="404" y="425" type="line"/>
      <point x="404" y="0" type="line"/>
      <point x="335" y="0" type="line"/>
      <point x="328" y="21" type="line"/>
      <point x="301" y="5"/>
      <point x="266" y="-9"/>
      <point x="225" y="-9" type="curve" smooth="yes"/>
      <point x="103" y="-9"/>
      <point x="29" y="66"/>
      <point x="29" y="188" type="curve" smooth="yes"/>
      <point x="29" y="329"/>
      <point x="140" y="384"/>
      <point x="217" y="384" type="curve" smooth="yes"/>
      <point x="250" y="384"/>
      <point x="281" y="376"/>
      <point x="308" y="367" type="curve"/>
      <point x="308" y="425" type="line"/>
      <point x="152" y="425" type="line"/>
      <point x="152" y="498" type="line"/>
      <point x="308" y="498" type="line"/>
      <point x="308" y="550" type="line"/>
      <point x="404" y="550" type="line"/>
    </contour>
    <contour>
      <point x="177" y="308"/>
      <point x="128" y="278"/>
      <point x="128" y="181" type="curve" smooth="yes"/>
      <point x="128" y="96"/>
      <point x="178" y="66"/>
      <point x="242" y="66" type="curve" smooth="yes"/>
      <point x="269" y="66"/>
      <point x="291" y="74"/>
      <point x="308" y="85" type="curve"/>
      <point x="308" y="295" type="line"/>
      <point x="283" y="303"/>
      <point x="262" y="308"/>
      <point x="239" y="308" type="curve" smooth="yes"/>
    </contour>
  </outline>
</glyph>
<glyph name="Eogonek" format="1">
  <advance width="467"/>
  <unicode hex="0118"/>
  <outline>
    <contour>
      <point x="424" y="550" type="line"/>
      <point x="424" y="462" type="line"/>
      <point x="161" y="462" type="line"/>
      <point x="161" y="324" type="line"/>
      <point x="394" y="324" type="line"/>
      <point x="394" y="235" type="line"/>
      <point x="161" y="235" type="line"/>
      <point x="161" y="89" type="line"/>
      <point x="424" y="89" type="line"/>
      <point x="424" y="0" type="line"/>
      <point x="291" y="-16"/>
      <point x="262" y="-56"/>
      <point x="262" y="-87" type="curve" smooth="yes"/>
      <point x="262" y="-115"/>
      <point x="279" y="-137"/>
      <point x="314" y="-137" type="curve" smooth="yes"/>
      <point x="339" y="-137"/>
      <point x="365" y="-125"/>
      <point x="386" y="-118" type="curve"/>
      <point x="408" y="-162" type="line"/>
      <point x="376" y="-182"/>
      <point x="338" y="-200"/>
      <point x="281" y="-200" type="curve" smooth="yes"/>
      <point x="205" y="-200"/>
      <point x="171" y="-154"/>
      <point x="171" y="-108" type="curve" smooth="yes"/>
      <point x="171" y="-56"/>
      <point x="211" y="-24"/>
      <point x="268" y="0" type="curve"/>
      <point x="63" y="0" type="line"/>
      <point x="63" y="550" type="line"/>
    </contour>
  </outline>
</glyph>
<glyph name="eogonek" format="1">
  <advance width="416"/>
  <unicode hex="0119"/>
  <outline>
    <contour>
      <point x="326" y="390"/>
      <point x="387" y="311"/>
      <point x="387" y="190" type="curve" smooth="yes"/>
      <point x="387" y="153" type="line"/>
      <point x="126" y="153" type="line"/>
      <point x="131" y="84"/>
      <point x="177" y="66"/>
      <point x="245" y="66" type="curve" smooth="yes"/>
      <point x="290" y="66"/>
      <point x="323" y="71"/>
      <point x="351" y="78" type="curve"/>
      <point x="368" y="13" type="line"/>
      <point x="322" y="2"/>
      <point x="232" y="-19"/>
      <point x="232" y="-87" type="curve" smooth="yes"/>
      <point x="232" y="-115"/>
      <point x="248" y="-137"/>
      <point x="280" y="-137" type="curve" smooth="yes"/>
      <point x="305" y="-137"/>
      <point x="332" y="-125"/>
      <point x="352" y="-118" type="curve"/>
      <point x="375" y="-162" type="line"/>
      <point x="343" y="-182"/>
      <point x="305" y="-200"/>
      <point x="249" y="-200" type="curve" smooth="yes"/>
      <point x="179" y="-200"/>
      <point x="139" y="-156"/>
      <point x="139" y="-99" type="curve" smooth="yes"/>
      <point x="139" y="-65"/>
      <point x="157" y="-35"/>
      <point x="194" y="-8" type="curve"/>
      <point x="82" y="8"/>
      <point x="29" y="84"/>
      <point x="29" y="190" type="curve" smooth="yes"/>
      <point x="29" y="314"/>
      <point x="115" y="390"/>
      <point x="207" y="390" type="curve" smooth="yes"/>
    </contour>
    <contour>
      <point x="172" y="315"/>
      <point x="131" y="284"/>
      <point x="128" y="220" type="curve"/>
      <point x="292" y="220" type="line"/>
      <point x="292" y="284"/>
      <point x="256" y="315"/>
      <point x="209" y="315" type="curve" smooth="yes"/>
    </contour>
  </outline>
</glyph>
<glyph name="Iogonek" format="1">
  <advance width="228"/>
  <unicode hex="012E"/>
  <outline>
    <contour>
      <point x="52" y="-21"/>
      <point x="33" y="-50"/>
      <point x="33" y="-87" type="curve" smooth="yes"/>
      <point x="33" y="-115"/>
      <point x="49" y="-137"/>
      <point x="82" y="-137" type="curve" smooth="yes"/>
      <point x="107" y="-137"/>
      <point x="134" y="-125"/>
      <point x="153" y="-118" type="curve"/>
      <point x="177" y="-162" type="line"/>
      <point x="144" y="-182"/>
      <point x="106" y="-200"/>
      <point x="50" y="-200" type="curve" smooth="yes"/>
      <point x="-18" y="-200"/>
      <point x="-60" y="-156"/>
      <point x="-60" y="-99" type="curve" smooth="yes"/>
      <point x="-60" y="-44"/>
      <point x="-14" y="0"/>
      <point x="69" y="36" type="curve"/>
      <point x="69" y="550" type="line"/>
      <point x="167" y="550" type="line"/>
      <point x="167" y="16" type="line"/>
    </contour>
  </outline>
</glyph>
<glyph name="dotlessi" format="1">
  <advance width="194"/>
  <unicode hex="0131"/>
  <outline>
    <contour>
      <point x="145" y="0" type="line"/>
      <point x="49" y="0" type="line"/>
      <point x="49" y="384" type="line"/>
      <point x="145" y="384" type="line"/>
    </contour>
    <contour>
      <point x="97" y="384" type="move" name="top"/>
    </contour>
  </outline>
</glyph>
<glyph name="IJ" format="1">
  <advance width="558"/>
  <unicode hex="0132"/>
  <outline>
    <contour>
      <point x="509" y="199" type="line" smooth="yes"/>
      <point x="509" y="111"/>
      <point x="487" y="-7"/>
      <point x="304" y="-7" type="curve" smooth="yes"/>
      <point x="277" y="-7"/>
      <point x="250" y="-4"/>
      <point x="223" y="3" type="curve"/>
      <point x="210" y="8" type="line"/>
      <point x="225" y="93" type="line"/>
      <point x="242" y="89" type="line" smooth="yes"/>
      <point x="261" y="84"/>
      <point x="276" y="83"/>
      <point x="293" y="83" type="curve" smooth="yes"/>
      <point x="406" y="83"/>
      <point x="412" y="159"/>
      <point x="412" y="199" type="curve" smooth="yes"/>
      <point x="412" y="550" type="line"/>
      <point x="509" y="550" type="line"/>
    </contour>
    <component base="I"/>
    <contour>
      <point x="491" y="550" type="move" name="top.cap"/>
    </contour>
  </outline>
</glyph>
<glyph name="ij" format="1">
  <advance width="368"/>
  <unicode hex="0133"/>
  <outline>
    <contour>
      <point x="320" y="-29" type="line" smooth="yes"/>
      <point x="320" y="-92"/>
      <point x="305" y="-165"/>
      <point x="189" y="-207" type="curve"/>
      <point x="176" y="-211" type="line"/>
      <point x="143" y="-145" type="line"/>
      <point x="157" y="-137" type="line"/>
      <point x="219" y="-105"/>
      <point x="226" y="-83"/>
      <point x="226" y="3" type="curve" smooth="yes"/>
      <point x="226" y="384" type="line"/>
      <point x="320" y="384" type="line"/>
    </contour>
    <contour>
      <point x="307" y="449"/>
      <point x="334" y="476"/>
      <point x="334" y="510" type="curve" smooth="yes"/>
      <point x="334" y="544"/>
      <point x="307" y="571"/>
      <point x="273" y="571" type="curve" smooth="yes"/>
      <point x="239" y="571"/>
      <point x="212" y="544"/>
      <point x="212" y="510" type="curve" smooth="yes"/>
      <point x="212" y="476"/>
      <point x="239" y="449"/>
      <point x="273" y="449" type="curve" smooth="yes"/>
    </contour>
    <component base="i"/>
    <contour>
      <point x="273" y="384" type="move" name="top"/>
    </contour>
  </outline>
</glyph>
<glyph name="Lcaron" format="1">
  <advance width="443"/>
  <unicode hex="013D"/>
  <outline>
    <contour>
      <point x="304" y="413" type="line"/>
      <point x="228" y="413" type="line"/>
      <point x="266" y="599" type="line"/>
      <point x="371" y="599" type="line"/>
    </contour>
    <component base="L"/>
  </outline>
</glyph>
<glyph name="florin" format="1">
  <advance width="355"/>
  <unicode hex="0192"/>
  <outline>
    <contour>
      <point x="374" y="460" type="line"/>
      <point x="329" y="473"/>
      <point x="296" y="475"/>
      <point x="276" y="475" type="curve" smooth="yes"/>
      <point x="145" y="475"/>
      <point x="129" y="377"/>
      <point x="129" y="335" type="curve" smooth="yes"/>
      <point x="129" y="305" type="line"/>
      <point x="65" y="305" type="line"/>
      <point x="65" y="230" type="line"/>
      <point x="129" y="230" type="line"/>
      <point x="129" y="-26" type="line" smooth="yes"/>
      <point x="129" y="-86"/>
      <point x="118" y="-108"/>
      <point x="48" y="-108" type="curve" smooth="yes"/>
      <point x="34" y="-108"/>
      <point x="8" y="-104"/>
      <point x="-17" y="-99" type="curve"/>
      <point x="-30" y="-166" type="line"/>
      <point x="5" y="-175"/>
      <point x="45" y="-180"/>
      <point x="72" y="-180" type="curve" smooth="yes"/>
      <point x="189" y="-180"/>
      <point x="224" y="-123"/>
      <point x="224" y="-43" type="curve" smooth="yes"/>
      <point x="224" y="230" type="line"/>
      <point x="357" y="230" type="line"/>
      <point x="357" y="305" type="line"/>
      <point x="224" y="305" type="line"/>
      <point x="224" y="338" type="line" smooth="yes"/>
      <point x="224" y="377"/>
      <point x="246" y="399"/>
      <point x="298" y="399" type="curve" smooth="yes"/>
      <point x="321" y="399"/>
      <point x="346" y="394"/>
      <point x="357" y="391" type="curve"/>
      <point x="373" y="386" type="line"/>
      <point x="388" y="455" type="line"/>
    </contour>
  </outline>
</glyph>
<glyph name="caron" format="1">
  <advance width="286"/>
  <unicode hex="02C7"/>
  <outline>
    <contour>
      <point x="5" y="581" type="line"/>
      <point x="143" y="430" type="line"/>
      <point x="281" y="581" type="line"/>
      <point x="229" y="634" type="line"/>
      <point x="143" y="540" type="line"/>
      <point x="57" y="634" type="line"/>
    </contour>
    <contour>
      <point x="143" y="384" type="move" name="_top"/>
    </contour>
  </outline>
</glyph>
<glyph name="ring" format="1">
  <advance width="211"/>
  <unicode hex="02DA"/>
  <outline>
    <contour>
      <point x="83" y="563"/>
      <point x="67" y="544"/>
      <point x="67" y="523" type="curve" smooth="yes"/>
      <point x="67" y="502"/>
      <point x="82" y="483"/>
      <point x="106" y="483" type="curve" smooth="yes"/>
      <point x="127" y="483"/>
      <point x="144" y="502"/>
      <point x="144" y="523" type="curve" smooth="yes"/>
      <point x="144" y="544"/>
      <point x="127" y="563"/>
      <point x="106" y="563" type="curve" smooth="yes"/>
    </contour>
    <contour>
      <point x="206" y="468"/>
      <point x="163" y="420"/>
      <point x="106" y="420" type="curve" smooth="yes"/>
      <point x="49" y="420"/>
      <point x="5" y="468"/>
      <point x="5" y="523" type="curve" smooth="yes"/>
      <point x="5" y="581"/>
      <point x="49" y="625"/>
      <point x="106" y="625" type="curve" smooth="yes"/>
      <point x="163" y="625"/>
      <point x="206" y="581"/>
      <point x="206" y="523" type="curve" smooth="yes"/>
    </contour>
    <contour>
      <point x="106" y="384" type="move" name="_top"/>
    </contour>
  </outline>
</glyph>
<glyph name="hungarumlaut" format="1">
  <advance width="444"/>
  <unicode hex="02DD"/>
  <outline>
    <component base="acute"/>
    <component base="acute" xOffset="200"/>
    <contour>
      <point x="146" y="384" type="move" name="_top"/>
    </contour>
  </outline>
</glyph>
<glyph name="uni0904" format="1">
  <advance width="600"/>
  <unicode hex="0904"/>
  <outline>
    <contour>
      <point x="531" y="542"/>
      <point x="455" y="578"/>
      <point x="392" y="578" type="curve"/>
      <point x="364" y="578"/>
      <point x="356" y="579"/>
      <point x="346" y="580" type="curve" smooth="yes"/>
      <point x="305" y="585"/>
      <point x="289" y="610"/>
      <point x="281" y="667" type="curve"/>
      <point x="210" y="641" type="line"/>
      <point x="217" y="544"/>
      <point x="282" y="506"/>
      <point x="357" y="506" type="curve"/>
      <point x="433" y="506"/>
      <point x="448" y="488"/>
      <point x="449" y="437" type="curve"/>
      <point x="531" y="437" type="line"/>
    </contour>
    <component base="adeva"/>
  </outline>
</glyph>
<glyph name="adeva" format="1">
  <advance width="600"/>
  <unicode hex="0905"/>
  <outline>
    <contour>
      <point x="389" y="466" type="line"/>
      <point x="389" y="396" type="line"/>
      <point x="620" y="396" type="line"/>
      <point x="620" y="466" type="line"/>
    </contour>
    <contour>
      <point x="448" y="0" type="line"/>
      <point x="533" y="0" type="line"/>
      <point x="533" y="466" type="line"/>
      <point x="448" y="466" type="line"/>
    </contour>
    <contour>
      <point x="351" y="187"/>
      <point x="337" y="199"/>
      <point x="316" y="219" type="curve" smooth="yes"/>
      <point x="297" y="237"/>
      <point x="295" y="244"/>
      <point x="275" y="251" type="curve"/>
      <point x="315" y="263"/>
      <point x="347" y="299"/>
      <point x="347" y="353" type="curve" smooth="yes"/>
      <point x="347" y="419"/>
      <point x="299" y="466"/>
      <point x="225" y="466" type="curve"/>
      <point x="170" y="466"/>
      <point x="130" y="443"/>
      <point x="95" y="416" type="curve"/>
      <point x="138" y="357" type="line"/>
      <point x="159" y="375"/>
      <point x="187" y="393"/>
      <point x="217" y="393" type="curve" smooth="yes"/>
      <point x="254" y="393"/>
      <point x="271" y="376"/>
      <point x="271" y="347" type="curve" smooth="yes"/>
      <point x="271" y="326"/>
      <point x="268" y="287"/>
      <point x="182" y="287" type="curve" smooth="yes"/>
      <point x="159" y="287" type="line"/>
      <point x="159" y="216" type="line"/>
      <point x="178" y="216" type="line"/>
      <point x="251" y="220"/>
      <point x="276" y="187"/>
      <point x="276" y="147" type="curve" smooth="yes"/>
      <point x="276" y="110"/>
      <point x="254" y="87"/>
      <point x="206" y="87" type="curve" smooth="yes"/>
      <point x="142" y="87"/>
      <point x="114" y="136"/>
      <point x="70" y="212" type="curve"/>
      <point x="6" y="173" type="line"/>
      <point x="62" y="74"/>
      <point x="104" y="12"/>
      <point x="207" y="12" type="curve" smooth="yes"/>
      <point x="298" y="12"/>
      <point x="351" y="64"/>
      <point x="351" y="137" type="curve" smooth="yes"/>
    </contour>
    <contour>
      <point x="419" y="214"/>
      <point x="371" y="206"/>
      <point x="261" y="257" type="curve"/>
      <point x="243" y="219" type="line"/>
      <point x="320" y="156"/>
      <point x="396" y="130"/>
      <point x="475" y="176" type="curve"/>
      <point x="473" y="257" type="line"/>
    </contour>
    <contour>
      <point x="491" y="447" type="move" name="top"/>
    </contour>
  </outline>
</glyph>
<glyph name="lvocalicdeva" format="1">
  <advance width="555"/>
  <unicode hex="090C"/>
  <outline>
    <contour>
      <point x="344" y="260" type="line"/>
      <point x="424" y="260" type="line"/>
      <point x="424" y="466" type="line"/>
      <point x="344" y="466" type="line"/>
    </contour>
    <contour>
      <point x="-24" y="466" type="line"/>
      <point x="-24" y="396" type="line"/>
      <point x="579" y="396" type="line"/>
      <point x="579" y="466" type="line"/>
    </contour>
    <contour>
      <point x="279" y="277"/>
      <point x="239" y="311"/>
      <point x="174" y="311" type="curve" smooth="yes"/>
      <point x="99" y="311"/>
      <point x="44" y="259"/>
      <point x="44" y="172" type="curve" smooth="yes"/>
      <point x="44" y="74"/>
      <point x="142" y="-23"/>
      <point x="142" y="-23" type="curve"/>
      <point x="215" y="12" type="line"/>
      <point x="194" y="34"/>
      <point x="126" y="111"/>
      <point x="126" y="169" type="curve" smooth="yes"/>
      <point x="126" y="208"/>
      <point x="142" y="230"/>
      <point x="184" y="230" type="curve" smooth="yes"/>
      <point x="225" y="230"/>
      <point x="249" y="183"/>
      <point x="249" y="183" type="curve"/>
      <point x="307" y="236" type="line"/>
    </contour>
    <contour>
      <point x="499" y="108"/>
      <point x="499" y="191" type="curve" smooth="yes"/>
      <point x="499" y="261"/>
      <point x="448" y="309"/>
      <point x="364" y="309" type="curve"/>
      <point x="282" y="309"/>
      <point x="229" y="273"/>
      <point x="229" y="169" type="curve" smooth="yes"/>
      <point x="229" y="159"/>
      <point x="230" y="128"/>
      <point x="232" y="118" type="curve"/>
      <point x="232" y="118"/>
      <point x="309" y="105"/>
      <point x="309" y="105" type="curve"/>
      <point x="308" y="115"/>
      <point x="306" y="140"/>
      <point x="306" y="162" type="curve" smooth="yes"/>
      <point x="306" y="207"/>
      <point x="325" y="232"/>
      <point x="361" y="231" type="curve"/>
      <point x="401" y="231"/>
      <point x="417" y="214"/>
      <point x="417" y="185" type="curve" smooth="yes"/>
      <point x="417" y="159"/>
      <point x="393" y="142"/>
      <point x="371" y="116" type="curve" smooth="yes"/>
      <point x="352" y="93"/>
      <point x="333" y="68"/>
      <point x="333" y="29" type="curve" smooth="yes"/>
      <point x="333" y="-16"/>
      <point x="366" y="-66"/>
      <point x="436" y="-66" type="curve" smooth="yes"/>
      <point x="478" y="-66"/>
      <point x="510" y="-47"/>
      <point x="533" y="-28" type="curve"/>
      <point x="495" y="33" type="line"/>
      <point x="482" y="25"/>
      <point x="466" y="8"/>
      <point x="439" y="8" type="curve" smooth="yes"/>
      <point x="423" y="8"/>
      <point x="413" y="17"/>
      <point x="413" y="34" type="curve" smooth="yes"/>
      <point x="413" y="77"/>
    </contour>
    <contour>
      <point x="384" y="447" type="move" name="top"/>
    </contour>
  </outline>
</glyph>
<glyph name="rradeva" format="1">
  <advance width="315"/>
  <unicode hex="0931"/>
  <outline>
    <component base="radeva"/>
    <component base="nuktadeva" xOffset="60" yOffset="88"/>
    <contour>
      <point x="170" y="447" type="move" name="top"/>
    </contour>
    <contour>
      <point x="148" y="-50" type="move" name="bottom"/>
    </contour>
  </outline>
</glyph>
<glyph name="llladeva" format="1">
  <advance width="594"/>
  <unicode hex="0934"/>
  <outline>
    <component base="lladeva"/>
    <component base="nuktadeva" xOffset="330" yOffset="40"/>
    <contour>
      <point x="421" y="447" type="move" name="top"/>
    </contour>
    <contour>
      <point x="419" y="-125" type="move" name="bottom"/>
    </contour>
  </outline>
</glyph>
<glyph name="nuktadeva" format="1">
  <advance width="0"/>
  <unicode hex="093C"/>
  <outline>
    <contour>
      <point x="-5" y="-114"/>
      <point x="12" y="-97"/>
      <point x="12" y="-70" type="curve" smooth="yes"/>
      <point x="12" y="-42"/>
      <point x="-5" y="-25"/>
      <point x="-33" y="-25" type="curve" smooth="yes"/>
      <point x="-60" y="-25"/>
      <point x="-77" y="-42"/>
      <point x="-77" y="-70" type="curve" smooth="yes"/>
      <point x="-77" y="-97"/>
      <point x="-60" y="-114"/>
      <point x="-33" y="-114" type="curve" smooth="yes"/>
    </contour>
  </outline>
</glyph>
<glyph name="eshortvowelsigndeva" format="1">
  <advance width="341"/>
  <unicode hex="0946"/>
  <outline>
    <contour>
      <point x="331" y="542"/>
      <point x="254" y="576"/>
      <point x="179" y="576" type="curve"/>
      <point x="167" y="576"/>
      <point x="156" y="577"/>
      <point x="146" y="578" type="curve" smooth="yes"/>
      <point x="105" y="583"/>
      <point x="89" y="610"/>
      <point x="81" y="667" type="curve"/>
      <point x="10" y="641" type="line"/>
      <point x="17" y="544"/>
      <point x="81" y="504"/>
      <point x="157" y="504" type="curve"/>
      <point x="233" y="504"/>
      <point x="249" y="483"/>
      <point x="249" y="437" type="curve"/>
      <point x="331" y="437" type="line"/>
    </contour>
    <contour>
      <point x="290" y="447" type="move" name="_top"/>
    </contour>
  </outline>
</glyph>
<glyph name="viramadeva" format="1">
  <advance width="271"/>
  <unicode hex="094D"/>
  <outline>
    <contour>
      <point x="155" y="-69"/>
      <point x="221" y="-138"/>
      <point x="261" y="-188" type="curve"/>
      <point x="261" y="-188"/>
      <point x="204" y="-236"/>
      <point x="204" y="-236" type="curve"/>
      <point x="143" y="-161"/>
      <point x="89" y="-144"/>
      <point x="10" y="-144" type="curve"/>
      <point x="10" y="-69" type="line"/>
    </contour>
    <contour>
      <point x="92" y="-22" type="move" name="_bottom"/>
    </contour>
  </outline>
</glyph>
<glyph name="uni094F" format="1">
  <advance width="213"/>
  <unicode hex="094F"/>
  <outline>
    <contour>
      <point x="111" y="542"/>
      <point x="31" y="568"/>
      <point x="-39" y="568" type="curve"/>
      <point x="-107" y="568"/>
      <point x="-127" y="584"/>
      <point x="-139" y="667" type="curve"/>
      <point x="-203" y="643" type="line"/>
      <point x="-196" y="546"/>
      <point x="-137" y="504"/>
      <point x="-61" y="504" type="curve"/>
      <point x="21" y="504"/>
      <point x="39" y="487"/>
      <point x="39" y="437" type="curve"/>
      <point x="111" y="437" type="line"/>
    </contour>
    <contour>
      <point x="184" y="474"/>
      <point x="189" y="495"/>
      <point x="189" y="513" type="curve" smooth="yes"/>
      <point x="188" y="595"/>
      <point x="125" y="612"/>
      <point x="80" y="635" type="curve" smooth="yes"/>
      <point x="45" y="653"/>
      <point x="24" y="667"/>
      <point x="24" y="711" type="curve" smooth="yes"/>
      <point x="24" y="723"/>
      <point x="26" y="736"/>
      <point x="29" y="751" type="curve"/>
      <point x="-38" y="750" type="line"/>
      <point x="-43" y="732"/>
      <point x="-45" y="715"/>
      <point x="-45" y="700" type="curve" smooth="yes"/>
      <point x="-45" y="633"/>
      <point x="-10" y="610"/>
      <point x="28" y="588" type="curve" smooth="yes"/>
      <point x="70" y="564"/>
      <point x="119" y="554"/>
      <point x="119" y="512" type="curve" smooth="yes"/>
      <point x="119" y="503"/>
      <point x="117" y="492"/>
      <point x="113" y="479" type="curve"/>
      <point x="104" y="453" type="line"/>
      <point x="176" y="452" type="line"/>
    </contour>
    <component base="uni093E"/>
  </outline>
</glyph>
<glyph name="udattadeva" format="1">
  <advance width="94"/>
  <unicode hex="0951"/>
  <outline>
    <contour>
      <point x="10" y="440" type="line"/>
      <point x="84" y="440" type="line"/>
      <point x="84" y="630" type="line"/>
      <point x="10" y="630" type="line"/>
    </contour>
  </outline>
</glyph>
<glyph name="dddhadeva" format="1">
  <advance width="433"/>
  <unicode hex="095C"/>
  <outline>
    <component base="ddadeva"/>
    <component base="nuktadeva" xOffset="245" yOffset="-12"/>
    <contour>
      <point x="318" y="447" type="move" name="top"/>
    </contour>
    <contour>
      <point x="233" y="-165" type="move" name="bottom"/>
    </contour>
  </outline>
</glyph>
<glyph name="yyadeva" format="1">
  <advance width="464"/>
  <unicode hex="095F"/>
  <outline>
    <component base="nuktadeva" xOffset="136" yOffset="79"/>
    <component base="uni092F"/>
    <contour>
      <point x="356" y="447" type="move" name="top"/>
    </contour>
    <contour>
      <point x="356" y="5" type="move" name="bottom"/>
    </contour>
  </outline>
</glyph>
<glyph name="llvocalicvowelsigndeva" format="1">
  <advance width="456"/>
  <unicode hex="0963"/>
  <outline>
    <contour>
      <point x="239" y="-68" type="line"/>
      <point x="219" y="-41"/>
      <point x="184" y="-12"/>
      <point x="138" y="-12" type="curve" smooth="yes"/>
      <point x="62" y="-12"/>
      <point x="20" y="-60"/>
      <point x="20" y="-121" type="curve" smooth="yes"/>
      <point x="20" y="-184"/>
      <point x="55" y="-239"/>
      <point x="72" y="-267" type="curve"/>
      <point x="136" y="-240" type="line"/>
      <point x="118" y="-210"/>
      <point x="92" y="-169"/>
      <point x="92" y="-126" type="curve" smooth="yes"/>
      <point x="92" y="-98"/>
      <point x="109" y="-79"/>
      <point x="137" y="-79" type="curve" smooth="yes"/>
      <point x="173" y="-79"/>
      <point x="189" y="-110"/>
      <point x="200" y="-130" type="curve"/>
    </contour>
    <contour>
      <point x="406" y="-425" type="line"/>
      <point x="386" y="-435"/>
      <point x="365" y="-442"/>
      <point x="339" y="-442" type="curve" smooth="yes"/>
      <point x="309" y="-442"/>
      <point x="291" y="-431"/>
      <point x="291" y="-409" type="curve" smooth="yes"/>
      <point x="291" y="-378"/>
      <point x="321" y="-373"/>
      <point x="358" y="-373" type="curve" smooth="yes"/>
      <point x="387" y="-373" type="line"/>
      <point x="387" y="-312" type="line"/>
      <point x="343" y="-312" type="line"/>
      <point x="315" y="-312"/>
      <point x="299" y="-302"/>
      <point x="299" y="-285" type="curve" smooth="yes"/>
      <point x="299" y="-262"/>
      <point x="317" y="-249"/>
      <point x="343" y="-221" type="curve" smooth="yes"/>
      <point x="369" y="-194"/>
      <point x="399" y="-166"/>
      <point x="399" y="-117" type="curve" smooth="yes"/>
      <point x="399" y="-71"/>
      <point x="374" y="-12"/>
      <point x="290" y="-12" type="curve" smooth="yes"/>
      <point x="224" y="-12"/>
      <point x="166" y="-52"/>
      <point x="166" y="-154" type="curve" smooth="yes"/>
      <point x="166" y="-164"/>
      <point x="167" y="-175"/>
      <point x="169" y="-185" type="curve"/>
      <point x="234" y="-197" type="line"/>
      <point x="233" y="-187"/>
      <point x="232" y="-177"/>
      <point x="232" y="-160" type="curve" smooth="yes"/>
      <point x="232" y="-113"/>
      <point x="249" y="-80"/>
      <point x="286" y="-80" type="curve" smooth="yes"/>
      <point x="315" y="-80"/>
      <point x="330" y="-95"/>
      <point x="330" y="-119" type="curve" smooth="yes"/>
      <point x="330" y="-152"/>
      <point x="306" y="-171"/>
      <point x="282" y="-196" type="curve" smooth="yes"/>
      <point x="255" y="-225"/>
      <point x="234" y="-252"/>
      <point x="234" y="-288" type="curve" smooth="yes"/>
      <point x="234" y="-314"/>
      <point x="248" y="-333"/>
      <point x="269" y="-344" type="curve"/>
      <point x="248" y="-358"/>
      <point x="227" y="-384"/>
      <point x="227" y="-417" type="curve" smooth="yes"/>
      <point x="227" y="-464"/>
      <point x="257" y="-503"/>
      <point x="340" y="-503" type="curve" smooth="yes"/>
      <point x="376" y="-503"/>
      <point x="409" y="-492"/>
      <point x="436" y="-477" type="curve"/>
    </contour>
    <contour>
      <point x="202" y="5" type="move" name="_bottom"/>
    </contour>
  </outline>
</glyph>
<glyph name="fivedeva" format="1">
  <advance width="362"/>
  <unicode hex="096B"/>
  <outline>
    <contour>
      <point x="283" y="218"/>
      <point x="238" y="176"/>
      <point x="174" y="176" type="curve" smooth="yes"/>
      <point x="124" y="176"/>
      <point x="105" y="213"/>
      <point x="105" y="252" type="curve" smooth="yes"/>
      <point x="105" y="311"/>
      <point x="137" y="366"/>
      <point x="171" y="428" type="curve"/>
      <point x="99" y="461" type="line"/>
      <point x="61" y="392"/>
      <point x="25" y="328"/>
      <point x="25" y="249" type="curve" smooth="yes"/>
      <point x="25" y="163"/>
      <point x="70" y="100"/>
      <point x="175" y="100" type="curve" smooth="yes"/>
      <point x="229" y="100"/>
      <point x="273" y="124"/>
      <point x="279" y="128" type="curve"/>
      <point x="298" y="233" type="line"/>
    </contour>
    <contour>
      <point x="245" y="127"/>
      <point x="254" y="116"/>
      <point x="267" y="121" type="curve" smooth="yes"/>
      <point x="297" y="133"/>
      <point x="323" y="159"/>
      <point x="323" y="197" type="curve" smooth="yes"/>
      <point x="323" y="229"/>
      <point x="303" y="258"/>
      <point x="263" y="258" type="curve" smooth="yes"/>
      <point x="235" y="258"/>
      <point x="217" y="245"/>
      <point x="207" y="237" type="curve"/>
      <point x="236" y="132" type="line"/>
    </contour>
    <contour>
      <point x="226" y="165" type="line"/>
      <point x="281" y="-17" type="line"/>
      <point x="356" y="5" type="line"/>
      <point x="289" y="190" type="line"/>
    </contour>
  </outline>
</glyph>
<glyph name="sevendeva" format="1">
  <advance width="467"/>
  <unicode hex="096D"/>
  <outline>
    <contour>
      <point x="349" y="338"/>
      <point x="373" y="293"/>
      <point x="369" y="221" type="curve"/>
      <point x="370" y="212" type="line"/>
      <point x="368" y="131"/>
      <point x="317" y="79"/>
      <point x="235" y="79" type="curve" smooth="yes"/>
      <point x="153" y="79"/>
      <point x="98" y="144"/>
      <point x="98" y="246" type="curve" smooth="yes"/>
      <point x="98" y="332"/>
      <point x="133" y="392"/>
      <point x="150" y="422" type="curve"/>
      <point x="80" y="455" type="line"/>
      <point x="66" y="429"/>
      <point x="20" y="349"/>
      <point x="20" y="245" type="curve" smooth="yes"/>
      <point x="20" y="105"/>
      <point x="96" y="3"/>
      <point x="236" y="3" type="curve" smooth="yes"/>
      <point x="390" y="3"/>
      <point x="447" y="116"/>
      <point x="447" y="219" type="curve"/>
      <point x="447" y="340"/>
      <point x="393" y="415"/>
      <point x="306" y="415" type="curve"/>
      <point x="232" y="415"/>
      <point x="181" y="364"/>
      <point x="181" y="294" type="curve"/>
      <point x="181" y="224"/>
      <point x="224" y="169"/>
      <point x="310" y="169" type="curve"/>
      <point x="353" y="169"/>
      <point x="385" y="187"/>
      <point x="399" y="196" type="curve"/>
      <point x="404" y="280" type="line"/>
      <point x="378" y="255"/>
      <point x="356" y="242"/>
      <point x="310" y="242" type="curve"/>
      <point x="276" y="242"/>
      <point x="260" y="265"/>
      <point x="260" y="292" type="curve"/>
      <point x="260" y="317"/>
      <point x="275" y="338"/>
      <point x="309" y="338" type="curve"/>
    </contour>
  </outline>
</glyph>
<glyph name="uni0975" format="1">
  <advance width="813"/>
  <unicode hex="0975"/>
  <outline>
    <contour>
      <point x="719" y="542"/>
      <point x="639" y="568"/>
      <point x="569" y="568" type="curve"/>
      <point x="501" y="568"/>
      <point x="481" y="584"/>
      <point x="469" y="667" type="curve"/>
      <point x="405" y="643" type="line"/>
      <point x="412" y="546"/>
      <point x="471" y="504"/>
      <point x="547" y="504" type="curve"/>
      <point x="629" y="504"/>
      <point x="647" y="487"/>
      <point x="647" y="437" type="curve"/>
      <point x="719" y="437" type="line"/>
    </contour>
    <contour>
      <point x="792" y="474"/>
      <point x="797" y="495"/>
      <point x="797" y="513" type="curve" smooth="yes"/>
      <point x="796" y="595"/>
      <point x="733" y="612"/>
      <point x="688" y="635" type="curve" smooth="yes"/>
      <point x="653" y="653"/>
      <point x="632" y="667"/>
      <point x="632" y="711" type="curve" smooth="yes"/>
      <point x="632" y="723"/>
      <point x="634" y="736"/>
      <point x="637" y="751" type="curve"/>
      <point x="570" y="750" type="line"/>
      <point x="565" y="732"/>
      <point x="563" y="715"/>
      <point x="563" y="700" type="curve" smooth="yes"/>
      <point x="563" y="633"/>
      <point x="598" y="610"/>
      <point x="636" y="588" type="curve" smooth="yes"/>
      <point x="678" y="564"/>
      <point x="727" y="554"/>
      <point x="727" y="512" type="curve" smooth="yes"/>
      <point x="727" y="503"/>
      <point x="725" y="492"/>
      <point x="721" y="479" type="curve"/>
      <point x="712" y="453" type="line"/>
      <point x="784" y="452" type="line"/>
    </contour>
    <component base="aadeva"/>
  </outline>
</glyph>
<glyph name="uni0978" format="1">
  <advance width="433"/>
  <unicode hex="0978"/>
  <outline>
    <contour>
      <point x="-24" y="466" type="line"/>
      <point x="-24" y="396" type="line"/>
      <point x="457" y="396" type="line"/>
      <point x="457" y="466" type="line"/>
    </contour>
    <contour>
      <point x="39" y="265" type="line"/>
      <point x="39" y="223" type="line"/>
      <point x="138" y="100" type="line"/>
      <point x="138" y="100"/>
      <point x="195" y="100"/>
      <point x="195" y="100" type="curve"/>
      <point x="195" y="265" type="line"/>
    </contour>
    <contour>
      <point x="134" y="265" type="line"/>
      <point x="134" y="187" type="line"/>
      <point x="230" y="187" type="line"/>
      <point x="296" y="187"/>
      <point x="320" y="184"/>
      <point x="320" y="132" type="curve" smooth="yes"/>
      <point x="320" y="103"/>
      <point x="301" y="63"/>
      <point x="282" y="26" type="curve"/>
      <point x="360" y="-17" type="line"/>
      <point x="389" y="40"/>
      <point x="410" y="89"/>
      <point x="410" y="144" type="curve" smooth="yes"/>
      <point x="410" y="227"/>
      <point x="349" y="265"/>
      <point x="257" y="265" type="curve"/>
    </contour>
    <contour>
      <point x="110" y="187" type="line"/>
      <point x="195" y="187" type="line"/>
      <point x="195" y="466" type="line"/>
      <point x="110" y="466" type="line"/>
    </contour>
  </outline>
</glyph>
<glyph name="uni0979" format="1">
  <advance width="567"/>
  <unicode hex="0979"/>
  <outline>
    <contour>
      <point x="166" y="-83"/>
      <point x="183" y="-66"/>
      <point x="183" y="-42" type="curve" smooth="yes"/>
      <point x="183" y="-16"/>
      <point x="166" y="0"/>
      <point x="141" y="0" type="curve" smooth="yes"/>
      <point x="117" y="0"/>
      <point x="100" y="-17"/>
      <point x="100" y="-42" type="curve" smooth="yes"/>
      <point x="100" y="-66"/>
      <point x="117" y="-83"/>
      <point x="141" y="-83" type="curve" smooth="yes"/>
    </contour>
    <contour>
      <point x="286" y="-83"/>
      <point x="303" y="-66"/>
      <point x="303" y="-42" type="curve" smooth="yes"/>
      <point x="303" y="-16"/>
      <point x="286" y="0"/>
      <point x="261" y="0" type="curve" smooth="yes"/>
      <point x="237" y="0"/>
      <point x="220" y="-17"/>
      <point x="220" y="-42" type="curve" smooth="yes"/>
      <point x="220" y="-66"/>
      <point x="237" y="-83"/>
      <point x="261" y="-83" type="curve" smooth="yes"/>
    </contour>
    <contour>
      <point x="225" y="-173"/>
      <point x="242" y="-156"/>
      <point x="242" y="-132" type="curve" smooth="yes"/>
      <point x="242" y="-106"/>
      <point x="225" y="-90"/>
      <point x="200" y="-90" type="curve" smooth="yes"/>
      <point x="176" y="-90"/>
      <point x="159" y="-107"/>
      <point x="159" y="-132" type="curve" smooth="yes"/>
      <point x="159" y="-156"/>
      <point x="176" y="-173"/>
      <point x="200" y="-173" type="curve" smooth="yes"/>
    </contour>
    <component base="jadeva"/>
  </outline>
</glyph>
<glyph name="quoteright" format="1">
  <advance width="206"/>
  <unicode hex="2019"/>
  <outline>
    <contour>
      <point x="99" y="443"/>
      <point x="70" y="406"/>
      <point x="60" y="393" type="curve"/>
      <point x="89" y="374" type="line"/>
      <point x="122" y="403"/>
      <point x="176" y="451"/>
      <point x="176" y="498" type="curve" smooth="yes"/>
      <point x="176" y="531"/>
      <point x="159" y="556"/>
      <point x="123" y="556" type="curve" smooth="yes"/>
      <point x="88" y="556"/>
      <point x="68" y="535"/>
      <point x="68" y="504" type="curve" smooth="yes"/>
      <point x="68" y="481"/>
      <point x="85" y="458"/>
      <point x="110" y="453" type="curve"/>
      <point x="107" y="464" type="line"/>
    </contour>
  </outline>
</glyph>
<glyph name="dagger" format="1">
  <advance width="351"/>
  <unicode hex="2020"/>
  <outline>
    <contour>
      <point x="141" y="424" type="line"/>
      <point x="45" y="417" type="line"/>
      <point x="45" y="495" type="line"/>
      <point x="141" y="487" type="line"/>
      <point x="132" y="596" type="line"/>
      <point x="217" y="596" type="line"/>
      <point x="208" y="487" type="line"/>
      <point x="306" y="495" type="line"/>
      <point x="306" y="417" type="line"/>
      <point x="208" y="424" type="line"/>
      <point x="217" y="48" type="line"/>
      <point x="132" y="48" type="line"/>
    </contour>
  </outline>
</glyph>
<glyph name="daggerdbl" format="1">
  <advance width="351"/>
  <unicode hex="2021"/>
  <outline>
    <contour>
      <point x="133" y="294"/>
      <point x="136" y="371"/>
      <point x="140" y="424" type="curve"/>
      <point x="45" y="417" type="line"/>
      <point x="45" y="495" type="line"/>
      <point x="141" y="487" type="line"/>
      <point x="132" y="596" type="line"/>
      <point x="217" y="596" type="line"/>
      <point x="208" y="487" type="line"/>
      <point x="306" y="495" type="line"/>
      <point x="306" y="417" type="line"/>
      <point x="208" y="424" type="line"/>
      <point x="212" y="369"/>
      <point x="216" y="295"/>
      <point x="216" y="233" type="curve" smooth="yes"/>
      <point x="216" y="171"/>
      <point x="212" y="97"/>
      <point x="208" y="42" type="curve"/>
      <point x="306" y="49" type="line"/>
      <point x="306" y="-29" type="line"/>
      <point x="208" y="-21" type="line"/>
      <point x="217" y="-130" type="line"/>
      <point x="132" y="-130" type="line"/>
      <point x="141" y="-21" type="line"/>
      <point x="45" y="-29" type="line"/>
      <point x="45" y="49" type="line"/>
      <point x="140" y="42" type="line"/>
      <point x="136" y="95"/>
      <point x="133" y="172"/>
      <point x="133" y="233" type="curve" smooth="yes"/>
    </contour>
  </outline>
</glyph>
<glyph name="ellipsis" format="1">
  <advance width="553"/>
  <unicode hex="2026"/>
  <outline>
    <contour>
      <point x="140" y="-11"/>
      <point x="163" y="12"/>
      <point x="163" y="43" type="curve" smooth="yes"/>
      <point x="163" y="74"/>
      <point x="140" y="97"/>
      <point x="109" y="97" type="curve" smooth="yes"/>
      <point x="78" y="97"/>
      <point x="55" y="74"/>
      <point x="55" y="43" type="curve" smooth="yes"/>
      <point x="55" y="12"/>
      <point x="78" y="-11"/>
      <point x="109" y="-11" type="curve" smooth="yes"/>
    </contour>
    <contour>
      <point x="307" y="-11"/>
      <point x="330" y="12"/>
      <point x="330" y="43" type="curve" smooth="yes"/>
      <point x="330" y="74"/>
      <point x="307" y="97"/>
      <point x="276" y="97" type="curve" smooth="yes"/>
      <point x="245" y="97"/>
      <point x="222" y="74"/>
      <point x="222" y="43" type="curve" smooth="yes"/>
      <point x="222" y="12"/>
      <point x="245" y="-11"/>
      <point x="276" y="-11" type="curve" smooth="yes"/>
    </contour>
    <contour>
      <point x="475" y="-11"/>
      <point x="498" y="12"/>
      <point x="498" y="43" type="curve" smooth="yes"/>
      <point x="498" y="74"/>
      <point x="475" y="97"/>
      <point x="444" y="97" type="curve" smooth="yes"/>
      <point x="413" y="97"/>
      <point x="390" y="74"/>
      <point x="390" y="43" type="curve" smooth="yes"/>
      <point x="390" y="12"/>
      <point x="413" y="-11"/>
      <point x="444" y="-11" type="curve" smooth="yes"/>
    </contour>
  </outline>
</glyph>
<glyph name="guilsinglleft" format="1">
  <advance width="251"/>
  <unicode hex="2039"/>
  <outline>
    <contour>
      <point x="231" y="404" type="line"/>
      <point x="113" y="241" type="line"/>
      <point x="231" y="80" type="line"/>
      <point x="142" y="80" type="line"/>
      <point x="29" y="241" type="line"/>
      <point x="142" y="404" type="line"/>
    </contour>
  </outline>
</glyph>
<glyph name="guilsinglright" format="1">
  <advance width="251"/>
  <unicode hex="203A"/>
  <outline>
    <contour>
      <point x="222" y="241" type="line"/>
      <point x="109" y="80" type="line"/>
      <point x="20" y="80" type="line"/>
      <point x="138" y="241" type="line"/>
      <point x="20" y="404" type="line"/>
      <point x="109" y="404" type="line"/>
    </contour>
  </outline>
</glyph>
<glyph name="fraction" format="1">
  <advance width="284"/>
  <unicode hex="2044"/>
  <outline>
    <contour>
      <point x="354" y="570" type="line"/>
      <point x="17" y="-20" type="line"/>
      <point x="-70" y="-20" type="line"/>
      <point x="270" y="570" type="line"/>
    </contour>
  </outline>
</glyph>
<glyph name="uni2113" format="1">
  <advance width="328"/>
  <unicode hex="2113"/>
  <outline>
    <contour>
      <point x="92" y="379" type="line" smooth="yes"/>
      <point x="92" y="504"/>
      <point x="135" y="545"/>
      <point x="206" y="545" type="curve" smooth="yes"/>
      <point x="269" y="545"/>
      <point x="304" y="511"/>
      <point x="304" y="445" type="curve" smooth="yes"/>
      <point x="304" y="338"/>
      <point x="200" y="207"/>
      <point x="162" y="146" type="curve"/>
      <point x="167" y="167" type="line"/>
      <point x="60" y="46" type="line"/>
      <point x="5" y="103" type="line"/>
      <point x="126" y="238" type="line"/>
      <point x="146" y="251" type="line"/>
      <point x="204" y="352"/>
      <point x="224" y="392"/>
      <point x="224" y="431" type="curve" smooth="yes"/>
      <point x="224" y="450"/>
      <point x="220" y="463"/>
      <point x="206" y="463" type="curve" smooth="yes"/>
      <point x="194" y="463"/>
      <point x="186" y="458"/>
      <point x="181" y="440" type="curve" smooth="yes"/>
      <point x="176" y="422"/>
      <point x="174" y="398"/>
      <point x="174" y="358" type="curve" smooth="yes"/>
      <point x="174" y="130" type="line" smooth="yes"/>
      <point x="174" y="93"/>
      <point x="182" y="75"/>
      <point x="219" y="75" type="curve" smooth="yes"/>
      <point x="246" y="75"/>
      <point x="269" y="89"/>
      <point x="281" y="96" type="curve"/>
      <point x="308" y="30" type="line"/>
      <point x="275" y="9"/>
      <point x="239" y="-9"/>
      <point x="179" y="-9" type="curve" smooth="yes"/>
      <point x="122" y="-9"/>
      <point x="92" y="34"/>
      <point x="92" y="90" type="curve" smooth="yes"/>
    </contour>
  </outline>
</glyph>
<glyph name="Ohm" format="1">
  <advance width="534"/>
  <unicode hex="2126"/>
  <outline>
    <contour>
      <point x="184" y="394"/>
      <point x="135" y="336"/>
      <point x="135" y="252" type="curve" smooth="yes"/>
      <point x="135" y="204"/>
      <point x="148" y="151"/>
      <point x="186" y="105" type="curve" smooth="yes"/>
      <point x="201" y="87"/>
      <point x="216" y="73"/>
      <point x="228" y="63" type="curve"/>
      <point x="228" y="0" type="line"/>
      <point x="30" y="0" type="line"/>
      <point x="30" y="75" type="line"/>
      <point x="122" y="75" type="line"/>
      <point x="65" y="140"/>
      <point x="42" y="189"/>
      <point x="42" y="269" type="curve" smooth="yes"/>
      <point x="42" y="398"/>
      <point x="127" y="486"/>
      <point x="267" y="486" type="curve" smooth="yes"/>
      <point x="407" y="486"/>
      <point x="492" y="398"/>
      <point x="492" y="269" type="curve" smooth="yes"/>
      <point x="492" y="189"/>
      <point x="469" y="140"/>
      <point x="412" y="75" type="curve"/>
      <point x="504" y="75" type="line"/>
      <point x="504" y="0" type="line"/>
      <point x="306" y="0" type="line"/>
      <point x="306" y="63" type="line"/>
      <point x="318" y="73"/>
      <point x="333" y="87"/>
      <point x="348" y="105" type="curve" smooth="yes"/>
      <point x="386" y="151"/>
      <point x="399" y="204"/>
      <point x="399" y="252" type="curve" smooth="yes"/>
      <point x="399" y="336"/>
      <point x="350" y="394"/>
      <point x="267" y="394" type="curve" smooth="yes"/>
    </contour>
  </outline>
</glyph>
<glyph name="estimated" format="1">
  <advance width="464"/>
  <unicode hex="212E"/>
  <outline>
    <contour>
      <point x="40" y="334"/>
      <point x="61" y="388"/>
      <point x="95" y="424" type="curve" smooth="yes"/>
      <point x="129" y="460"/>
      <point x="176" y="478"/>
      <point x="231" y="478" type="curve" smooth="yes"/>
      <point x="284" y="478"/>
      <point x="333" y="460"/>
      <point x="368" y="424" type="curve" smooth="yes"/>
      <point x="403" y="388"/>
      <point x="424" y="334"/>
      <point x="424" y="261" type="curve"/>
      <point x="419" y="256" type="line"/>
      <point x="104" y="256" type="line"/>
      <point x="104" y="161" type="line"/>
      <point x="116" y="148"/>
      <point x="133" y="132"/>
      <point x="154" y="120" type="curve" smooth="yes"/>
      <point x="174" y="108"/>
      <point x="199" y="99"/>
      <point x="231" y="99" type="curve" smooth="yes"/>
      <point x="296" y="99"/>
      <point x="344" y="121"/>
      <point x="380" y="146" type="curve"/>
      <point x="394" y="125" type="line"/>
      <point x="351" y="94"/>
      <point x="296" y="73"/>
      <point x="231" y="73" type="curve" smooth="yes"/>
      <point x="179" y="73"/>
      <point x="132" y="91"/>
      <point x="97" y="124" type="curve" smooth="yes"/>
      <point x="62" y="156"/>
      <point x="40" y="202"/>
      <point x="40" y="261" type="curve" smooth="yes"/>
    </contour>
    <contour>
      <point x="359" y="280" type="line"/>
      <point x="358" y="381" type="line"/>
      <point x="335" y="424"/>
      <point x="296" y="454"/>
      <point x="231" y="454" type="curve" smooth="yes"/>
      <point x="167" y="454"/>
      <point x="127" y="424"/>
      <point x="104" y="381" type="curve"/>
      <point x="104" y="280" type="line"/>
    </contour>
  </outline>
</glyph>
<glyph name="partialdiff" format="1">
  <advance width="419"/>
  <unicode hex="2202"/>
  <outline>
    <contour>
      <point x="299" y="298"/>
      <point x="272" y="400"/>
      <point x="187" y="400" type="curve" smooth="yes"/>
      <point x="154" y="400"/>
      <point x="100" y="378"/>
      <point x="72" y="363" type="curve"/>
      <point x="35" y="438" type="line"/>
      <point x="78" y="455"/>
      <point x="130" y="475"/>
      <point x="185" y="475" type="curve" smooth="yes"/>
      <point x="325" y="475"/>
      <point x="389" y="348"/>
      <point x="389" y="217" type="curve" smooth="yes"/>
      <point x="389" y="103"/>
      <point x="336" y="-10"/>
      <point x="200" y="-10" type="curve" smooth="yes"/>
      <point x="95" y="-10"/>
      <point x="36" y="61"/>
      <point x="36" y="146" type="curve" smooth="yes"/>
      <point x="36" y="253"/>
      <point x="104" y="307"/>
      <point x="196" y="307" type="curve" smooth="yes"/>
      <point x="239" y="307"/>
      <point x="278" y="299"/>
      <point x="323" y="277" type="curve"/>
      <point x="325" y="188" type="line"/>
      <point x="280" y="215"/>
      <point x="241" y="224"/>
      <point x="208" y="224" type="curve" smooth="yes"/>
      <point x="152" y="224"/>
      <point x="122" y="206"/>
      <point x="122" y="151" type="curve" smooth="yes"/>
      <point x="122" y="100"/>
      <point x="152" y="73"/>
      <point x="202" y="73" type="curve" smooth="yes"/>
      <point x="274" y="73"/>
      <point x="299" y="144"/>
      <point x="299" y="202" type="curve" smooth="yes"/>
    </contour>
  </outline>
</glyph>
<glyph name="summation" format="1">
  <advance width="478"/>
  <unicode hex="2211"/>
  <outline>
    <contour>
      <point x="182" y="421" type="line"/>
      <point x="355" y="230" type="line"/>
      <point x="355" y="196" type="line"/>
      <point x="180" y="4" type="line"/>
      <point x="440" y="4" type="line"/>
      <point x="440" y="-74" type="line"/>
      <point x="50" y="-74" type="line"/>
      <point x="50" y="-17" type="line"/>
      <point x="256" y="213" type="line"/>
      <point x="50" y="444" type="line"/>
      <point x="50" y="501" type="line"/>
      <point x="440" y="501" type="line"/>
      <point x="440" y="421" type="line"/>
    </contour>
  </outline>
</glyph>
<glyph name="infinity" format="1">
  <advance width="632"/>
  <unicode hex="221E"/>
  <outline>
    <contour>
      <point x="377" y="48"/>
      <point x="335" y="95"/>
      <point x="293" y="152" type="curve"/>
      <point x="261" y="110"/>
      <point x="215" y="71"/>
      <point x="153" y="71" type="curve" smooth="yes"/>
      <point x="68" y="71"/>
      <point x="20" y="132"/>
      <point x="20" y="207" type="curve" smooth="yes"/>
      <point x="20" y="282"/>
      <point x="64" y="343"/>
      <point x="155" y="343" type="curve" smooth="yes"/>
      <point x="208" y="343"/>
      <point x="250" y="309"/>
      <point x="286" y="272" type="curve"/>
      <point x="332" y="342"/>
      <point x="369" y="378"/>
      <point x="452" y="378" type="curve" smooth="yes"/>
      <point x="507" y="378"/>
      <point x="546" y="359"/>
      <point x="572" y="328" type="curve" smooth="yes"/>
      <point x="598" y="296"/>
      <point x="612" y="254"/>
      <point x="612" y="207" type="curve" smooth="yes"/>
      <point x="612" y="164"/>
      <point x="598" y="124"/>
      <point x="571" y="95" type="curve" smooth="yes"/>
      <point x="544" y="66"/>
      <point x="507" y="48"/>
      <point x="450" y="48" type="curve" smooth="yes"/>
    </contour>
    <contour>
      <point x="393" y="298"/>
      <point x="368" y="271"/>
      <point x="332" y="213" type="curve"/>
      <point x="364" y="173"/>
      <point x="402" y="126"/>
      <point x="446" y="126" type="curve" smooth="yes"/>
      <point x="495" y="126"/>
      <point x="526" y="161"/>
      <point x="526" y="207" type="curve" smooth="yes"/>
      <point x="526" y="255"/>
      <point x="506" y="298"/>
      <point x="442" y="298" type="curve" smooth="yes"/>
    </contour>
    <contour>
      <point x="191" y="150"/>
      <point x="228" y="174"/>
      <point x="250" y="208" type="curve"/>
      <point x="228" y="238"/>
      <point x="191" y="264"/>
      <point x="156" y="264" type="curve" smooth="yes"/>
      <point x="118" y="264"/>
      <point x="100" y="236"/>
      <point x="100" y="207" type="curve" smooth="yes"/>
      <point x="100" y="178"/>
      <point x="118" y="150"/>
      <point x="155" y="150" type="curve" smooth="yes"/>
    </contour>
  </outline>
</glyph>
<glyph name="lessequal" format="1">
  <advance width="437"/>
  <unicode hex="2264"/>
  <outline>
    <contour>
      <point x="41" y="274" type="line"/>
      <point x="389" y="382" type="line"/>
      <point x="389" y="311" type="line"/>
      <point x="139" y="242" type="line"/>
      <point x="389" y="174" type="line"/>
      <point x="389" y="102" type="line"/>
      <point x="41" y="210" type="line"/>
    </contour>
    <contour>
      <point x="389" y="64" type="line"/>
      <point x="389" y="0" type="line"/>
      <point x="40" y="0" type="line"/>
      <point x="40" y="64" type="line"/>
    </contour>
  </outline>
</glyph>
<glyph name="lozenge" format="1">
  <advance width="417"/>
  <unicode hex="25CA"/>
  <outline>
    <contour>
      <point x="239" y="0" type="line"/>
      <point x="177" y="0" type="line"/>
      <point x="25" y="208" type="line"/>
      <point x="177" y="418" type="line"/>
      <point x="239" y="418" type="line"/>
      <point x="392" y="208" type="line"/>
    </contour>
    <contour>
      <point x="208" y="333" type="line"/>
      <point x="120" y="208" type="line"/>
      <point x="208" y="84" type="line"/>
      <point x="297" y="208" type="line"/>
    </contour>
  </outline>
</glyph>
<glyph name="fl" format="1">
  <advance width="560"/>
  <unicode hex="FB02"/>
  <outline>
    <contour>
      <point x="80" y="456"/>
      <point x="96" y="554"/>
      <point x="237" y="554" type="curve" smooth="yes"/>
      <point x="254" y="554"/>
      <point x="280" y="553"/>
      <point x="315" y="544" type="curve"/>
      <point x="302" y="474" type="line"/>
      <point x="290" y="476"/>
      <point x="274" y="478"/>
      <point x="259" y="478" type="curve" smooth="yes"/>
      <point x="207" y="478"/>
      <point x="175" y="456"/>
      <point x="175" y="417" type="curve" smooth="yes"/>
      <point x="175" y="384" type="line"/>
      <point x="308" y="384" type="line"/>
      <point x="308" y="309" type="line"/>
      <point x="175" y="309" type="line"/>
      <point x="175" y="0" type="line"/>
      <point x="80" y="0" type="line"/>
      <point x="80" y="309" type="line"/>
      <point x="16" y="309" type="line"/>
      <point x="16" y="384" type="line"/>
      <point x="80" y="384" type="line"/>
      <point x="80" y="414" type="line" smooth="yes"/>
    </contour>
    <component base="l" xOffset="316"/>
  </outline>
</glyph>
<glyph name="acute.cap" format="1">
  <advance width="261"/>
  <outline>
    <contour>
      <point x="41" y="570" type="line"/>
      <point x="256" y="653" type="line"/>
      <point x="216" y="741" type="line"/>
      <point x="5" y="639" type="line"/>
    </contour>
    <contour>
      <point x="149" y="550" type="move" name="_top.cap"/>
    </contour>
  </outline>
</glyph>
<glyph name="aideva_candrabindudeva" format="1">
  <advance width="439"/>
  <outline>
    <contour>
      <point x="437" y="629"/>
      <point x="451" y="642"/>
      <point x="451" y="662" type="curve" smooth="yes"/>
      <point x="451" y="682"/>
      <point x="437" y="696"/>
      <point x="417" y="696" type="curve" smooth="yes"/>
      <point x="397" y="696"/>
      <point x="384" y="682"/>
      <point x="384" y="662" type="curve" smooth="yes"/>
      <point x="384" y="642"/>
      <point x="397" y="629"/>
      <point x="417" y="629" type="curve" smooth="yes"/>
    </contour>
    <contour>
      <point x="482" y="545"/>
      <point x="521" y="582"/>
      <point x="534" y="628" type="curve"/>
      <point x="485" y="650" type="line"/>
      <point x="471" y="614"/>
      <point x="450" y="597"/>
      <point x="418" y="597" type="curve" smooth="yes"/>
      <point x="386" y="597"/>
      <point x="365" y="614"/>
      <point x="350" y="650" type="curve"/>
      <point x="302" y="628" type="line"/>
      <point x="314" y="582"/>
      <point x="354" y="545"/>
      <point x="418" y="545" type="curve" smooth="yes"/>
    </contour>
    <component base="aideva"/>
  </outline>
</glyph>
<glyph name="auMatra_reph-deva" format="1">
  <advance width="213"/>
  <outline>
    <contour>
      <point x="161" y="476"/>
      <point x="137" y="530"/>
      <point x="137" y="554" type="curve" smooth="yes"/>
      <point x="137" y="583"/>
      <point x="159" y="598"/>
      <point x="188" y="598" type="curve" smooth="yes"/>
      <point x="216" y="598"/>
      <point x="246" y="586"/>
      <point x="263" y="578" type="curve"/>
      <point x="302" y="637" type="line"/>
      <point x="278" y="651"/>
      <point x="238" y="669"/>
      <point x="190" y="669" type="curve" smooth="yes"/>
      <point x="157" y="669"/>
      <point x="125" y="656"/>
      <point x="102" y="636" type="curve"/>
      <point x="78" y="679"/>
      <point x="46" y="697"/>
      <point x="6" y="697" type="curve" smooth="yes"/>
      <point x="-19" y="697"/>
      <point x="-48" y="687"/>
      <point x="-48" y="687" type="curve"/>
      <point x="-33" y="623" type="line"/>
      <point x="-33" y="623"/>
      <point x="-8" y="629"/>
      <point x="7" y="629" type="curve" smooth="yes"/>
      <point x="36" y="629"/>
      <point x="49" y="595"/>
      <point x="63" y="566" type="curve" smooth="yes"/>
      <point x="98" y="493" type="line"/>
      <point x="36" y="546" type="line" smooth="yes"/>
      <point x="-5" y="579"/>
      <point x="-36" y="612"/>
      <point x="-73" y="612" type="curve" smooth="yes"/>
      <point x="-100" y="612"/>
      <point x="-133" y="599"/>
      <point x="-133" y="599" type="curve"/>
      <point x="-113" y="531" type="line"/>
      <point x="-113" y="531"/>
      <point x="-88" y="540"/>
      <point x="-73" y="540" type="curve" smooth="yes"/>
      <point x="-53" y="540"/>
      <point x="-35" y="522"/>
      <point x="4" y="494" type="curve" smooth="yes"/>
      <point x="82" y="437" type="line"/>
      <point x="176" y="437" type="line"/>
    </contour>
    <component base="uni093E"/>
  </outline>
</glyph>
<glyph name="audeva_candrabindudeva" format="1">
  <advance width="813"/>
  <outline>
    <contour>
      <point x="863" y="629"/>
      <point x="877" y="642"/>
      <point x="877" y="662" type="curve" smooth="yes"/>
      <point x="877" y="682"/>
      <point x="863" y="696"/>
      <point x="843" y="696" type="curve" smooth="yes"/>
      <point x="823" y="696"/>
      <point x="810" y="682"/>
      <point x="810" y="662" type="curve" smooth="yes"/>
      <point x="810" y="642"/>
      <point x="823" y="629"/>
      <point x="843" y="629" type="curve" smooth="yes"/>
    </contour>
    <contour>
      <point x="908" y="545"/>
      <point x="947" y="582"/>
      <point x="960" y="628" type="curve"/>
      <point x="911" y="650" type="line"/>
      <point x="897" y="614"/>
      <point x="876" y="597"/>
      <point x="844" y="597" type="curve" smooth="yes"/>
      <point x="812" y="597"/>
      <point x="791" y="614"/>
      <point x="776" y="650" type="curve"/>
      <point x="728" y="628" type="line"/>
      <point x="740" y="582"/>
      <point x="780" y="545"/>
      <point x="844" y="545" type="curve" smooth="yes"/>
    </contour>
    <component base="audeva"/>
  </outline>
</glyph>
<glyph name="breve.cap" format="1">
  <advance width="276"/>
  <outline>
    <contour>
      <point x="67" y="592"/>
      <point x="25" y="641"/>
      <point x="5" y="681" type="curve"/>
      <point x="59" y="720" type="line"/>
      <point x="76" y="695"/>
      <point x="97" y="661"/>
      <point x="138" y="661" type="curve" smooth="yes"/>
      <point x="178" y="661"/>
      <point x="201" y="695"/>
      <point x="217" y="720" type="curve"/>
      <point x="271" y="681" type="line"/>
      <point x="251" y="641"/>
      <point x="209" y="592"/>
      <point x="138" y="592" type="curve" smooth="yes"/>
    </contour>
    <contour>
      <point x="138" y="550" type="move" name="_top.cap"/>
    </contour>
  </outline>
</glyph>
<glyph name="caron.cap" format="1">
  <advance width="310"/>
  <outline>
    <contour>
      <point x="254" y="756" type="line"/>
      <point x="155" y="680" type="line"/>
      <point x="56" y="756" type="line"/>
      <point x="5" y="699" type="line"/>
      <point x="155" y="585" type="line"/>
      <point x="305" y="699" type="line"/>
    </contour>
    <contour>
      <point x="155" y="550" type="move" name="_top.cap"/>
    </contour>
  </outline>
</glyph>
<glyph name="dddh_ra-deva" format="1">
  <advance width="433"/>
  <outline>
    <contour>
      <point x="76" y="-241" type="line"/>
      <point x="122" y="-294" type="line"/>
      <point x="213" y="-226" type="line"/>
      <point x="305" y="-294" type="line"/>
      <point x="350" y="-241" type="line"/>
      <point x="230" y="-151" type="line"/>
      <point x="196" y="-151" type="line"/>
    </contour>
    <component base="dddhadeva"/>
  </outline>
</glyph>
<glyph name="evowelsigndeva_anusvaradeva" format="1">
  <advance width="0"/>
  <outline>
    <component base="evowelsigndeva"/>
    <component base="anusvaradeva" xOffset="20" yOffset="40"/>
    <contour>
      <point x="-94" y="447" type="move" name="_top"/>
    </contour>
  </outline>
</glyph>
<glyph name="evowelsigndeva_uni0930094D_cand" format="1">
  <advance width="600"/>
  <outline>
    <contour>
      <point x="-68" y="483"/>
      <point x="-101" y="518"/>
      <point x="-101" y="550" type="curve" smooth="yes"/>
      <point x="-101" y="582"/>
      <point x="-79" y="599"/>
      <point x="-50" y="599" type="curve" smooth="yes"/>
      <point x="-41" y="599"/>
      <point x="-32" y="598"/>
      <point x="-23" y="596" type="curve"/>
      <point x="-4" y="663" type="line"/>
      <point x="-19" y="667"/>
      <point x="-36" y="669"/>
      <point x="-53" y="669" type="curve" smooth="yes"/>
      <point x="-102" y="669"/>
      <point x="-144" y="648"/>
      <point x="-162" y="605" type="curve"/>
      <point x="-199" y="643"/>
      <point x="-225" y="664"/>
      <point x="-267" y="664" type="curve" smooth="yes"/>
      <point x="-299" y="664"/>
      <point x="-337" y="644"/>
      <point x="-337" y="644" type="curve"/>
      <point x="-308" y="581" type="line"/>
      <point x="-308" y="581"/>
      <point x="-289" y="592"/>
      <point x="-267" y="592" type="curve" smooth="yes"/>
      <point x="-246" y="592"/>
      <point x="-231" y="574"/>
      <point x="-209" y="548" type="curve" smooth="yes"/>
      <point x="-121" y="437" type="line"/>
      <point x="-29" y="437" type="line"/>
    </contour>
    <contour>
      <point x="44" y="558"/>
      <point x="56" y="570"/>
      <point x="56" y="586" type="curve" smooth="yes"/>
      <point x="56" y="601"/>
      <point x="44" y="613"/>
      <point x="29" y="613" type="curve" smooth="yes"/>
      <point x="12" y="613"/>
      <point x="1" y="600"/>
      <point x="1" y="585" type="curve" smooth="yes"/>
      <point x="1" y="569"/>
      <point x="12" y="558"/>
      <point x="29" y="558" type="curve" smooth="yes"/>
    </contour>
    <contour>
      <point x="82" y="488"/>
      <point x="113" y="518"/>
      <point x="124" y="557" type="curve"/>
      <point x="84" y="574" type="line"/>
      <point x="73" y="545"/>
      <point x="56" y="531"/>
      <point x="29" y="531" type="curve" smooth="yes"/>
      <point x="3" y="531"/>
      <point x="-15" y="545"/>
      <point x="-28" y="574" type="curve"/>
      <point x="-66" y="557" type="line"/>
      <point x="-57" y="518"/>
      <point x="-24" y="488"/>
      <point x="29" y="488" type="curve" smooth="yes"/>
    </contour>
    <contour>
      <point x="-94" y="447" type="move" name="_top"/>
    </contour>
  </outline>
</glyph>
<glyph name="grave.cap" format="1">
  <advance width="261"/>
  <outline>
    <contour>
      <point x="45" y="741" type="line"/>
      <point x="5" y="653" type="line"/>
      <point x="220" y="570" type="line"/>
      <point x="256" y="639" type="line"/>
    </contour>
    <contour>
      <point x="112" y="550" type="move" name="_top.cap"/>
    </contour>
  </outline>
</glyph>
<glyph name="hungarumlaut.cap" format="1">
  <advance width="533"/>
  <outline>
    <component base="acute.cap"/>
    <component base="acute.cap" xOffset="272"/>
    <contour>
      <point x="239" y="550" type="move" name="_top.cap"/>
    </contour>
  </outline>
</glyph>
<glyph name="iiMatra_reph_anusvara-deva.alt3" format="1">
  <advance width="208"/>
  <outline>
    <contour>
      <point x="-24" y="466" type="line"/>
      <point x="-24" y="396" type="line"/>
      <point x="232" y="396" type="line"/>
      <point x="232" y="466" type="line"/>
    </contour>
    <contour>
      <point x="65" y="0" type="line"/>
      <point x="150" y="0" type="line"/>
      <point x="150" y="466" type="line"/>
      <point x="65" y="466" type="line"/>
    </contour>
    <contour>
      <point x="116" y="669"/>
      <point x="73" y="646"/>
      <point x="53" y="606" type="curve"/>
      <point x="17" y="637"/>
      <point x="-29" y="659"/>
      <point x="-82" y="659" type="curve" smooth="yes"/>
      <point x="-174" y="659"/>
      <point x="-227" y="604"/>
      <point x="-226" y="538" type="curve" smooth="yes"/>
      <point x="-225" y="475"/>
      <point x="-185" y="439"/>
      <point x="-185" y="439" type="curve"/>
      <point x="-83" y="439" type="line"/>
      <point x="-104" y="452"/>
      <point x="-147" y="484"/>
      <point x="-147" y="534" type="curve" smooth="yes"/>
      <point x="-147" y="565"/>
      <point x="-122" y="584"/>
      <point x="-82" y="584" type="curve" smooth="yes"/>
      <point x="-27" y="584"/>
      <point x="34" y="560"/>
      <point x="71" y="436" type="curve"/>
      <point x="158" y="436" type="line"/>
      <point x="139" y="473"/>
      <point x="112" y="512"/>
      <point x="112" y="550" type="curve" smooth="yes"/>
      <point x="112" y="579"/>
      <point x="134" y="597"/>
      <point x="163" y="597" type="curve" smooth="yes"/>
      <point x="195" y="597"/>
      <point x="219" y="586"/>
      <point x="236" y="577" type="curve"/>
      <point x="275" y="636" type="line"/>
      <point x="251" y="651"/>
      <point x="209" y="669"/>
      <point x="163" y="669" type="curve" smooth="yes"/>
    </contour>
    <contour>
      <point x="204" y="569"/>
      <point x="218" y="554"/>
      <point x="218" y="533" type="curve" smooth="yes"/>
      <point x="218" y="511"/>
      <point x="204" y="496"/>
      <point x="182" y="496" type="curve" smooth="yes"/>
      <point x="161" y="496"/>
      <point x="146" y="511"/>
      <point x="146" y="533" type="curve" smooth="yes"/>
      <point x="146" y="554"/>
      <point x="161" y="569"/>
      <point x="182" y="569" type="curve" smooth="yes"/>
    </contour>
  </outline>
</glyph>
<glyph name="odeva_anusvaradeva" format="1">
  <advance width="813"/>
  <outline>
    <contour>
      <point x="812" y="520"/>
      <point x="831" y="539"/>
      <point x="831" y="566" type="curve" smooth="yes"/>
      <point x="831" y="594"/>
      <point x="812" y="613"/>
      <point x="784" y="613" type="curve" smooth="yes"/>
      <point x="757" y="613"/>
      <point x="738" y="594"/>
      <point x="738" y="566" type="curve" smooth="yes"/>
      <point x="738" y="539"/>
      <point x="757" y="520"/>
      <point x="784" y="520" type="curve" smooth="yes"/>
    </contour>
    <component base="odeva"/>
  </outline>
</glyph>
<glyph name="odeva_candrabindudeva" format="1">
  <advance width="813"/>
  <outline>
    <contour>
      <point x="808" y="629"/>
      <point x="822" y="642"/>
      <point x="822" y="662" type="curve" smooth="yes"/>
      <point x="822" y="682"/>
      <point x="808" y="696"/>
      <point x="788" y="696" type="curve" smooth="yes"/>
      <point x="768" y="696"/>
      <point x="755" y="682"/>
      <point x="755" y="662" type="curve" smooth="yes"/>
      <point x="755" y="642"/>
      <point x="768" y="629"/>
      <point x="788" y="629" type="curve" smooth="yes"/>
    </contour>
    <contour>
      <point x="853" y="545"/>
      <point x="892" y="582"/>
      <point x="905" y="628" type="curve"/>
      <point x="856" y="650" type="line"/>
      <point x="842" y="614"/>
      <point x="821" y="597"/>
      <point x="789" y="597" type="curve" smooth="yes"/>
      <point x="757" y="597"/>
      <point x="736" y="614"/>
      <point x="721" y="650" type="curve"/>
      <point x="673" y="628" type="line"/>
      <point x="685" y="582"/>
      <point x="725" y="545"/>
      <point x="789" y="545" type="curve" smooth="yes"/>
    </contour>
    <component base="odeva"/>
  </outline>
</glyph>
<glyph name="ring.cap" format="1">
  <advance width="211"/>
  <outline>
    <contour>
      <point x="83" y="722"/>
      <point x="67" y="703"/>
      <point x="67" y="682" type="curve" smooth="yes"/>
      <point x="67" y="661"/>
      <point x="82" y="642"/>
      <point x="106" y="642" type="curve" smooth="yes"/>
      <point x="127" y="642"/>
      <point x="144" y="661"/>
      <point x="144" y="682" type="curve" smooth="yes"/>
      <point x="144" y="703"/>
      <point x="127" y="722"/>
      <point x="106" y="722" type="curve" smooth="yes"/>
    </contour>
    <contour>
      <point x="206" y="627"/>
      <point x="163" y="579"/>
      <point x="106" y="579" type="curve" smooth="yes"/>
      <point x="49" y="579"/>
      <point x="5" y="627"/>
      <point x="5" y="682" type="curve" smooth="yes"/>
      <point x="5" y="740"/>
      <point x="49" y="784"/>
      <point x="106" y="784" type="curve" smooth="yes"/>
      <point x="163" y="784"/>
      <point x="206" y="740"/>
      <point x="206" y="682" type="curve" smooth="yes"/>
    </contour>
    <contour>
      <point x="106" y="550" type="move" name="_top.cap"/>
    </contour>
  </outline>
</glyph>
<glyph name="uni0915094D0937094D_nnadeva" format="1">
  <advance width="914"/>
  <outline>
    <contour>
      <point x="764" y="0" type="line"/>
      <point x="849" y="0" type="line"/>
      <point x="849" y="466" type="line"/>
      <point x="764" y="466" type="line"/>
    </contour>
    <contour>
      <point x="344" y="466" type="line"/>
      <point x="344" y="396" type="line"/>
      <point x="938" y="396" type="line"/>
      <point x="938" y="466" type="line"/>
    </contour>
    <contour>
      <point x="626" y="78"/>
      <point x="678" y="131"/>
      <point x="678" y="227" type="curve" smooth="yes"/>
      <point x="678" y="436" type="line"/>
      <point x="589" y="436" type="line"/>
      <point x="589" y="260" type="line" smooth="yes"/>
      <point x="589" y="196"/>
      <point x="587" y="161"/>
      <point x="538" y="161" type="curve" smooth="yes"/>
      <point x="489" y="161"/>
      <point x="487" y="196"/>
      <point x="487" y="260" type="curve" smooth="yes"/>
      <point x="487" y="436" type="line"/>
      <point x="398" y="436" type="line"/>
      <point x="398" y="227" type="line" smooth="yes"/>
      <point x="398" y="130"/>
      <point x="446" y="78"/>
      <point x="539" y="78" type="curve" smooth="yes"/>
    </contour>
    <component base="uni0915094D0937094D"/>
    <contour>
      <point x="806" y="447" type="move" name="top"/>
    </contour>
    <contour>
      <point x="806" y="5" type="move" name="bottom"/>
    </contour>
  </outline>
</glyph>
<glyph name="uni0915094D_shadeva" format="1">
  <advance width="1032"/>
  <outline>
    <contour>
      <point x="-24" y="466" type="line"/>
      <point x="-24" y="396" type="line"/>
      <point x="494" y="396" type="line"/>
      <point x="494" y="466" type="line"/>
    </contour>
    <contour>
      <point x="276" y="0" type="line"/>
      <point x="358" y="0" type="line"/>
      <point x="358" y="466" type="line"/>
      <point x="276" y="466" type="line"/>
    </contour>
    <contour>
      <point x="121" y="245"/>
      <point x="160" y="265"/>
      <point x="206" y="265" type="curve" smooth="yes"/>
      <point x="258" y="265"/>
      <point x="284" y="240"/>
      <point x="300" y="223" type="curve"/>
      <point x="316" y="299" type="line"/>
      <point x="289" y="315"/>
      <point x="256" y="340"/>
      <point x="192" y="340" type="curve" smooth="yes"/>
      <point x="109" y="340"/>
      <point x="42" y="290"/>
      <point x="42" y="197" type="curve" smooth="yes"/>
      <point x="42" y="108"/>
      <point x="109" y="55"/>
      <point x="192" y="55" type="curve" smooth="yes"/>
      <point x="254" y="55"/>
      <point x="289" y="77"/>
      <point x="316" y="95" type="curve"/>
      <point x="300" y="170" type="line"/>
      <point x="284" y="158"/>
      <point x="258" y="129"/>
      <point x="206" y="129" type="curve" smooth="yes"/>
      <point x="160" y="129"/>
      <point x="121" y="149"/>
      <point x="121" y="197" type="curve" smooth="yes"/>
    </contour>
    <contour>
      <point x="775" y="426"/>
      <point x="718" y="479"/>
      <point x="644" y="479" type="curve" smooth="yes"/>
      <point x="585" y="479"/>
      <point x="530" y="443"/>
      <point x="530" y="373" type="curve" smooth="yes"/>
      <point x="530" y="323"/>
      <point x="558" y="291"/>
      <point x="607" y="262" type="curve"/>
      <point x="647" y="322" type="line"/>
      <point x="623" y="340"/>
      <point x="610" y="351"/>
      <point x="610" y="372" type="curve" smooth="yes"/>
      <point x="610" y="392"/>
      <point x="623" y="403"/>
      <point x="644" y="403" type="curve" smooth="yes"/>
      <point x="670" y="403"/>
      <point x="692" y="379"/>
      <point x="694" y="348" type="curve" smooth="yes"/>
      <point x="700" y="253"/>
      <point x="602" y="200"/>
      <point x="567" y="181" type="curve"/>
      <point x="622" y="118" type="line"/>
      <point x="685" y="159"/>
      <point x="775" y="225"/>
      <point x="775" y="338" type="curve" smooth="yes"/>
    </contour>
    <contour>
      <point x="500" y="155"/>
      <point x="524" y="123"/>
      <point x="582" y="117" type="curve"/>
      <point x="705" y="-23" type="line"/>
      <point x="705" y="-23"/>
      <point x="762" y="32"/>
      <point x="762" y="32" type="curve"/>
      <point x="556" y="250" type="line"/>
      <point x="523" y="245"/>
      <point x="500" y="221"/>
      <point x="500" y="191" type="curve" smooth="yes"/>
    </contour>
    <contour>
      <point x="809" y="466" type="line"/>
      <point x="809" y="396" type="line"/>
      <point x="1056" y="396" type="line"/>
      <point x="1056" y="466" type="line"/>
    </contour>
    <contour>
      <point x="882" y="0" type="line"/>
      <point x="967" y="0" type="line"/>
      <point x="967" y="466" type="line"/>
      <point x="882" y="466" type="line"/>
    </contour>
    <contour>
      <point x="572" y="233" type="line"/>
      <point x="520" y="291"/>
      <point x="475" y="317"/>
      <point x="420" y="317" type="curve" smooth="yes"/>
      <point x="380" y="317"/>
      <point x="340" y="305"/>
      <point x="287" y="284" type="curve"/>
      <point x="301" y="208" type="line"/>
      <point x="347" y="231"/>
      <point x="384" y="245"/>
      <point x="417" y="245" type="curve" smooth="yes"/>
      <point x="456" y="245"/>
      <point x="483" y="224"/>
      <point x="515" y="182" type="curve"/>
    </contour>
    <contour>
      <point x="925" y="447" type="move" name="top"/>
    </contour>
    <contour>
      <point x="925" y="5" type="move" name="bottom"/>
    </contour>
  </outline>
</glyph>
<glyph name="uni0915094D_ssadeva.alt" format="1">
  <advance width="532"/>
  <outline>
    <contour>
      <point x="556" y="396" type="line"/>
      <point x="341" y="396" type="line"/>
      <point x="341" y="466" type="line"/>
      <point x="556" y="466" type="line"/>
    </contour>
    <contour>
      <point x="251" y="189"/>
      <point x="216" y="206"/>
      <point x="170" y="230" type="curve" smooth="yes"/>
      <point x="162" y="235"/>
      <point x="152" y="242"/>
      <point x="144" y="248" type="curve" smooth="yes"/>
      <point x="103" y="278"/>
      <point x="61" y="313"/>
      <point x="61" y="368" type="curve"/>
      <point x="61" y="436"/>
      <point x="117" y="473"/>
      <point x="185" y="473" type="curve" smooth="yes"/>
      <point x="255" y="473"/>
      <point x="308" y="436"/>
      <point x="308" y="368" type="curve" smooth="yes"/>
      <point x="308" y="315"/>
      <point x="278" y="291"/>
      <point x="240" y="261" type="curve" smooth="yes"/>
      <point x="238" y="259"/>
      <point x="220" y="241"/>
      <point x="217" y="239" type="curve" smooth="yes"/>
      <point x="179" y="211"/>
      <point x="121" y="193"/>
      <point x="121" y="141" type="curve"/>
      <point x="121" y="107"/>
      <point x="140" y="88"/>
      <point x="170" y="88" type="curve"/>
      <point x="202" y="88"/>
      <point x="224" y="100"/>
      <point x="244" y="138" type="curve"/>
      <point x="280" y="70" type="line"/>
      <point x="255" y="32"/>
      <point x="202" y="14"/>
      <point x="156" y="14" type="curve"/>
      <point x="85" y="14"/>
      <point x="36" y="62"/>
      <point x="36" y="135" type="curve"/>
      <point x="36" y="208"/>
      <point x="87" y="244"/>
      <point x="157" y="287" type="curve" smooth="yes"/>
      <point x="165" y="292"/>
      <point x="173" y="290"/>
      <point x="179" y="295" type="curve" smooth="yes"/>
      <point x="199" y="310"/>
      <point x="227" y="327"/>
      <point x="227" y="362" type="curve"/>
      <point x="225" y="388"/>
      <point x="207" y="399"/>
      <point x="186" y="399" type="curve" smooth="yes"/>
      <point x="162" y="399"/>
      <point x="144" y="387"/>
      <point x="144" y="362" type="curve" smooth="yes"/>
      <point x="144" y="298"/>
      <point x="235" y="255"/>
      <point x="300" y="255" type="curve" smooth="yes"/>
      <point x="377" y="255"/>
      <point x="415" y="311"/>
      <point x="415" y="311" type="curve"/>
      <point x="415" y="214" type="line"/>
      <point x="415" y="214"/>
      <point x="359" y="189"/>
      <point x="301" y="189" type="curve" smooth="yes"/>
    </contour>
    <contour>
      <point x="470" y="466" type="line"/>
      <point x="470" y="0" type="line"/>
      <point x="385" y="0" type="line"/>
      <point x="385" y="466" type="line"/>
    </contour>
    <contour>
      <point x="187" y="138" type="line"/>
      <point x="187" y="138"/>
      <point x="216" y="164"/>
      <point x="251" y="164" type="curve" smooth="yes"/>
      <point x="285" y="164"/>
      <point x="302" y="141"/>
      <point x="302" y="114" type="curve" smooth="yes"/>
      <point x="302" y="82"/>
      <point x="270" y="52"/>
      <point x="255" y="51" type="curve" smooth="yes"/>
      <point x="242" y="50"/>
      <point x="220" y="52"/>
      <point x="211" y="57" type="curve"/>
    </contour>
    <contour>
      <point x="314" y="-5" type="line"/>
      <point x="235" y="-33" type="line"/>
      <point x="235" y="-33"/>
      <point x="208" y="64"/>
      <point x="208" y="64" type="curve"/>
      <point x="259" y="93" type="line"/>
    </contour>
    <contour>
      <point x="428" y="447" type="move" name="top"/>
    </contour>
    <contour>
      <point x="428" y="5" type="move" name="bottom"/>
    </contour>
  </outline>
</glyph>
<glyph name="uni0915094D_thadeva" format="1">
  <advance width="970"/>
  <outline>
    <contour>
      <point x="572" y="233" type="line"/>
      <point x="523" y="291"/>
      <point x="475" y="317"/>
      <point x="420" y="317" type="curve" smooth="yes"/>
      <point x="380" y="317"/>
      <point x="340" y="305"/>
      <point x="287" y="284" type="curve"/>
      <point x="301" y="208" type="line"/>
      <point x="347" y="231"/>
      <point x="384" y="245"/>
      <point x="417" y="245" type="curve" smooth="yes"/>
      <point x="456" y="245"/>
      <point x="483" y="224"/>
      <point x="515" y="182" type="curve"/>
    </contour>
    <contour>
      <point x="-24" y="466" type="line"/>
      <point x="-24" y="396" type="line"/>
      <point x="503" y="396" type="line"/>
      <point x="503" y="466" type="line"/>
    </contour>
    <contour>
      <point x="276" y="0" type="line"/>
      <point x="358" y="0" type="line"/>
      <point x="358" y="466" type="line"/>
      <point x="276" y="466" type="line"/>
    </contour>
    <contour>
      <point x="121" y="245"/>
      <point x="160" y="265"/>
      <point x="206" y="265" type="curve" smooth="yes"/>
      <point x="258" y="265"/>
      <point x="284" y="240"/>
      <point x="300" y="223" type="curve"/>
      <point x="316" y="299" type="line"/>
      <point x="289" y="315"/>
      <point x="256" y="340"/>
      <point x="192" y="340" type="curve" smooth="yes"/>
      <point x="109" y="340"/>
      <point x="42" y="290"/>
      <point x="42" y="197" type="curve" smooth="yes"/>
      <point x="42" y="108"/>
      <point x="109" y="55"/>
      <point x="192" y="55" type="curve" smooth="yes"/>
      <point x="254" y="55"/>
      <point x="289" y="77"/>
      <point x="316" y="95" type="curve"/>
      <point x="300" y="170" type="line"/>
      <point x="284" y="158"/>
      <point x="258" y="129"/>
      <point x="206" y="129" type="curve" smooth="yes"/>
      <point x="160" y="129"/>
      <point x="121" y="149"/>
      <point x="121" y="197" type="curve" smooth="yes"/>
    </contour>
    <contour>
      <point x="643" y="405"/>
      <point x="656" y="377"/>
      <point x="656" y="350" type="curve" smooth="yes"/>
      <point x="656" y="280"/>
      <point x="584" y="247"/>
      <point x="528" y="217" type="curve"/>
      <point x="515" y="182" type="line"/>
      <point x="542" y="136"/>
      <point x="617" y="74"/>
      <point x="708" y="74" type="curve" smooth="yes"/>
      <point x="780" y="74"/>
      <point x="833" y="116"/>
      <point x="833" y="116" type="curve"/>
      <point x="833" y="224" type="line"/>
      <point x="807" y="179"/>
      <point x="754" y="156"/>
      <point x="703" y="156" type="curve" smooth="yes"/>
      <point x="671" y="156"/>
      <point x="645" y="167"/>
      <point x="626" y="181" type="curve"/>
      <point x="688" y="228"/>
      <point x="736" y="269"/>
      <point x="736" y="346" type="curve" smooth="yes"/>
      <point x="736" y="410"/>
      <point x="696" y="478"/>
      <point x="617" y="478" type="curve"/>
      <point x="550" y="478"/>
      <point x="509" y="434"/>
      <point x="509" y="379" type="curve"/>
      <point x="509" y="327"/>
      <point x="542" y="301"/>
      <point x="573" y="284" type="curve"/>
      <point x="613" y="341" type="line"/>
      <point x="600" y="350"/>
      <point x="585" y="361"/>
      <point x="585" y="379" type="curve"/>
      <point x="585" y="392"/>
      <point x="592" y="405"/>
      <point x="615" y="405" type="curve"/>
    </contour>
    <contour>
      <point x="774" y="466" type="line"/>
      <point x="774" y="396" type="line"/>
      <point x="994" y="396" type="line"/>
      <point x="994" y="466" type="line"/>
    </contour>
    <contour>
      <point x="820" y="0" type="line"/>
      <point x="905" y="0" type="line"/>
      <point x="905" y="466" type="line"/>
      <point x="820" y="466" type="line"/>
    </contour>
    <contour>
      <point x="862" y="447" type="move" name="top"/>
    </contour>
    <contour>
      <point x="862" y="5" type="move" name="bottom"/>
    </contour>
  </outline>
</glyph>
<glyph name="uni0917094D" format="1">
  <advance width="237"/>
  <outline>
    <contour>
      <point x="-24" y="466" type="line"/>
      <point x="-24" y="396" type="line"/>
      <point x="261" y="396" type="line"/>
      <point x="261" y="466" type="line"/>
    </contour>
    <contour>
      <point x="28" y="240" type="line"/>
      <point x="28" y="198" type="line"/>
      <point x="118" y="75" type="line"/>
      <point x="118" y="75"/>
      <point x="175" y="75"/>
      <point x="175" y="75" type="curve"/>
      <point x="175" y="240" type="line"/>
    </contour>
    <contour>
      <point x="90" y="180" type="line"/>
      <point x="175" y="180" type="line"/>
      <point x="175" y="466" type="line"/>
      <point x="90" y="466" type="line"/>
    </contour>
  </outline>
</glyph>
<glyph name="uni0917094D0930094D" format="1">
  <advance width="237"/>
  <outline>
    <contour>
      <point x="-24" y="466" type="line"/>
      <point x="-24" y="396" type="line"/>
      <point x="261" y="396" type="line"/>
      <point x="261" y="466" type="line"/>
    </contour>
    <contour>
      <point x="28" y="285" type="line"/>
      <point x="28" y="243" type="line"/>
      <point x="118" y="130" type="line"/>
      <point x="118" y="130"/>
      <point x="175" y="130"/>
      <point x="175" y="130" type="curve"/>
      <point x="175" y="285" type="line"/>
    </contour>
    <contour>
      <point x="90" y="225" type="line"/>
      <point x="175" y="225" type="line"/>
      <point x="175" y="466" type="line"/>
      <point x="90" y="466" type="line"/>
    </contour>
    <contour>
      <point x="120" y="-18" type="line"/>
      <point x="350" y="116" type="line"/>
      <point x="313" y="175" type="line"/>
      <point x="75" y="44" type="line"/>
    </contour>
  </outline>
</glyph>
<glyph name="uni0917094D_nadeva" format="1">
  <advance width="458"/>
  <outline>
    <contour>
      <point x="-24" y="466" type="line"/>
      <point x="-24" y="396" type="line"/>
      <point x="482" y="396" type="line"/>
      <point x="482" y="466" type="line"/>
    </contour>
    <contour>
      <point x="308" y="0" type="line"/>
      <point x="393" y="0" type="line"/>
      <point x="393" y="466" type="line"/>
      <point x="308" y="466" type="line"/>
    </contour>
    <contour>
      <point x="28" y="289" type="line"/>
      <point x="28" y="247" type="line"/>
      <point x="118" y="134" type="line"/>
      <point x="118" y="134"/>
      <point x="175" y="134"/>
      <point x="175" y="134" type="curve"/>
      <point x="175" y="289" type="line"/>
    </contour>
    <contour>
      <point x="90" y="229" type="line"/>
      <point x="175" y="229" type="line"/>
      <point x="175" y="466" type="line"/>
      <point x="90" y="466" type="line"/>
    </contour>
    <contour>
      <point x="151" y="10" type="line"/>
      <point x="328" y="114" type="line"/>
      <point x="328" y="194" type="line"/>
      <point x="73" y="50" type="line"/>
    </contour>
    <contour>
      <point x="73" y="50" type="line"/>
      <point x="80" y="17" type="line"/>
      <point x="190" y="-65" type="line"/>
      <point x="231" y="-39" type="line"/>
      <point x="161" y="93" type="line"/>
    </contour>
    <contour>
      <point x="352" y="447" type="move" name="top"/>
    </contour>
    <contour>
      <point x="352" y="-45" type="move" name="bottom"/>
    </contour>
  </outline>
</glyph>
<glyph name="uni0918094D_nadeva" format="1">
  <advance width="487"/>
  <outline>
    <contour>
      <point x="100" y="-27" type="line"/>
      <point x="356" y="101" type="line"/>
      <point x="337" y="142" type="line"/>
      <point x="48" y="32" type="line"/>
    </contour>
    <contour>
      <point x="220" y="277" type="line"/>
      <point x="220" y="277"/>
      <point x="121" y="284"/>
      <point x="121" y="354" type="curve" smooth="yes"/>
      <point x="121" y="426"/>
      <point x="200" y="456"/>
      <point x="200" y="456" type="curve" smooth="yes"/>
      <point x="97" y="456" type="line" smooth="yes"/>
      <point x="97" y="456"/>
      <point x="37" y="422"/>
      <point x="37" y="354" type="curve" smooth="yes"/>
      <point x="37" y="279"/>
      <point x="100" y="249"/>
      <point x="116" y="237" type="curve"/>
    </contour>
    <contour>
      <point x="114" y="294"/>
      <point x="61" y="255"/>
      <point x="61" y="191" type="curve" smooth="yes"/>
      <point x="61" y="109"/>
      <point x="128" y="66"/>
      <point x="224" y="66" type="curve" smooth="yes"/>
      <point x="309" y="66"/>
      <point x="364" y="112"/>
      <point x="364" y="113" type="curve"/>
      <point x="364" y="196" type="line"/>
      <point x="364" y="196"/>
      <point x="311" y="134"/>
      <point x="221" y="134" type="curve" smooth="yes"/>
      <point x="183" y="134"/>
      <point x="146" y="148"/>
      <point x="146" y="184" type="curve" smooth="yes"/>
      <point x="146" y="210"/>
      <point x="181" y="229"/>
      <point x="248" y="237" type="curve"/>
      <point x="228" y="310" type="line"/>
    </contour>
    <contour>
      <point x="-24" y="466" type="line"/>
      <point x="-24" y="396" type="line"/>
      <point x="511" y="396" type="line"/>
      <point x="511" y="466" type="line"/>
    </contour>
    <contour>
      <point x="337" y="0" type="line"/>
      <point x="422" y="0" type="line"/>
      <point x="422" y="466" type="line"/>
      <point x="337" y="466" type="line"/>
    </contour>
    <contour>
      <point x="47" y="32" type="line"/>
      <point x="56" y="-3" type="line"/>
      <point x="160" y="-83" type="line"/>
      <point x="160" y="-83"/>
      <point x="200" y="-66"/>
      <point x="200" y="-66" type="curve"/>
      <point x="134" y="59" type="line"/>
    </contour>
    <contour>
      <point x="381" y="447" type="move" name="top"/>
    </contour>
    <contour>
      <point x="382" y="-45" type="move" name="bottom"/>
    </contour>
  </outline>
</glyph>
<glyph name="uni0919094D" format="1">
  <advance width="503"/>
  <outline>
    <contour>
      <point x="290" y="-42"/>
      <point x="356" y="-111"/>
      <point x="396" y="-161" type="curve"/>
      <point x="396" y="-161"/>
      <point x="339" y="-209"/>
      <point x="339" y="-209" type="curve"/>
      <point x="278" y="-134"/>
      <point x="224" y="-117"/>
      <point x="145" y="-117" type="curve"/>
      <point x="145" y="-42" type="line"/>
    </contour>
    <component base="ngadeva"/>
  </outline>
</glyph>
<glyph name="uni091B094D_radeva" format="1">
  <advance width="568"/>
  <outline>
    <component base="chadeva"/>
    <component base="rashtra-deva" xOffset="134" yOffset="-20"/>
    <contour>
      <point x="423" y="447" type="move" name="top"/>
    </contour>
    <contour>
      <point x="285" y="-209" type="move" name="bottom"/>
    </contour>
  </outline>
</glyph>
<glyph name="uni091C094D091C094D092F" format="1">
  <advance width="1076"/>
  <outline>
    <contour>
      <point x="-24" y="466" type="line"/>
      <point x="-24" y="396" type="line"/>
      <point x="637" y="396" type="line"/>
      <point x="637" y="466" type="line"/>
    </contour>
    <contour>
      <point x="349" y="180"/>
      <point x="340" y="225"/>
      <point x="292" y="259" type="curve" smooth="yes"/>
      <point x="281" y="267"/>
      <point x="261" y="278"/>
      <point x="248" y="286" type="curve"/>
      <point x="205" y="286" type="line"/>
      <point x="205" y="220" type="line"/>
      <point x="256" y="220"/>
      <point x="269" y="191"/>
      <point x="269" y="158" type="curve" smooth="yes"/>
      <point x="269" y="124"/>
      <point x="245" y="101"/>
      <point x="209" y="101" type="curve" smooth="yes"/>
      <point x="157" y="101"/>
      <point x="125" y="147"/>
      <point x="90" y="248" type="curve"/>
      <point x="19" y="219" type="line"/>
      <point x="56" y="98"/>
      <point x="116" y="21"/>
      <point x="211" y="21" type="curve" smooth="yes"/>
      <point x="288" y="21"/>
      <point x="349" y="68"/>
      <point x="349" y="150" type="curve" smooth="yes"/>
    </contour>
    <contour>
      <point x="581" y="180"/>
      <point x="572" y="225"/>
      <point x="524" y="259" type="curve" smooth="yes"/>
      <point x="513" y="267"/>
      <point x="493" y="278"/>
      <point x="480" y="286" type="curve"/>
      <point x="437" y="286" type="line"/>
      <point x="437" y="220" type="line"/>
      <point x="488" y="220"/>
      <point x="501" y="191"/>
      <point x="501" y="158" type="curve" smooth="yes"/>
      <point x="501" y="124"/>
      <point x="477" y="101"/>
      <point x="441" y="101" type="curve" smooth="yes"/>
      <point x="389" y="101"/>
      <point x="357" y="147"/>
      <point x="322" y="248" type="curve"/>
      <point x="277" y="150" type="line"/>
      <point x="314" y="69"/>
      <point x="368" y="21"/>
      <point x="443" y="21" type="curve" smooth="yes"/>
      <point x="520" y="21"/>
      <point x="581" y="68"/>
      <point x="581" y="150" type="curve" smooth="yes"/>
    </contour>
    <contour>
      <point x="938" y="179"/>
      <point x="885" y="156"/>
      <point x="834" y="156" type="curve" smooth="yes"/>
      <point x="800" y="156"/>
      <point x="773" y="169"/>
      <point x="754" y="184" type="curve"/>
      <point x="796" y="225"/>
      <point x="818" y="253"/>
      <point x="818" y="306" type="curve" smooth="yes"/>
      <point x="818" y="356"/>
      <point x="784" y="414"/>
      <point x="730" y="456" type="curve"/>
      <point x="632" y="456" type="line"/>
      <point x="692" y="414"/>
      <point x="736" y="356"/>
      <point x="732" y="307" type="curve" smooth="yes"/>
      <point x="728" y="258"/>
      <point x="691" y="234"/>
      <point x="659" y="217" type="curve"/>
      <point x="646" y="185" type="line"/>
      <point x="673" y="131"/>
      <point x="748" y="76"/>
      <point x="839" y="76" type="curve" smooth="yes"/>
      <point x="911" y="76"/>
      <point x="964" y="118"/>
      <point x="964" y="118" type="curve"/>
      <point x="964" y="224" type="line"/>
    </contour>
    <contour>
      <point x="588" y="466" type="line"/>
      <point x="588" y="396" type="line"/>
      <point x="1100" y="396" type="line"/>
      <point x="1100" y="466" type="line"/>
    </contour>
    <contour>
      <point x="926" y="0" type="line"/>
      <point x="1011" y="0" type="line"/>
      <point x="1011" y="466" type="line"/>
      <point x="926" y="466" type="line"/>
    </contour>
    <contour>
      <point x="694" y="277"/>
      <point x="660" y="286"/>
      <point x="588" y="286" type="curve"/>
      <point x="238" y="286" type="line"/>
      <point x="234" y="217" type="line"/>
      <point x="744" y="217" type="line"/>
      <point x="744" y="266" type="line"/>
    </contour>
    <contour>
      <point x="968" y="447" type="move" name="top"/>
    </contour>
    <contour>
      <point x="968" y="5" type="move" name="bottom"/>
    </contour>
  </outline>
</glyph>
<glyph name="uni091C094D_radeva" format="1">
  <advance width="597"/>
  <outline>
    <contour>
      <point x="-24" y="466" type="line"/>
      <point x="-24" y="396" type="line"/>
      <point x="621" y="396" type="line"/>
      <point x="621" y="466" type="line"/>
    </contour>
    <contour>
      <point x="447" y="0" type="line"/>
      <point x="532" y="0" type="line"/>
      <point x="532" y="466" type="line"/>
      <point x="447" y="466" type="line"/>
    </contour>
    <contour>
      <point x="238" y="322" type="line"/>
      <point x="234" y="253" type="line"/>
      <point x="482" y="253" type="line"/>
      <point x="482" y="322" type="line"/>
    </contour>
    <contour>
      <point x="349" y="216"/>
      <point x="340" y="261"/>
      <point x="292" y="295" type="curve" smooth="yes"/>
      <point x="281" y="303"/>
      <point x="261" y="314"/>
      <point x="248" y="322" type="curve"/>
      <point x="205" y="322" type="line"/>
      <point x="205" y="256" type="line"/>
      <point x="256" y="256"/>
      <point x="269" y="227"/>
      <point x="269" y="194" type="curve" smooth="yes"/>
      <point x="269" y="160"/>
      <point x="247" y="137"/>
      <point x="211" y="137" type="curve" smooth="yes"/>
      <point x="159" y="137"/>
      <point x="125" y="183"/>
      <point x="90" y="284" type="curve"/>
      <point x="20" y="256" type="line"/>
      <point x="57" y="135"/>
      <point x="116" y="58"/>
      <point x="211" y="58" type="curve" smooth="yes"/>
      <point x="288" y="58"/>
      <point x="349" y="104"/>
      <point x="349" y="186" type="curve" smooth="yes"/>
    </contour>
    <contour>
      <point x="320" y="-38" type="line"/>
      <point x="488" y="124" type="line" smooth="yes"/>
      <point x="469" y="185" type="line"/>
      <point x="259" y="11" type="line"/>
    </contour>
    <contour>
      <point x="490" y="447" type="move" name="top"/>
    </contour>
    <contour>
      <point x="490" y="5" type="move" name="bottom"/>
    </contour>
  </outline>
</glyph>
<glyph name="uni0920094D" format="1">
  <advance width="458"/>
  <outline>
    <contour>
      <point x="280" y="-42"/>
      <point x="346" y="-111"/>
      <point x="386" y="-161" type="curve"/>
      <point x="386" y="-161"/>
      <point x="329" y="-209"/>
      <point x="329" y="-209" type="curve"/>
      <point x="268" y="-134"/>
      <point x="214" y="-117"/>
      <point x="135" y="-117" type="curve"/>
      <point x="135" y="-42" type="line"/>
    </contour>
    <component base="tthadeva"/>
  </outline>
</glyph>
<glyph name="uni0920094D_radeva" format="1">
  <advance width="458"/>
  <outline>
    <component base="tthadeva"/>
    <component base="rashtra-deva" xOffset="86" yOffset="-10"/>
    <contour>
      <point x="293" y="447" type="move" name="top"/>
    </contour>
    <contour>
      <point x="238" y="-193" type="move" name="bottom"/>
    </contour>
  </outline>
</glyph>
<glyph name="uni0921094D092F" format="1">
  <advance width="901"/>
  <outline>
    <contour>
      <point x="443" y="466" type="line"/>
      <point x="443" y="396" type="line"/>
      <point x="925" y="396" type="line"/>
      <point x="925" y="466" type="line"/>
    </contour>
    <contour>
      <point x="296" y="154"/>
      <point x="308" y="133"/>
      <point x="308" y="116" type="curve" smooth="yes"/>
      <point x="308" y="93"/>
      <point x="284" y="75"/>
      <point x="240" y="75" type="curve" smooth="yes"/>
      <point x="176" y="75"/>
      <point x="134" y="94"/>
      <point x="86" y="141" type="curve"/>
      <point x="34" y="85" type="line"/>
      <point x="84" y="36"/>
      <point x="145" y="-3"/>
      <point x="233" y="-3" type="curve" smooth="yes"/>
      <point x="329" y="-3"/>
      <point x="389" y="46"/>
      <point x="389" y="120" type="curve" smooth="yes"/>
      <point x="389" y="189"/>
      <point x="336" y="230"/>
      <point x="243" y="225" type="curve" smooth="yes"/>
      <point x="192" y="222"/>
      <point x="156" y="226"/>
      <point x="156" y="254" type="curve" smooth="yes"/>
      <point x="156" y="272"/>
      <point x="172" y="279"/>
      <point x="222" y="279" type="curve"/>
      <point x="356" y="279" type="line"/>
      <point x="356" y="456" type="line"/>
      <point x="280" y="456" type="line"/>
      <point x="280" y="348" type="line"/>
      <point x="259" y="350"/>
      <point x="247" y="351"/>
      <point x="214" y="351" type="curve" smooth="yes"/>
      <point x="137" y="351"/>
      <point x="76" y="322"/>
      <point x="76" y="250" type="curve" smooth="yes"/>
      <point x="76" y="172"/>
      <point x="148" y="144"/>
      <point x="236" y="150" type="curve" smooth="yes"/>
    </contour>
    <contour>
      <point x="-24" y="466" type="line"/>
      <point x="-24" y="396" type="line"/>
      <point x="457" y="396" type="line"/>
      <point x="457" y="466" type="line"/>
    </contour>
    <contour>
      <point x="763" y="147"/>
      <point x="710" y="124"/>
      <point x="659" y="124" type="curve" smooth="yes"/>
      <point x="627" y="124"/>
      <point x="606" y="135"/>
      <point x="587" y="149" type="curve"/>
      <point x="617" y="167"/>
      <point x="641" y="198"/>
      <point x="641" y="239" type="curve"/>
      <point x="641" y="310"/>
      <point x="572" y="349"/>
      <point x="465" y="349" type="curve"/>
      <point x="308" y="349" type="line"/>
      <point x="292" y="279" type="line"/>
      <point x="477" y="279" type="line"/>
      <point x="532" y="279"/>
      <point x="557" y="266"/>
      <point x="557" y="237" type="curve" smooth="yes"/>
      <point x="557" y="208"/>
      <point x="525" y="198"/>
      <point x="484" y="187" type="curve"/>
      <point x="471" y="155" type="line"/>
      <point x="498" y="101"/>
      <point x="573" y="46"/>
      <point x="664" y="46" type="curve" smooth="yes"/>
      <point x="735" y="46"/>
      <point x="789" y="88"/>
      <point x="789" y="88" type="curve"/>
      <point x="789" y="192" type="line"/>
    </contour>
    <contour>
      <point x="751" y="0" type="line"/>
      <point x="836" y="0" type="line"/>
      <point x="836" y="466" type="line"/>
      <point x="751" y="466" type="line"/>
    </contour>
    <contour>
      <point x="794" y="447" type="move" name="top"/>
    </contour>
    <contour>
      <point x="794" y="5" type="move" name="bottom"/>
    </contour>
  </outline>
</glyph>
<glyph name="uni0923094D_radeva" format="1">
  <advance width="576"/>
  <outline>
    <contour>
      <point x="426" y="0" type="line"/>
      <point x="511" y="0" type="line"/>
      <point x="511" y="466" type="line"/>
      <point x="426" y="466" type="line"/>
    </contour>
    <contour>
      <point x="-24" y="466" type="line"/>
      <point x="-24" y="396" type="line"/>
      <point x="600" y="396" type="line"/>
      <point x="600" y="466" type="line"/>
    </contour>
    <contour>
      <point x="288" y="118"/>
      <point x="340" y="171"/>
      <point x="340" y="267" type="curve" smooth="yes"/>
      <point x="340" y="436" type="line"/>
      <point x="251" y="436" type="line"/>
      <point x="251" y="300" type="line" smooth="yes"/>
      <point x="251" y="236"/>
      <point x="249" y="201"/>
      <point x="200" y="201" type="curve" smooth="yes"/>
      <point x="151" y="201"/>
      <point x="149" y="236"/>
      <point x="149" y="300" type="curve" smooth="yes"/>
      <point x="149" y="436" type="line"/>
      <point x="60" y="436" type="line"/>
      <point x="60" y="267" type="line" smooth="yes"/>
      <point x="60" y="170"/>
      <point x="108" y="118"/>
      <point x="201" y="118" type="curve" smooth="yes"/>
    </contour>
    <contour>
      <point x="266" y="-18" type="line"/>
      <point x="454" y="134" type="line"/>
      <point x="454" y="214" type="line"/>
      <point x="198" y="27" type="line"/>
    </contour>
    <contour>
      <point x="469" y="447" type="move" name="top"/>
    </contour>
    <contour>
      <point x="469" y="5" type="move" name="bottom"/>
    </contour>
  </outline>
</glyph>
<glyph name="uni0924094D_radeva" format="1">
  <advance width="453"/>
  <outline>
    <contour>
      <point x="-24" y="466" type="line"/>
      <point x="-24" y="396" type="line"/>
      <point x="477" y="396" type="line"/>
      <point x="477" y="466" type="line"/>
    </contour>
    <contour>
      <point x="305" y="0" type="line"/>
      <point x="390" y="0" type="line"/>
      <point x="390" y="466" type="line"/>
      <point x="305" y="466" type="line"/>
    </contour>
    <contour>
      <point x="83" y="61"/>
      <point x="142" y="-2"/>
      <point x="142" y="-2" type="curve" smooth="yes"/>
      <point x="142" y="-2"/>
      <point x="351" y="182"/>
      <point x="351" y="182" type="curve"/>
      <point x="297" y="239" type="line"/>
      <point x="83" y="61" type="line"/>
    </contour>
    <contour>
      <point x="304" y="309"/>
      <point x="249" y="343"/>
      <point x="197" y="343" type="curve"/>
      <point x="117" y="343"/>
      <point x="68" y="294"/>
      <point x="23" y="247" type="curve"/>
      <point x="84" y="190" type="line"/>
      <point x="119" y="224"/>
      <point x="150" y="262"/>
      <point x="196" y="260" type="curve"/>
      <point x="239" y="260"/>
      <point x="269" y="236"/>
      <point x="300" y="198" type="curve" smooth="yes"/>
      <point x="311" y="184"/>
      <point x="328" y="176"/>
      <point x="338" y="163" type="curve"/>
      <point x="356" y="249" type="line"/>
    </contour>
    <contour>
      <point x="347" y="447" type="move" name="top"/>
    </contour>
    <contour>
      <point x="347" y="5" type="move" name="bottom"/>
    </contour>
  </outline>
</glyph>
<glyph name="uni0926094D_bhadeva" format="1">
  <advance width="600"/>
  <outline>
    <contour>
      <point x="471" y="102" type="line"/>
      <point x="446" y="89"/>
      <point x="424" y="76"/>
      <point x="390" y="76" type="curve" smooth="yes"/>
      <point x="328" y="76"/>
      <point x="291" y="111"/>
      <point x="291" y="163" type="curve" smooth="yes"/>
      <point x="291" y="213"/>
      <point x="328" y="244"/>
      <point x="396" y="244" type="curve" smooth="yes"/>
      <point x="433" y="244"/>
      <point x="458" y="239"/>
      <point x="494" y="235" type="curve"/>
      <point x="503" y="242" type="line"/>
      <point x="503" y="456" type="line"/>
      <point x="427" y="456" type="line"/>
      <point x="427" y="322" type="line"/>
      <point x="427" y="322"/>
      <point x="402" y="322"/>
      <point x="388" y="322" type="curve" smooth="yes"/>
      <point x="273" y="322"/>
      <point x="209" y="259"/>
      <point x="209" y="167" type="curve" smooth="yes"/>
      <point x="209" y="65"/>
      <point x="286" y="-2"/>
      <point x="389" y="-2" type="curve" smooth="yes"/>
      <point x="441" y="-2"/>
      <point x="476" y="17"/>
      <point x="505" y="32" type="curve"/>
    </contour>
    <contour>
      <point x="-24" y="466" type="line"/>
      <point x="-24" y="396" type="line"/>
      <point x="624" y="396" type="line"/>
      <point x="624" y="466" type="line"/>
    </contour>
    <contour>
      <point x="452" y="44"/>
      <point x="467" y="30"/>
      <point x="480" y="31" type="curve" smooth="yes"/>
      <point x="500" y="32"/>
      <point x="540" y="58"/>
      <point x="540" y="100" type="curve" smooth="yes"/>
      <point x="540" y="132"/>
      <point x="520" y="163"/>
      <point x="476" y="163" type="curve" smooth="yes"/>
      <point x="431" y="163"/>
      <point x="405" y="130"/>
      <point x="405" y="130" type="curve"/>
      <point x="443" y="49" type="line"/>
    </contour>
    <contour>
      <point x="439" y="56" type="line"/>
      <point x="439" y="56"/>
      <point x="513" y="-82"/>
      <point x="513" y="-82" type="curve" smooth="yes"/>
      <point x="513" y="-82"/>
      <point x="582" y="-44"/>
      <point x="582" y="-44" type="curve"/>
      <point x="500" y="87" type="line"/>
    </contour>
    <contour>
      <point x="153" y="-91"/>
      <point x="207" y="-135"/>
      <point x="207" y="-135" type="curve" smooth="yes"/>
      <point x="207" y="-135"/>
      <point x="488" y="25"/>
      <point x="488" y="25" type="curve"/>
      <point x="449" y="68" type="line"/>
      <point x="153" y="-91" type="line"/>
    </contour>
    <contour>
      <point x="153" y="-91" type="line"/>
      <point x="171" y="-122" type="line"/>
      <point x="299" y="-168" type="line"/>
      <point x="329" y="-150" type="line"/>
      <point x="258" y="-30" type="line"/>
    </contour>
    <contour>
      <point x="189" y="98"/>
      <point x="157" y="141"/>
      <point x="98" y="141" type="curve" smooth="yes"/>
      <point x="40" y="141"/>
      <point x="2" y="103"/>
      <point x="2" y="45" type="curve" smooth="yes"/>
      <point x="2" y="-14"/>
      <point x="50" y="-57"/>
      <point x="128" y="-59" type="curve"/>
      <point x="136" y="1" type="line"/>
      <point x="92" y="3"/>
      <point x="68" y="23"/>
      <point x="68" y="44" type="curve" smooth="yes"/>
      <point x="68" y="63"/>
      <point x="81" y="74"/>
      <point x="97" y="74" type="curve" smooth="yes"/>
      <point x="130" y="74"/>
      <point x="154" y="17"/>
      <point x="163" y="2" type="curve"/>
      <point x="210" y="-81" type="line"/>
      <point x="269" y="-48" type="line"/>
      <point x="221" y="36" type="line"/>
    </contour>
    <contour>
      <point x="466" y="447" type="move" name="top"/>
    </contour>
    <contour>
      <point x="549" y="-113" type="move" name="bottom"/>
    </contour>
  </outline>
</glyph>
<glyph name="uni0927094D_radeva" format="1">
  <advance width="495"/>
  <outline>
    <contour>
      <point x="73" y="486"/>
      <point x="35" y="426"/>
      <point x="35" y="369" type="curve"/>
      <point x="35" y="283"/>
      <point x="108" y="239"/>
      <point x="124" y="227" type="curve"/>
      <point x="219" y="267" type="line"/>
      <point x="219" y="267"/>
      <point x="119" y="291"/>
      <point x="119" y="371" type="curve"/>
      <point x="119" y="396"/>
      <point x="127" y="417"/>
      <point x="154" y="417" type="curve"/>
      <point x="167" y="417"/>
      <point x="176" y="409"/>
      <point x="176" y="397" type="curve"/>
      <point x="176" y="385"/>
      <point x="170" y="375"/>
      <point x="157" y="363" type="curve"/>
      <point x="210" y="318" type="line"/>
      <point x="231" y="340"/>
      <point x="250" y="364"/>
      <point x="250" y="396" type="curve"/>
      <point x="250" y="441"/>
      <point x="220" y="486"/>
      <point x="152" y="486" type="curve"/>
    </contour>
    <contour>
      <point x="127" y="277"/>
      <point x="68" y="236"/>
      <point x="68" y="176" type="curve" smooth="yes"/>
      <point x="68" y="97"/>
      <point x="136" y="60"/>
      <point x="232" y="60" type="curve" smooth="yes"/>
      <point x="317" y="60"/>
      <point x="372" y="98"/>
      <point x="372" y="99" type="curve"/>
      <point x="372" y="183" type="line"/>
      <point x="372" y="183"/>
      <point x="329" y="129"/>
      <point x="229" y="129" type="curve" smooth="yes"/>
      <point x="191" y="129"/>
      <point x="154" y="139"/>
      <point x="154" y="169" type="curve" smooth="yes"/>
      <point x="154" y="195"/>
      <point x="199" y="204"/>
      <point x="266" y="212" type="curve"/>
      <point x="251" y="285" type="line"/>
    </contour>
    <contour>
      <point x="282" y="466" type="line"/>
      <point x="282" y="396" type="line"/>
      <point x="519" y="396" type="line"/>
      <point x="519" y="466" type="line"/>
    </contour>
    <contour>
      <point x="345" y="0" type="line"/>
      <point x="430" y="0" type="line"/>
      <point x="430" y="466" type="line"/>
      <point x="345" y="466" type="line"/>
    </contour>
    <contour>
      <point x="113" y="-44" type="line"/>
      <point x="356" y="89" type="line"/>
      <point x="337" y="130" type="line"/>
      <point x="57" y="19" type="line"/>
    </contour>
    <contour>
      <point x="387" y="447" type="move" name="top"/>
    </contour>
    <contour>
      <point x="387" y="5" type="move" name="bottom"/>
    </contour>
  </outline>
</glyph>
<glyph name="uni0928094D" format="1">
  <advance width="239"/>
  <outline>
    <contour>
      <point x="-24" y="466" type="line"/>
      <point x="-24" y="396" type="line"/>
      <point x="269" y="396" type="line"/>
      <point x="269" y="466" type="line"/>
    </contour>
    <contour>
      <point x="44" y="270" type="line"/>
      <point x="34" y="228" type="line"/>
      <point x="95" y="95" type="line"/>
      <point x="95" y="95"/>
      <point x="152" y="95"/>
      <point x="152" y="95" type="curve"/>
      <point x="152" y="270" type="line"/>
    </contour>
    <contour>
      <point x="91" y="270" type="line"/>
      <point x="91" y="192" type="line"/>
      <point x="316" y="192" type="line"/>
      <point x="316" y="270" type="line"/>
    </contour>
  </outline>
</glyph>
<glyph name="uni0928094D0924094D_radeva" format="1">
  <advance width="692"/>
  <outline>
    <contour>
      <point x="-24" y="466" type="line"/>
      <point x="-24" y="396" type="line"/>
      <point x="269" y="396" type="line"/>
      <point x="269" y="466" type="line"/>
    </contour>
    <contour>
      <point x="44" y="268" type="line"/>
      <point x="34" y="226" type="line"/>
      <point x="95" y="93" type="line"/>
      <point x="95" y="93"/>
      <point x="152" y="93"/>
      <point x="152" y="93" type="curve"/>
      <point x="152" y="268" type="line"/>
    </contour>
    <contour>
      <point x="91" y="268" type="line"/>
      <point x="91" y="190" type="line"/>
      <point x="323" y="190" type="line"/>
      <point x="323" y="268" type="line"/>
    </contour>
    <contour>
      <point x="215" y="466" type="line"/>
      <point x="215" y="396" type="line"/>
      <point x="716" y="396" type="line"/>
      <point x="716" y="466" type="line"/>
    </contour>
    <contour>
      <point x="544" y="0" type="line"/>
      <point x="629" y="0" type="line"/>
      <point x="629" y="466" type="line"/>
      <point x="544" y="466" type="line"/>
    </contour>
    <contour>
      <point x="322" y="61"/>
      <point x="381" y="-2"/>
      <point x="381" y="-2" type="curve" smooth="yes"/>
      <point x="381" y="-2"/>
      <point x="590" y="182"/>
      <point x="590" y="182" type="curve"/>
      <point x="536" y="239" type="line"/>
      <point x="322" y="61" type="line"/>
    </contour>
    <contour>
      <point x="543" y="309"/>
      <point x="488" y="343"/>
      <point x="436" y="343" type="curve"/>
      <point x="356" y="343"/>
      <point x="307" y="294"/>
      <point x="262" y="247" type="curve"/>
      <point x="323" y="190" type="line"/>
      <point x="358" y="224"/>
      <point x="389" y="262"/>
      <point x="435" y="260" type="curve"/>
      <point x="478" y="260"/>
      <point x="508" y="236"/>
      <point x="539" y="198" type="curve" smooth="yes"/>
      <point x="550" y="184"/>
      <point x="567" y="176"/>
      <point x="577" y="163" type="curve"/>
      <point x="595" y="249" type="line"/>
    </contour>
    <contour>
      <point x="587" y="447" type="move" name="top"/>
    </contour>
    <contour>
      <point x="587" y="5" type="move" name="bottom"/>
    </contour>
  </outline>
</glyph>
<glyph name="uni0928094D0939094D_uuvowelsign" format="1">
  <advance width="637"/>
  <outline>
    <contour>
      <point x="-24" y="466" type="line"/>
      <point x="-24" y="396" type="line"/>
      <point x="264" y="396" type="line"/>
      <point x="264" y="466" type="line"/>
    </contour>
    <contour>
      <point x="44" y="270" type="line"/>
      <point x="34" y="228" type="line"/>
      <point x="95" y="95" type="line"/>
      <point x="95" y="95"/>
      <point x="152" y="95"/>
      <point x="152" y="95" type="curve"/>
      <point x="152" y="270" type="line"/>
    </contour>
    <contour>
      <point x="91" y="270" type="line"/>
      <point x="91" y="192" type="line"/>
      <point x="311" y="192" type="line"/>
      <point x="311" y="270" type="line"/>
    </contour>
    <contour>
      <point x="196" y="466" type="line"/>
      <point x="196" y="396" type="line"/>
      <point x="661" y="396" type="line"/>
      <point x="661" y="466" type="line"/>
    </contour>
    <contour>
      <point x="391" y="198"/>
      <point x="357" y="213"/>
      <point x="357" y="242" type="curve" smooth="yes"/>
      <point x="357" y="265"/>
      <point x="383" y="272"/>
      <point x="433" y="272" type="curve" smooth="yes"/>
      <point x="487" y="272"/>
      <point x="508" y="267"/>
      <point x="543" y="263" type="curve"/>
      <point x="553" y="270" type="line"/>
      <point x="553" y="466" type="line"/>
      <point x="477" y="466" type="line"/>
      <point x="477" y="342" type="line"/>
      <point x="461" y="345"/>
      <point x="439" y="346"/>
      <point x="426" y="346" type="curve" smooth="yes"/>
      <point x="333" y="346"/>
      <point x="275" y="317"/>
      <point x="275" y="246" type="curve" smooth="yes"/>
      <point x="275" y="201"/>
      <point x="296" y="176"/>
      <point x="327" y="143" type="curve"/>
      <point x="392" y="198" type="line"/>
    </contour>
    <contour>
      <point x="278" y="9"/>
      <point x="329" y="-29"/>
      <point x="402" y="-52" type="curve"/>
      <point x="446" y="0" type="line"/>
      <point x="398" y="21"/>
      <point x="354" y="33"/>
      <point x="354" y="78" type="curve" smooth="yes"/>
      <point x="354" y="121"/>
      <point x="390" y="144"/>
      <point x="446" y="144" type="curve"/>
      <point x="477" y="142"/>
      <point x="499" y="136"/>
      <point x="499" y="111" type="curve" smooth="yes"/>
      <point x="499" y="95"/>
      <point x="493" y="81"/>
      <point x="486" y="72" type="curve"/>
      <point x="550" y="29" type="line"/>
      <point x="566" y="48"/>
      <point x="581" y="77"/>
      <point x="581" y="111" type="curve" smooth="yes"/>
      <point x="581" y="182"/>
      <point x="520" y="219"/>
      <point x="440" y="219" type="curve" smooth="yes"/>
      <point x="401" y="219"/>
      <point x="374" y="208"/>
      <point x="348" y="195" type="curve" smooth="yes"/>
      <point x="306" y="174"/>
      <point x="278" y="132"/>
      <point x="278" y="80" type="curve" smooth="yes"/>
    </contour>
    <contour>
      <point x="446" y="-128"/>
      <point x="434" y="-133"/>
      <point x="415" y="-133" type="curve" smooth="yes"/>
      <point x="392" y="-133"/>
      <point x="377" y="-117"/>
      <point x="377" y="-96" type="curve" smooth="yes"/>
      <point x="377" y="-71"/>
      <point x="397" y="-60"/>
      <point x="426" y="-60" type="curve" smooth="yes"/>
      <point x="472" y="-60"/>
      <point x="520" y="-124"/>
      <point x="583" y="-199" type="curve"/>
      <point x="636" y="-156" type="line"/>
      <point x="603" y="-117"/>
      <point x="512" y="12"/>
      <point x="426" y="12" type="curve" smooth="yes"/>
      <point x="358" y="12"/>
      <point x="305" y="-27"/>
      <point x="305" y="-96" type="curve" smooth="yes"/>
      <point x="305" y="-156"/>
      <point x="346" y="-204"/>
      <point x="414" y="-204" type="curve" smooth="yes"/>
      <point x="448" y="-204"/>
      <point x="474" y="-192"/>
      <point x="487" y="-184" type="curve"/>
      <point x="459" y="-122" type="line"/>
    </contour>
    <contour>
      <point x="515" y="447" type="move" name="top"/>
    </contour>
  </outline>
</glyph>
<glyph name="uni0928094D_dhadeva" format="1">
  <advance width="706"/>
  <outline>
    <contour>
      <point x="-24" y="466" type="line"/>
      <point x="-24" y="396" type="line"/>
      <point x="235" y="396" type="line"/>
      <point x="235" y="466" type="line"/>
    </contour>
    <contour>
      <point x="44" y="262" type="line"/>
      <point x="34" y="220" type="line"/>
      <point x="95" y="87" type="line"/>
      <point x="95" y="87"/>
      <point x="152" y="87"/>
      <point x="152" y="87" type="curve"/>
      <point x="152" y="262" type="line"/>
    </contour>
    <contour>
      <point x="277" y="257"/>
      <point x="249" y="262"/>
      <point x="200" y="262" type="curve"/>
      <point x="91" y="262" type="line"/>
      <point x="91" y="184" type="line"/>
      <point x="316" y="184" type="line"/>
      <point x="316" y="242" type="line"/>
    </contour>
    <contour>
      <point x="284" y="486"/>
      <point x="246" y="426"/>
      <point x="246" y="369" type="curve"/>
      <point x="246" y="283"/>
      <point x="319" y="239"/>
      <point x="335" y="227" type="curve"/>
      <point x="425" y="262" type="line"/>
      <point x="425" y="262"/>
      <point x="330" y="291"/>
      <point x="330" y="371" type="curve"/>
      <point x="330" y="396"/>
      <point x="338" y="417"/>
      <point x="365" y="417" type="curve"/>
      <point x="378" y="417"/>
      <point x="387" y="409"/>
      <point x="387" y="397" type="curve"/>
      <point x="387" y="385"/>
      <point x="381" y="375"/>
      <point x="368" y="363" type="curve"/>
      <point x="421" y="318" type="line"/>
      <point x="442" y="340"/>
      <point x="461" y="364"/>
      <point x="461" y="396" type="curve"/>
      <point x="461" y="441"/>
      <point x="431" y="486"/>
      <point x="363" y="486" type="curve"/>
    </contour>
    <contour>
      <point x="338" y="277"/>
      <point x="279" y="236"/>
      <point x="279" y="176" type="curve" smooth="yes"/>
      <point x="279" y="97"/>
      <point x="347" y="50"/>
      <point x="443" y="50" type="curve" smooth="yes"/>
      <point x="528" y="50"/>
      <point x="583" y="88"/>
      <point x="583" y="89" type="curve"/>
      <point x="583" y="183" type="line"/>
      <point x="583" y="183"/>
      <point x="540" y="129"/>
      <point x="440" y="129" type="curve" smooth="yes"/>
      <point x="402" y="129"/>
      <point x="363" y="139"/>
      <point x="363" y="169" type="curve" smooth="yes"/>
      <point x="363" y="195"/>
      <point x="408" y="204"/>
      <point x="477" y="212" type="curve"/>
      <point x="462" y="285" type="line"/>
    </contour>
    <contour>
      <point x="493" y="466" type="line"/>
      <point x="493" y="396" type="line"/>
      <point x="730" y="396" type="line"/>
      <point x="730" y="466" type="line"/>
    </contour>
    <contour>
      <point x="556" y="0" type="line"/>
      <point x="641" y="0" type="line"/>
      <point x="641" y="466" type="line"/>
      <point x="556" y="466" type="line"/>
    </contour>
    <contour>
      <point x="600" y="447" type="move" name="top"/>
    </contour>
    <contour>
      <point x="600" y="5" type="move" name="bottom"/>
    </contour>
  </outline>
</glyph>
<glyph name="uni0928094D_khadeva" format="1">
  <advance width="881"/>
  <outline>
    <contour>
      <point x="-24" y="466" type="line"/>
      <point x="-24" y="396" type="line"/>
      <point x="263" y="396" type="line"/>
      <point x="263" y="466" type="line"/>
    </contour>
    <contour>
      <point x="44" y="270" type="line"/>
      <point x="34" y="228" type="line"/>
      <point x="95" y="95" type="line"/>
      <point x="95" y="95"/>
      <point x="152" y="95"/>
      <point x="152" y="95" type="curve"/>
      <point x="152" y="270" type="line"/>
    </contour>
    <contour>
      <point x="249" y="270"/>
      <point x="197" y="270"/>
      <point x="91" y="270" type="curve"/>
      <point x="91" y="192" type="line"/>
      <point x="322" y="192" type="line"/>
      <point x="322" y="256" type="line"/>
    </contour>
    <contour>
      <point x="330" y="423"/>
      <point x="416" y="403"/>
      <point x="416" y="306" type="curve" smooth="yes"/>
      <point x="416" y="217"/>
      <point x="307" y="216"/>
      <point x="307" y="216" type="curve" smooth="yes"/>
      <point x="307" y="216"/>
      <point x="337" y="148"/>
      <point x="337" y="148" type="curve"/>
      <point x="395" y="148"/>
      <point x="494" y="195"/>
      <point x="494" y="304" type="curve" smooth="yes"/>
      <point x="494" y="410"/>
      <point x="406" y="448"/>
      <point x="406" y="448" type="curve"/>
      <point x="330" y="423" type="line"/>
    </contour>
    <contour>
      <point x="461" y="-25" type="line"/>
      <point x="461" y="-25"/>
      <point x="523" y="26"/>
      <point x="523" y="26" type="curve"/>
      <point x="322" y="256" type="line"/>
      <point x="264" y="207" type="line"/>
    </contour>
    <contour>
      <point x="235" y="466" type="line"/>
      <point x="235" y="396" type="line"/>
      <point x="550" y="396" type="line"/>
      <point x="550" y="466" type="line"/>
    </contour>
    <contour>
      <point x="456" y="466" type="line"/>
      <point x="456" y="396" type="line"/>
      <point x="905" y="396" type="line"/>
      <point x="905" y="466" type="line"/>
    </contour>
    <contour>
      <point x="594" y="245"/>
      <point x="623" y="265"/>
      <point x="669" y="265" type="curve" smooth="yes"/>
      <point x="731" y="265"/>
      <point x="757" y="220"/>
      <point x="773" y="203" type="curve"/>
      <point x="789" y="284" type="line"/>
      <point x="771" y="307"/>
      <point x="725" y="345"/>
      <point x="661" y="345" type="curve" smooth="yes"/>
      <point x="578" y="345"/>
      <point x="510" y="295"/>
      <point x="510" y="197" type="curve" smooth="yes"/>
      <point x="510" y="103"/>
      <point x="582" y="53"/>
      <point x="665" y="53" type="curve" smooth="yes"/>
      <point x="737" y="53"/>
      <point x="762" y="82"/>
      <point x="789" y="100" type="curve"/>
      <point x="773" y="180" type="line"/>
      <point x="757" y="163"/>
      <point x="731" y="129"/>
      <point x="679" y="129" type="curve" smooth="yes"/>
      <point x="633" y="129"/>
      <point x="594" y="149"/>
      <point x="594" y="197" type="curve" smooth="yes"/>
    </contour>
    <contour>
      <point x="731" y="0" type="line"/>
      <point x="816" y="0" type="line"/>
      <point x="816" y="466" type="line"/>
      <point x="731" y="466" type="line"/>
    </contour>
    <contour>
      <point x="774" y="447" type="move" name="top"/>
    </contour>
    <contour>
      <point x="774" y="5" type="move" name="bottom"/>
    </contour>
  </outline>
</glyph>
<glyph name="uni0928094D_madeva" format="1">
  <advance width="714"/>
  <outline>
    <contour>
      <point x="-24" y="466" type="line"/>
      <point x="-24" y="396" type="line"/>
      <point x="239" y="396" type="line"/>
      <point x="239" y="466" type="line"/>
    </contour>
    <contour>
      <point x="44" y="320" type="line"/>
      <point x="34" y="278" type="line"/>
      <point x="95" y="145" type="line"/>
      <point x="95" y="145"/>
      <point x="152" y="145"/>
      <point x="152" y="145" type="curve"/>
      <point x="152" y="320" type="line"/>
    </contour>
    <contour>
      <point x="91" y="320" type="line"/>
      <point x="91" y="245" type="line"/>
      <point x="356" y="245" type="line"/>
      <point x="356" y="320" type="line"/>
    </contour>
    <contour>
      <point x="564" y="0" type="line"/>
      <point x="649" y="0" type="line"/>
      <point x="649" y="466" type="line"/>
      <point x="564" y="466" type="line"/>
    </contour>
    <contour>
      <point x="191" y="466" type="line"/>
      <point x="191" y="396" type="line"/>
      <point x="738" y="396" type="line"/>
      <point x="738" y="466" type="line"/>
    </contour>
    <contour>
      <point x="254" y="203" type="line"/>
      <point x="254" y="161" type="line"/>
      <point x="353" y="41" type="line"/>
      <point x="353" y="41"/>
      <point x="410" y="41"/>
      <point x="410" y="41" type="curve"/>
      <point x="410" y="203" type="line"/>
    </contour>
    <contour>
      <point x="349" y="203" type="line"/>
      <point x="349" y="128" type="line"/>
      <point x="602" y="128" type="line"/>
      <point x="602" y="203" type="line"/>
    </contour>
    <contour>
      <point x="325" y="128" type="line"/>
      <point x="410" y="128" type="line"/>
      <point x="410" y="466" type="line"/>
      <point x="325" y="466" type="line"/>
    </contour>
    <contour>
      <point x="608" y="447" type="move" name="top"/>
    </contour>
    <contour>
      <point x="609" y="5" type="move" name="bottom"/>
    </contour>
  </outline>
</glyph>
<glyph name="uni0928094D_shadeva" format="1">
  <advance width="802"/>
  <outline>
    <contour>
      <point x="-24" y="466" type="line"/>
      <point x="-24" y="396" type="line"/>
      <point x="264" y="396" type="line"/>
      <point x="264" y="466" type="line"/>
    </contour>
    <contour>
      <point x="44" y="250" type="line"/>
      <point x="34" y="208" type="line"/>
      <point x="95" y="75" type="line"/>
      <point x="95" y="75"/>
      <point x="152" y="75"/>
      <point x="152" y="75" type="curve"/>
      <point x="152" y="250" type="line"/>
    </contour>
    <contour>
      <point x="91" y="250" type="line"/>
      <point x="91" y="172" type="line"/>
      <point x="326" y="172" type="line"/>
      <point x="326" y="250" type="line"/>
    </contour>
    <contour>
      <point x="545" y="426"/>
      <point x="488" y="479"/>
      <point x="414" y="479" type="curve" smooth="yes"/>
      <point x="355" y="479"/>
      <point x="300" y="443"/>
      <point x="300" y="373" type="curve" smooth="yes"/>
      <point x="300" y="323"/>
      <point x="328" y="291"/>
      <point x="377" y="262" type="curve"/>
      <point x="417" y="322" type="line"/>
      <point x="393" y="340"/>
      <point x="380" y="351"/>
      <point x="380" y="372" type="curve" smooth="yes"/>
      <point x="380" y="392"/>
      <point x="393" y="403"/>
      <point x="414" y="403" type="curve" smooth="yes"/>
      <point x="440" y="403"/>
      <point x="462" y="379"/>
      <point x="464" y="348" type="curve" smooth="yes"/>
      <point x="470" y="253"/>
      <point x="372" y="200"/>
      <point x="337" y="181" type="curve"/>
      <point x="392" y="118" type="line"/>
      <point x="455" y="159"/>
      <point x="545" y="225"/>
      <point x="545" y="338" type="curve" smooth="yes"/>
    </contour>
    <contour>
      <point x="270" y="155"/>
      <point x="294" y="123"/>
      <point x="352" y="117" type="curve"/>
      <point x="475" y="-23" type="line"/>
      <point x="475" y="-23"/>
      <point x="532" y="32"/>
      <point x="532" y="32" type="curve"/>
      <point x="326" y="250" type="line"/>
      <point x="293" y="245"/>
      <point x="270" y="221"/>
      <point x="270" y="191" type="curve" smooth="yes"/>
    </contour>
    <contour>
      <point x="579" y="466" type="line"/>
      <point x="579" y="396" type="line"/>
      <point x="826" y="396" type="line"/>
      <point x="826" y="466" type="line"/>
    </contour>
    <contour>
      <point x="652" y="0" type="line"/>
      <point x="737" y="0" type="line"/>
      <point x="737" y="466" type="line"/>
      <point x="652" y="466" type="line"/>
    </contour>
    <contour>
      <point x="695" y="447" type="move" name="top"/>
    </contour>
    <contour>
      <point x="695" y="5" type="move" name="bottom"/>
    </contour>
  </outline>
</glyph>
<glyph name="uni092C094D0930094D" format="1">
  <advance width="238"/>
  <outline>
    <contour>
      <point x="-24" y="466" type="line"/>
      <point x="-24" y="396" type="line"/>
      <point x="262" y="396" type="line"/>
      <point x="262" y="466" type="line"/>
    </contour>
    <contour>
      <point x="273" y="152"/>
      <point x="254" y="129"/>
      <point x="196" y="129" type="curve" smooth="yes"/>
      <point x="138" y="129"/>
      <point x="119" y="162"/>
      <point x="119" y="201" type="curve" smooth="yes"/>
      <point x="119" y="250"/>
      <point x="138" y="273"/>
      <point x="196" y="273" type="curve" smooth="yes"/>
      <point x="254" y="273"/>
      <point x="273" y="240"/>
      <point x="273" y="201" type="curve" smooth="yes"/>
    </contour>
    <contour>
      <point x="265" y="90" type="line"/>
      <point x="307" y="130" type="line"/>
      <point x="138" y="306" type="line"/>
      <point x="89" y="270" type="line"/>
    </contour>
    <contour>
      <point x="352" y="291"/>
      <point x="293" y="347"/>
      <point x="194" y="347" type="curve" smooth="yes"/>
      <point x="104" y="347"/>
      <point x="40" y="292"/>
      <point x="40" y="201" type="curve" smooth="yes"/>
      <point x="40" y="131"/>
      <point x="73" y="83"/>
      <point x="135" y="64" type="curve"/>
      <point x="48" y="28" type="line"/>
      <point x="100" y="-31" type="line"/>
      <point x="290" y="85" type="line"/>
      <point x="331" y="106"/>
      <point x="352" y="147"/>
      <point x="352" y="201" type="curve" smooth="yes"/>
    </contour>
  </outline>
</glyph>
<glyph name="uni092C094D_jadeva" format="1">
  <advance width="821"/>
  <outline>
    <contour>
      <point x="230" y="466" type="line"/>
      <point x="230" y="396" type="line"/>
      <point x="845" y="396" type="line"/>
      <point x="845" y="466" type="line"/>
    </contour>
    <contour>
      <point x="671" y="0" type="line"/>
      <point x="756" y="0" type="line"/>
      <point x="756" y="466" type="line"/>
      <point x="671" y="466" type="line"/>
    </contour>
    <contour>
      <point x="492" y="292" type="line"/>
      <point x="488" y="223" type="line"/>
      <point x="706" y="223" type="line"/>
      <point x="706" y="292" type="line"/>
    </contour>
    <contour>
      <point x="603" y="186"/>
      <point x="594" y="231"/>
      <point x="546" y="265" type="curve" smooth="yes"/>
      <point x="535" y="273"/>
      <point x="515" y="284"/>
      <point x="502" y="292" type="curve"/>
      <point x="459" y="292" type="line"/>
      <point x="459" y="226" type="line"/>
      <point x="510" y="226"/>
      <point x="523" y="197"/>
      <point x="523" y="164" type="curve" smooth="yes"/>
      <point x="523" y="130"/>
      <point x="499" y="107"/>
      <point x="463" y="107" type="curve" smooth="yes"/>
      <point x="411" y="107"/>
      <point x="379" y="153"/>
      <point x="344" y="254" type="curve"/>
      <point x="273" y="225" type="line"/>
      <point x="310" y="104"/>
      <point x="370" y="27"/>
      <point x="465" y="27" type="curve" smooth="yes"/>
      <point x="542" y="27"/>
      <point x="603" y="74"/>
      <point x="603" y="156" type="curve" smooth="yes"/>
    </contour>
    <component base="uni092C094D"/>
    <contour>
      <point x="714" y="447" type="move" name="top"/>
    </contour>
    <contour>
      <point x="714" y="5" type="move" name="bottom"/>
    </contour>
  </outline>
</glyph>
<glyph name="uni092D094D_bhadeva" format="1">
  <advance width="826"/>
  <outline>
    <contour>
      <point x="676" y="0" type="line"/>
      <point x="761" y="0" type="line"/>
      <point x="761" y="466" type="line"/>
      <point x="676" y="466" type="line"/>
    </contour>
    <contour>
      <point x="541" y="125" type="line"/>
      <point x="541" y="310" type="line" smooth="yes"/>
      <point x="541" y="422"/>
      <point x="504" y="479"/>
      <point x="420" y="479" type="curve" smooth="yes"/>
      <point x="351" y="479"/>
      <point x="306" y="434"/>
      <point x="306" y="369" type="curve" smooth="yes"/>
      <point x="306" y="317"/>
      <point x="340" y="277"/>
      <point x="389" y="251" type="curve"/>
      <point x="427" y="311" type="line"/>
      <point x="403" y="325"/>
      <point x="380" y="341"/>
      <point x="380" y="369" type="curve" smooth="yes"/>
      <point x="380" y="389"/>
      <point x="394" y="403"/>
      <point x="413" y="403" type="curve" smooth="yes"/>
      <point x="459" y="403"/>
      <point x="454" y="329"/>
      <point x="454" y="310" type="curve" smooth="yes"/>
      <point x="454" y="125" type="line"/>
    </contour>
    <contour>
      <point x="595" y="466" type="line"/>
      <point x="595" y="396" type="line"/>
      <point x="850" y="396" type="line"/>
      <point x="850" y="466" type="line"/>
    </contour>
    <contour>
      <point x="507" y="206" type="line"/>
      <point x="507" y="131" type="line"/>
      <point x="736" y="131" type="line"/>
      <point x="736" y="206" type="line"/>
    </contour>
    <contour>
      <point x="388" y="206" type="line"/>
      <point x="388" y="164" type="line"/>
      <point x="487" y="41" type="line"/>
      <point x="487" y="41"/>
      <point x="541" y="41"/>
      <point x="541" y="41" type="curve"/>
      <point x="541" y="206" type="line"/>
    </contour>
    <component base="uni092D094D"/>
    <contour>
      <point x="719" y="447" type="move" name="top"/>
    </contour>
    <contour>
      <point x="719" y="5" type="move" name="bottom"/>
    </contour>
  </outline>
</glyph>
<glyph name="uni092E094D" format="1">
  <advance width="280"/>
  <outline>
    <contour>
      <point x="-24" y="466" type="line"/>
      <point x="-24" y="396" type="line"/>
      <point x="328" y="396" type="line"/>
      <point x="328" y="466" type="line"/>
    </contour>
    <contour>
      <point x="39" y="218" type="line"/>
      <point x="39" y="176" type="line"/>
      <point x="138" y="53" type="line"/>
      <point x="138" y="53"/>
      <point x="195" y="53"/>
      <point x="195" y="53" type="curve"/>
      <point x="195" y="218" type="line"/>
    </contour>
    <contour>
      <point x="134" y="218" type="line"/>
      <point x="134" y="140" type="line"/>
      <point x="387" y="140" type="line"/>
      <point x="387" y="218" type="line"/>
    </contour>
    <contour>
      <point x="110" y="140" type="line"/>
      <point x="195" y="140" type="line"/>
      <point x="195" y="466" type="line"/>
      <point x="110" y="466" type="line"/>
    </contour>
  </outline>
</glyph>
<glyph name="uni092E094D_bhadeva" format="1">
  <advance width="819"/>
  <outline>
    <contour>
      <point x="-24" y="466" type="line"/>
      <point x="-24" y="396" type="line"/>
      <point x="298" y="396" type="line"/>
      <point x="298" y="466" type="line"/>
    </contour>
    <contour>
      <point x="39" y="206" type="line"/>
      <point x="39" y="164" type="line"/>
      <point x="138" y="41" type="line"/>
      <point x="138" y="41"/>
      <point x="195" y="41"/>
      <point x="195" y="41" type="curve"/>
      <point x="195" y="206" type="line"/>
    </contour>
    <contour>
      <point x="134" y="206" type="line"/>
      <point x="134" y="128" type="line"/>
      <point x="407" y="128" type="line"/>
      <point x="407" y="206" type="line"/>
    </contour>
    <contour>
      <point x="110" y="128" type="line"/>
      <point x="195" y="128" type="line"/>
      <point x="195" y="466" type="line"/>
      <point x="110" y="466" type="line"/>
    </contour>
    <contour>
      <point x="639" y="0" type="line"/>
      <point x="724" y="0" type="line"/>
      <point x="724" y="466" type="line"/>
      <point x="639" y="466" type="line"/>
    </contour>
    <contour>
      <point x="504" y="125" type="line"/>
      <point x="504" y="310" type="line" smooth="yes"/>
      <point x="504" y="422"/>
      <point x="467" y="479"/>
      <point x="383" y="479" type="curve" smooth="yes"/>
      <point x="314" y="479"/>
      <point x="269" y="434"/>
      <point x="269" y="369" type="curve" smooth="yes"/>
      <point x="269" y="317"/>
      <point x="303" y="277"/>
      <point x="352" y="251" type="curve"/>
      <point x="390" y="311" type="line"/>
      <point x="366" y="325"/>
      <point x="343" y="341"/>
      <point x="343" y="369" type="curve" smooth="yes"/>
      <point x="343" y="389"/>
      <point x="357" y="403"/>
      <point x="376" y="403" type="curve" smooth="yes"/>
      <point x="422" y="403"/>
      <point x="417" y="329"/>
      <point x="417" y="310" type="curve" smooth="yes"/>
      <point x="417" y="125" type="line"/>
    </contour>
    <contour>
      <point x="558" y="466" type="line"/>
      <point x="558" y="396" type="line"/>
      <point x="813" y="396" type="line"/>
      <point x="813" y="466" type="line"/>
    </contour>
    <contour>
      <point x="470" y="206" type="line"/>
      <point x="470" y="131" type="line"/>
      <point x="699" y="131" type="line"/>
      <point x="699" y="206" type="line"/>
    </contour>
    <contour>
      <point x="366" y="206" type="line"/>
      <point x="366" y="164" type="line"/>
      <point x="455" y="41" type="line"/>
      <point x="455" y="41"/>
      <point x="504" y="41"/>
      <point x="504" y="41" type="curve"/>
      <point x="504" y="206" type="line"/>
    </contour>
    <contour>
      <point x="683" y="447" type="move" name="top"/>
    </contour>
    <contour>
      <point x="683" y="5" type="move" name="bottom"/>
    </contour>
  </outline>
</glyph>
<glyph name="uni092E094D_nadeva" format="1">
  <advance width="509"/>
  <outline>
    <contour>
      <point x="359" y="0" type="line"/>
      <point x="444" y="0" type="line"/>
      <point x="444" y="466" type="line"/>
      <point x="359" y="466" type="line"/>
    </contour>
    <contour>
      <point x="-24" y="466" type="line"/>
      <point x="-24" y="396" type="line"/>
      <point x="533" y="396" type="line"/>
      <point x="533" y="466" type="line"/>
    </contour>
    <contour>
      <point x="39" y="236" type="line"/>
      <point x="39" y="194" type="line"/>
      <point x="138" y="81" type="line"/>
      <point x="138" y="81"/>
      <point x="191" y="81"/>
      <point x="191" y="81" type="curve"/>
      <point x="191" y="236" type="line"/>
    </contour>
    <contour>
      <point x="134" y="236" type="line"/>
      <point x="134" y="163" type="line"/>
      <point x="397" y="163" type="line"/>
      <point x="397" y="236" type="line"/>
    </contour>
    <contour>
      <point x="110" y="163" type="line"/>
      <point x="191" y="163" type="line"/>
      <point x="191" y="466" type="line"/>
      <point x="110" y="466" type="line"/>
    </contour>
    <contour>
      <point x="201" y="-41" type="line"/>
      <point x="397" y="130" type="line"/>
      <point x="359" y="184" type="line"/>
      <point x="146" y="7" type="line"/>
    </contour>
    <contour>
      <point x="145" y="7" type="line"/>
      <point x="158" y="-26" type="line"/>
      <point x="284" y="-87" type="line"/>
      <point x="284" y="-87"/>
      <point x="316" y="-58"/>
      <point x="316" y="-58" type="curve"/>
      <point x="227" y="46" type="line"/>
    </contour>
    <contour>
      <point x="402" y="447" type="move" name="top"/>
    </contour>
    <contour>
      <point x="411" y="-90" type="move" name="bottom"/>
    </contour>
  </outline>
</glyph>
<glyph name="uni092F094D" format="1">
  <advance width="258"/>
  <outline>
    <contour>
      <point x="326" y="179"/>
      <point x="273" y="156"/>
      <point x="222" y="156" type="curve" smooth="yes"/>
      <point x="188" y="156"/>
      <point x="161" y="169"/>
      <point x="142" y="184" type="curve"/>
      <point x="184" y="225"/>
      <point x="206" y="253"/>
      <point x="206" y="306" type="curve" smooth="yes"/>
      <point x="206" y="356"/>
      <point x="172" y="414"/>
      <point x="118" y="456" type="curve"/>
      <point x="20" y="456" type="line"/>
      <point x="80" y="414"/>
      <point x="124" y="356"/>
      <point x="120" y="307" type="curve" smooth="yes"/>
      <point x="116" y="258"/>
      <point x="79" y="234"/>
      <point x="47" y="217" type="curve"/>
      <point x="34" y="185" type="line"/>
      <point x="61" y="131"/>
      <point x="136" y="76"/>
      <point x="227" y="76" type="curve" smooth="yes"/>
      <point x="319" y="76"/>
      <point x="390" y="139"/>
      <point x="390" y="139" type="curve"/>
      <point x="352" y="224" type="line"/>
    </contour>
    <contour>
      <point x="-24" y="466" type="line"/>
      <point x="-24" y="396" type="line"/>
      <point x="283" y="396" type="line"/>
      <point x="283" y="466" type="line"/>
    </contour>
  </outline>
</glyph>
